<?xml version="1.0" encoding="UTF-8"?>
<!DOCTYPE svg PUBLIC "-//W3C//DTD SVG 1.1//EN" "http://www.w3.org/Graphics/SVG/1.1/DTD/svg11.dtd">
<!-- Creator: CorelDRAW -->
<svg xmlns="http://www.w3.org/2000/svg" xml:space="preserve" width="9.2721mm" height="9.2675mm" version="1.1" style="shape-rendering:geometricPrecision; text-rendering:geometricPrecision; image-rendering:optimizeQuality; fill-rule:evenodd; clip-rule:evenodd"
viewBox="0 0 22.54 22.53"
 xmlns:xlink="http://www.w3.org/1999/xlink"
 xmlns:xodm="http://www.corel.com/coreldraw/odm/2003">
 <defs>
  <style type="text/css">
   <![CDATA[
    .fil0 {fill:#ED7118}
    .fil1 {fill:#F7F7F7}
   ]]>
  </style>
 </defs>
 <g id="Слой_x0020_1">
  <metadata id="CorelCorpID_0Corel-Layer"/>
  <g id="_3028562024656">
   <path class="fil0" d="M15.72 6.79c0.74,-0.12 0.82,0.37 0.76,1.01 -0.05,0.54 -0.13,1.13 -0.21,1.67 -0.26,1.56 -0.48,3.3 -0.78,4.84 -0.19,0.94 -0.24,2.62 -1.15,2.61 -0.49,-0 -0.99,-0.36 -1.28,-0.58 -0.35,-0.26 -0.75,-0.5 -1.12,-0.75 -0.39,-0.27 -0.74,-0.5 -1.11,-0.76 -0.55,-0.38 -1.57,-0.83 -1.14,-1.49l1.88 -1.83c0.09,-0.08 0.15,-0.16 0.23,-0.23l0.48 -0.46c0.22,-0.21 1.02,-0.94 1.17,-1.17 0.17,-0.25 -0.07,-0.41 -0.37,-0.22 -0.39,0.24 -0.76,0.49 -1.14,0.74 -0.39,0.26 -0.74,0.49 -1.12,0.75 -0.75,0.51 -1.49,0.99 -2.24,1.51 -1.09,0.75 -1.56,0.58 -2.89,0.17 -0.93,-0.28 -2.39,-0.66 -0.57,-1.44 1.75,-0.75 3.46,-1.52 5.21,-2.26 0.89,-0.38 4.49,-1.95 5.39,-2.1zm-15.69 5.02c0.19,2.41 0.87,4.4 2.24,6.22l0.64 0.77c0.19,0.21 0.48,0.54 0.69,0.72 0.07,0.06 0.12,0.1 0.18,0.17 0.81,0.79 2.25,1.61 3.24,2.03 1.43,0.6 3.07,0.89 4.8,0.82 2.62,-0.11 4.71,-1.07 6.61,-2.55l0.73 -0.67c0.61,-0.61 1.1,-1.18 1.59,-1.93 2.12,-3.28 2.4,-7.65 0.61,-11.13 -0.52,-1 -1.5,-2.45 -2.41,-3.21 -0.07,-0.06 -0.13,-0.1 -0.19,-0.17 -0.09,-0.09 -0.1,-0.09 -0.19,-0.16 -0.91,-0.79 -1.91,-1.38 -3.06,-1.86 -1.38,-0.57 -3.06,-0.91 -4.76,-0.82 -2.5,0.14 -4.38,0.9 -6.24,2.24l-0.77 0.63 -1.35 1.46c-0.58,0.7 -1.18,1.81 -1.55,2.67 -0.54,1.26 -0.94,3.24 -0.82,4.79z"/>
   <path class="fil1" d="M15.72 6.79c-0.9,0.14 -4.5,1.72 -5.39,2.1 -1.75,0.74 -3.46,1.51 -5.21,2.26 -1.83,0.78 -0.36,1.16 0.57,1.44 1.34,0.41 1.8,0.57 2.89,-0.17 0.75,-0.51 1.49,-1 2.24,-1.51 0.39,-0.26 0.73,-0.49 1.12,-0.75 0.38,-0.25 0.75,-0.5 1.14,-0.74 0.3,-0.18 0.54,-0.03 0.37,0.22 -0.16,0.23 -0.95,0.96 -1.17,1.17l-0.48 0.46c-0.09,0.08 -0.14,0.16 -0.23,0.23l-1.88 1.83c-0.43,0.66 0.6,1.11 1.14,1.49 0.37,0.26 0.73,0.49 1.11,0.76 0.37,0.26 0.77,0.49 1.12,0.75 0.29,0.21 0.79,0.57 1.28,0.58 0.91,0.01 0.96,-1.67 1.15,-2.61 0.3,-1.53 0.53,-3.28 0.78,-4.84 0.09,-0.53 0.16,-1.12 0.21,-1.67 0.06,-0.64 -0.02,-1.12 -0.76,-1.01z"/>
  </g>
 </g>
</svg>
