<?xml version="1.0" encoding="UTF-8"?>
<!DOCTYPE svg PUBLIC "-//W3C//DTD SVG 1.1//EN" "http://www.w3.org/Graphics/SVG/1.1/DTD/svg11.dtd">
<!-- Creator: CorelDRAW -->
<svg xmlns="http://www.w3.org/2000/svg" xml:space="preserve" width="6.1567mm" height="6.4211mm" version="1.1" style="shape-rendering:geometricPrecision; text-rendering:geometricPrecision; image-rendering:optimizeQuality; fill-rule:evenodd; clip-rule:evenodd"
viewBox="0 0 1.58 1.65"
 xmlns:xlink="http://www.w3.org/1999/xlink"
 xmlns:xodm="http://www.corel.com/coreldraw/odm/2003">
 <defs>
  <style type="text/css">
   <![CDATA[
    .fil0 {fill:white;fill-rule:nonzero}
   ]]>
  </style>
 </defs>
 <g id="Слой_x0020_1">
  <metadata id="CorelCorpID_0Corel-Layer"/>
  <path class="fil0" d="M0.44 0.06c0,-0.03 0.03,-0.06 0.06,-0.06 0.03,0 0.06,0.03 0.06,0.06l0 0.17 0.47 0 0 -0.17c0,-0.03 0.03,-0.06 0.06,-0.06 0.03,0 0.06,0.03 0.06,0.06l0 0.17 0.23 0c0.06,0 0.11,0.02 0.15,0.06 0.04,0.04 0.06,0.09 0.06,0.15l0 0.99c0,0.06 -0.02,0.11 -0.06,0.15l-0 0c-0.04,0.04 -0.09,0.06 -0.15,0.06l-1.15 0c-0.06,0 -0.11,-0.02 -0.15,-0.06 -0.04,-0.04 -0.06,-0.09 -0.06,-0.15l0 -0.99c0,-0.06 0.02,-0.11 0.06,-0.15l0 -0c0.04,-0.04 0.09,-0.06 0.15,-0.06l0.23 0 0 -0.17zm0.03 0.63c0.07,0 0.13,0.06 0.13,0.13 0,0.07 -0.06,0.13 -0.13,0.13 -0.07,0 -0.13,-0.06 -0.13,-0.13 0,-0.07 0.06,-0.13 0.13,-0.13zm0.32 0c0.07,0 0.13,0.06 0.13,0.13 0,0.07 -0.06,0.13 -0.13,0.13 -0.07,0 -0.13,-0.06 -0.13,-0.13 0,-0.07 0.06,-0.13 0.13,-0.13zm0.32 0c0.07,0 0.13,0.06 0.13,0.13 0,0.07 -0.06,0.13 -0.13,0.13 -0.07,0 -0.13,-0.06 -0.13,-0.13 0,-0.07 0.06,-0.13 0.13,-0.13zm-0.64 0.37c0.07,0 0.13,0.06 0.13,0.13 0,0.07 -0.06,0.13 -0.13,0.13 -0.07,0 -0.13,-0.06 -0.13,-0.13 0,-0.07 0.06,-0.13 0.13,-0.13zm0.32 0c0.07,0 0.13,0.06 0.13,0.13 0,0.07 -0.06,0.13 -0.13,0.13 -0.07,0 -0.13,-0.06 -0.13,-0.13 0,-0.07 0.06,-0.13 0.13,-0.13zm0.32 0c0.07,0 0.13,0.06 0.13,0.13 0,0.07 -0.06,0.13 -0.13,0.13 -0.07,0 -0.13,-0.06 -0.13,-0.13 0,-0.07 0.06,-0.13 0.13,-0.13zm-0.55 -0.7l0 0.15c0,0.03 -0.03,0.06 -0.06,0.06 -0.03,0 -0.06,-0.03 -0.06,-0.06l0 -0.15 -0.23 0c-0.03,0 -0.05,0.01 -0.07,0.03l-0 0c-0.02,0.02 -0.03,0.04 -0.03,0.07l0 0.99c0,0.03 0.01,0.05 0.03,0.07 0.02,0.02 0.04,0.03 0.07,0.03l1.15 0c0.03,0 0.05,-0.01 0.07,-0.03 0.02,-0.02 0.03,-0.04 0.03,-0.07l0 -0.99c0,-0.03 -0.01,-0.05 -0.03,-0.07 -0.02,-0.02 -0.04,-0.03 -0.07,-0.03l-0.23 0 0 0.15c0,0.03 -0.03,0.06 -0.06,0.06 -0.03,0 -0.06,-0.03 -0.06,-0.06l0 -0.15 -0.47 0z"/>
 </g>
</svg>
