<?xml version="1.0" encoding="UTF-8"?>
<!DOCTYPE svg PUBLIC "-//W3C//DTD SVG 1.1//EN" "http://www.w3.org/Graphics/SVG/1.1/DTD/svg11.dtd">
<!-- Creator: CorelDRAW -->
<svg xmlns="http://www.w3.org/2000/svg" xml:space="preserve" width="4.7747mm" height="4.8359mm" version="1.1" style="shape-rendering:geometricPrecision; text-rendering:geometricPrecision; image-rendering:optimizeQuality; fill-rule:evenodd; clip-rule:evenodd"
viewBox="0 0 0.58 0.59"
 xmlns:xlink="http://www.w3.org/1999/xlink"
 xmlns:xodm="http://www.corel.com/coreldraw/odm/2003">
 <defs>
  <style type="text/css">
   <![CDATA[
    .fil0 {fill:#AC8F44;fill-rule:nonzero}
   ]]>
  </style>
 </defs>
 <g id="Слой_x0020_1">
  <metadata id="CorelCorpID_0Corel-Layer"/>
  <g id="_105553215531520">
   <g>
    <path class="fil0" d="M0.44 0.05l-0.29 0 -0 -0.05 0.29 0 0 0 0 0.05zm-0 -0.05c0.01,0 0.03,0.01 0.03,0.02 0,0.01 -0.01,0.02 -0.02,0.02l-0 -0.05zm0.14 0.14l-0.05 -0 0 0 -0 -0 -0 -0 -0 -0 -0 -0 -0 -0 -0 -0 -0 -0 -0 -0 -0 -0 -0 -0 -0 -0 -0 -0 -0 -0 -0 -0 -0 -0 -0 -0 -0 -0 -0 -0 -0 -0 -0 -0 -0 -0 -0 -0 -0 -0 -0 -0 -0 -0 -0 -0 -0 -0 -0 -0 -0 -0 -0 -0 -0 -0 -0 -0 -0 -0.05 0.01 0 0.01 0 0.01 0 0.01 0 0.01 0 0.01 0 0.01 0 0.01 0 0.01 0 0.01 0 0.01 0 0.01 0 0.01 0 0.01 0 0.01 0 0.01 0 0 0.01 0 0.01 0 0.01 0 0.01 0 0.01 0 0.01 0 0.01 0 0.01 0 0.01 0 0.01 0 0.01 0 0.01 0 0.01 0 0.01 0 0.01 0 0.01 0 0zm0 0c0,0.01 -0.01,0.02 -0.03,0.02 -0.01,-0 -0.03,-0.01 -0.03,-0.02l0.05 0zm-0.05 0.19l0 -0.19 0.05 0 0 0.19 0 0 -0.05 -0zm0.05 0c0,0.01 -0.01,0.02 -0.03,0.02 -0.01,-0 -0.03,-0.01 -0.03,-0.02l0.05 0zm-0.14 0.14l-0 -0.05 0 0 0 -0 0 -0 0 -0 0 -0 0 -0 0 -0 0 -0 0 -0 0 -0 0 -0 0 -0 0 -0 0 -0 0 -0 0 -0 0 -0 0 -0 0 -0 0 -0 0 -0 0 -0 0 -0 0 -0 0 -0 0 -0 0 -0 0 -0 0 -0 0 -0 0 -0 0 -0 0 -0 0.05 0 -0 0.01 -0 0.01 -0 0.01 -0 0.01 -0 0.01 -0 0.01 -0 0.01 -0 0.01 -0 0.01 -0 0.01 -0 0.01 -0 0.01 -0 0.01 -0 0.01 -0 0.01 -0 0 -0 0 -0.01 0 -0.01 0 -0.01 0 -0.01 0 -0.01 0 -0.01 0 -0.01 0 -0.01 0 -0.01 0 -0.01 0 -0.01 0 -0.01 0 -0.01 0 -0.01 0 -0.01 0 0 0zm0 0c-0.01,0 -0.03,-0.01 -0.03,-0.02 -0,-0.01 0.01,-0.02 0.02,-0.02l0 0.05zm-0.09 -0.05l0.08 0 0 0.05 -0.08 0 -0.01 -0.04 0.01 -0zm0 0.05c-0.01,0 -0.03,-0.01 -0.03,-0.02 -0,-0.01 0.01,-0.02 0.02,-0.02l0 0.05zm-0.22 0.07l0.2 -0.12 0.03 0.04 -0.2 0.12 -0.04 -0.02 0.01 -0.02zm0.03 0.04c-0.01,0.01 -0.03,0 -0.04,-0.01 -0.01,-0.01 -0,-0.03 0.01,-0.03l0.03 0.04zm0.01 -0.14l0 0.12 -0.05 -0 0 -0.12 0.02 -0.02 0.03 0.02zm-0.05 -0c0,-0.01 0.01,-0.02 0.03,-0.02 0.01,0 0.03,0.01 0.03,0.02l-0.05 -0zm0.02 -0.02l0.01 0 0 0.05 -0.01 0 0 0 -0 -0.05zm0 0.05c-0.01,0 -0.03,-0.01 -0.03,-0.02 -0,-0.01 0.01,-0.02 0.02,-0.02l0 0.05zm-0.14 -0.14l0.05 0 0 0 0 0 0 0 0 0 0 0 0 0 0 0 0 0 0 0 0 0 0 0 0 0 0 0 0 0 0 0 0 0 0 0 0 0 0 0 0 0 0 0 0 0 0 0 0 0 0 0 0 0 0 0 0 0 0 0 0 0 0 0 0 0 0 0 0 0.05 -0.01 -0 -0.01 -0 -0.01 -0 -0.01 -0 -0.01 -0 -0.01 -0 -0.01 -0 -0.01 -0 -0.01 -0 -0.01 -0 -0.01 -0 -0.01 -0 -0.01 -0 -0.01 -0 -0.01 -0 -0.01 -0 -0 -0.01 -0 -0.01 -0 -0.01 -0 -0.01 -0 -0.01 -0 -0.01 -0 -0.01 -0 -0.01 -0 -0.01 -0 -0.01 -0 -0.01 -0 -0.01 -0 -0.01 -0 -0.01 -0 -0.01 -0 -0.01 0 0zm0 0c0,-0.01 0.01,-0.02 0.03,-0.02 0.01,0 0.03,0.01 0.03,0.02l-0.05 -0zm0.05 -0.19l0 0.19 -0.05 -0 0 -0.19 0 0 0.05 0zm-0.05 -0c0,-0.01 0.01,-0.02 0.03,-0.02 0.01,0 0.03,0.01 0.03,0.02l-0.05 -0zm0.14 -0.14l0 0.05 0 0 -0 0 -0 0 -0 0 -0 0 -0 0 -0 0 -0 0 -0 0 -0 0 -0 0 -0 0 -0 0 -0 0 -0 0 -0 0 -0 0 -0 0 -0 0 -0 0 -0 0 -0 0 -0 0 -0 0 -0 0 -0 0 -0 0 -0 0 -0 0 -0 0 -0 0 -0 0 -0 0 -0.05 -0 0 -0.01 0 -0.01 0 -0.01 0 -0.01 0 -0.01 0 -0.01 0 -0.01 0 -0.01 0 -0.01 0 -0.01 0 -0.01 0 -0.01 0 -0.01 0 -0.01 0 -0.01 0 -0 0 -0 0.01 -0 0.01 -0 0.01 -0 0.01 -0 0.01 -0 0.01 -0 0.01 -0 0.01 -0 0.01 -0 0.01 -0 0.01 -0 0.01 -0 0.01 -0 0.01 -0 0.01 -0 0 0zm0 0c0.01,0 0.03,0.01 0.03,0.02 0,0.01 -0.01,0.02 -0.02,0.02l-0 -0.05z"/>
   </g>
   <g>
    <path class="fil0" d="M0.15 0.2c-0.01,0 -0.03,-0.01 -0.03,-0.02 -0,-0.01 0.01,-0.02 0.02,-0.02l0 0.05zm0.28 0l-0.28 0 -0 -0.05 0.28 0 0 0.05zm-0 -0.05c0.01,0 0.03,0.01 0.03,0.02 0,0.01 -0.01,0.02 -0.02,0.02l-0 -0.05z"/>
   </g>
   <g>
    <path class="fil0" d="M0.15 0.31c-0.01,0 -0.03,-0.01 -0.03,-0.02 -0,-0.01 0.01,-0.02 0.02,-0.02l0 0.05zm0.28 0l-0.28 0 -0 -0.05 0.28 0 0 0.05zm-0 -0.05c0.01,0 0.03,0.01 0.03,0.02 0,0.01 -0.01,0.02 -0.02,0.02l-0 -0.05z"/>
   </g>
  </g>
 </g>
</svg>
