<?xml version="1.0" encoding="UTF-8"?>
<!DOCTYPE svg PUBLIC "-//W3C//DTD SVG 1.1//EN" "http://www.w3.org/Graphics/SVG/1.1/DTD/svg11.dtd">
<!-- Creator: CorelDRAW -->
<svg xmlns="http://www.w3.org/2000/svg" xml:space="preserve" width="7.4021mm" height="4.4425mm" version="1.1" style="shape-rendering:geometricPrecision; text-rendering:geometricPrecision; image-rendering:optimizeQuality; fill-rule:evenodd; clip-rule:evenodd"
viewBox="0 0 2.33 1.4"
 xmlns:xlink="http://www.w3.org/1999/xlink"
 xmlns:xodm="http://www.corel.com/coreldraw/odm/2003">
 <defs>
  <style type="text/css">
   <![CDATA[
    .fil0 {fill:white}
   ]]>
  </style>
 </defs>
 <g id="Слой_x0020_1">
  <metadata id="CorelCorpID_0Corel-Layer"/>
  <path class="fil0" d="M1.16 0c0.64,0 1.16,0.25 1.16,0.57 0,0.31 -0.52,0.57 -1.16,0.57 -0.14,0 -0.27,-0.01 -0.39,-0.03l-0.48 0.28c-0.03,0.02 -0.07,0.02 -0.09,-0 -0.03,-0.02 -0.04,-0.05 -0.03,-0.09l0.09 -0.36c-0.16,-0.1 -0.26,-0.22 -0.26,-0.36 0,-0.31 0.52,-0.57 1.16,-0.57zm-0.39 0.42c0.09,0 0.16,0.07 0.16,0.16 0,0.09 -0.07,0.16 -0.16,0.16 -0.09,0 -0.16,-0.07 -0.16,-0.16 0,-0.09 0.07,-0.16 0.16,-0.16zm0.39 0c0.09,0 0.16,0.07 0.16,0.16 0,0.09 -0.07,0.16 -0.16,0.16 -0.09,0 -0.16,-0.07 -0.16,-0.16 0,-0.09 0.07,-0.16 0.16,-0.16zm0.39 0c0.09,0 0.16,0.07 0.16,0.16 0,0.09 -0.07,0.16 -0.16,0.16 -0.09,0 -0.16,-0.07 -0.16,-0.16 0,-0.09 0.07,-0.16 0.16,-0.16zm0.37 -0.12c-0.19,-0.09 -0.46,-0.15 -0.76,-0.15 -0.3,0 -0.57,0.06 -0.76,0.15 -0.16,0.08 -0.26,0.18 -0.26,0.27 0,0.04 0.01,0.07 0.04,0.11l0 -0c0.03,0.05 0.09,0.09 0.15,0.13l0.09 0.05 -0.08 0.34 0.41 -0.24 0.05 0.01c0.06,0.01 0.12,0.02 0.18,0.02 0.06,0 0.12,0.01 0.19,0.01 0.3,0 0.57,-0.06 0.76,-0.15 0.16,-0.08 0.26,-0.18 0.26,-0.27 0,-0.1 -0.1,-0.2 -0.26,-0.27z"/>
 </g>
</svg>
