<?xml version="1.0" encoding="UTF-8"?>
<!DOCTYPE svg PUBLIC "-//W3C//DTD SVG 1.1//EN" "http://www.w3.org/Graphics/SVG/1.1/DTD/svg11.dtd">
<!-- Creator: CorelDRAW -->
<svg xmlns="http://www.w3.org/2000/svg" xml:space="preserve" width="4.2166mm" height="5.3068mm" version="1.1" style="shape-rendering:geometricPrecision; text-rendering:geometricPrecision; image-rendering:optimizeQuality; fill-rule:evenodd; clip-rule:evenodd"
viewBox="0 0 0.27 0.34"
 xmlns:xlink="http://www.w3.org/1999/xlink"
 xmlns:xodm="http://www.corel.com/coreldraw/odm/2003">
 <defs>
  <style type="text/css">
   <![CDATA[
    .fil0 {fill:#AC8F44;fill-rule:nonzero}
   ]]>
  </style>
 </defs>
 <g id="Слой_x0020_1">
  <metadata id="CorelCorpID_0Corel-Layer"/>
  <g id="_105553271394336">
   <g>
    <path class="fil0" d="M0.2 0.02l-0.14 0 -0 -0.02 0.14 0 0 0 0 0.02zm-0 -0.02c0.01,0 0.01,0.01 0.01,0.01 0,0.01 -0.01,0.01 -0.01,0.01l-0 -0.02zm0.06 0.06l-0.03 -0 0 0 -0 -0 -0 -0 -0 -0 -0 -0 -0 -0 -0 -0 -0 -0 -0 -0 -0 -0 -0 -0 -0 -0 -0 -0 -0 -0 -0 -0 -0 -0 -0 -0 -0 -0 -0 -0 -0 -0 -0 -0 -0 -0 -0 -0 -0 -0 -0 -0 -0 -0 -0 -0 -0 -0 -0 -0 -0 -0 -0 -0 -0 -0 -0 -0 -0 -0.02 0 0 0 0 0 0 0 0 0 0 0 0 0 0 0 0 0 0 0 0 0 0 0 0 0 0 0 0 0 0 0 0 0 0 0 0 0 0 0 0 0 0 0 0 0 0 0 0 0 0 0 0 0 0 0 0 0 0 0 0 0 0 0 0 0 0zm0 0c0,0.01 -0.01,0.01 -0.01,0.01 -0.01,-0 -0.01,-0.01 -0.01,-0.01l0.03 0zm-0.03 0.21l0 -0.21 0.03 0 0 0.21 0 0 -0.03 -0zm0.03 0c0,0.01 -0.01,0.01 -0.01,0.01 -0.01,-0 -0.01,-0.01 -0.01,-0.01l0.03 0zm-0.06 0.06l-0 -0.02 0 0 0 -0 0 -0 0 -0 0 -0 0 -0 0 -0 0 -0 0 -0 0 -0 0 -0 0 -0 0 -0 0 -0 0 -0 0 -0 0 -0 0 -0 0 -0 0 -0 0 -0 0 -0 0 -0 0 -0 0 -0 0 -0 0 -0 0 -0 0 -0 0 -0 0 -0 0 -0 0 -0 0.03 0 -0 0 -0 0 -0 0 -0 0 -0 0 -0 0 -0 0 -0 0 -0 0 -0 0 -0 0 -0 0 -0 0 -0 0 -0 0 -0 0 -0 0 -0 0 -0 0 -0 0 -0 0 -0 0 -0 0 -0 0 -0 0 -0 0 -0 0 -0 0 -0 0 -0 0 -0 0 -0 0 0 0zm0 0c-0.01,0 -0.01,-0.01 -0.01,-0.01 -0,-0.01 0.01,-0.01 0.01,-0.01l0 0.02zm-0.14 -0.02l0.14 0 0 0.02 -0.14 0 0 0 -0 -0.02zm0 0.02c-0.01,0 -0.01,-0.01 -0.01,-0.01 -0,-0.01 0.01,-0.01 0.01,-0.01l0 0.02zm-0.06 -0.06l0.03 0 0 0 0 0 0 0 0 0 0 0 0 0 0 0 0 0 0 0 0 0 0 0 0 0 0 0 0 0 0 0 0 0 0 0 0 0 0 0 0 0 0 0 0 0 0 0 0 0 0 0 0 0 0 0 0 0 0 0 0 0 0 0 0 0 0 0 0 0.02 -0 -0 -0 -0 -0 -0 -0 -0 -0 -0 -0 -0 -0 -0 -0 -0 -0 -0 -0 -0 -0 -0 -0 -0 -0 -0 -0 -0 -0 -0 -0 -0 -0 -0 -0 -0 -0 -0 -0 -0 -0 -0 -0 -0 -0 -0 -0 -0 -0 -0 -0 -0 -0 -0 -0 -0 -0 -0 -0 -0 -0 -0 -0 -0 0 0zm0 0c0,-0.01 0.01,-0.01 0.01,-0.01 0.01,0 0.01,0.01 0.01,0.01l-0.03 -0zm0.03 -0.21l0 0.21 -0.03 -0 0 -0.21 0 0 0.03 0zm-0.03 -0c0,-0.01 0.01,-0.01 0.01,-0.01 0.01,0 0.01,0.01 0.01,0.01l-0.03 -0zm0.06 -0.06l0 0.02 0 0 -0 0 -0 0 -0 0 -0 0 -0 0 -0 0 -0 0 -0 0 -0 0 -0 0 -0 0 -0 0 -0 0 -0 0 -0 0 -0 0 -0 0 -0 0 -0 0 -0 0 -0 0 -0 0 -0 0 -0 0 -0 0 -0 0 -0 0 -0 0 -0 0 -0 0 -0 0 -0 0 -0.03 -0 0 -0 0 -0 0 -0 0 -0 0 -0 0 -0 0 -0 0 -0 0 -0 0 -0 0 -0 0 -0 0 -0 0 -0 0 -0 0 -0 0 -0 0 -0 0 -0 0 -0 0 -0 0 -0 0 -0 0 -0 0 -0 0 -0 0 -0 0 -0 0 -0 0 -0 0 -0 0 -0 0 0zm0 0c0.01,0 0.01,0.01 0.01,0.01 0,0.01 -0.01,0.01 -0.01,0.01l-0 -0.02z"/>
   </g>
   <g>
    <path class="fil0" d="M0.06 0.17l0 -0.16 0.03 0 0 0.16 -0 0.01 -0.02 -0.01zm0.03 0c0,0.01 -0.01,0.01 -0.01,0.01 -0.01,-0 -0.01,-0.01 -0.01,-0.01l0.03 0zm0.03 -0.02l-0.03 0.03 -0.02 -0.02 0.03 -0.03 0.02 0 0 0.02zm-0.02 -0.02c0,-0 0.01,-0.01 0.02,-0 0.01,0 0.01,0.01 0,0.02l-0.02 -0.02zm0.03 0.05l-0.03 -0.03 0.02 -0.02 0.03 0.03 0 0.01 -0.02 0.01zm0.02 -0.02c0.01,0.01 0,0.01 -0,0.02 -0.01,0 -0.01,0 -0.02,-0l0.02 -0.02zm0 -0.15l0 0.16 -0.03 -0 0 -0.16 0.01 -0.01 0.01 0.01zm-0.03 -0c0,-0.01 0.01,-0.01 0.01,-0.01 0.01,0 0.01,0.01 0.01,0.01l-0.03 -0zm-0.02 -0.01l0.03 0 0 0.02 -0.03 0 0 0 -0 -0.02zm0 0.02c-0.01,0 -0.01,-0.01 -0.01,-0.01 -0,-0.01 0.01,-0.01 0.01,-0.01l0 0.02zm-0.03 -0.02l0.03 0 0 0.02 -0.03 0 -0.01 -0.01 0.01 -0.01zm0 0.02c-0.01,0 -0.01,-0.01 -0.01,-0.01 -0,-0.01 0.01,-0.01 0.01,-0.01l0 0.02z"/>
   </g>
  </g>
 </g>
</svg>
