<?xml version="1.0" encoding="UTF-8"?>
<!DOCTYPE svg PUBLIC "-//W3C//DTD SVG 1.1//EN" "http://www.w3.org/Graphics/SVG/1.1/DTD/svg11.dtd">
<!-- Creator: CorelDRAW -->
<svg xmlns="http://www.w3.org/2000/svg" xml:space="preserve" width="4.869mm" height="4.0675mm" version="1.1" style="shape-rendering:geometricPrecision; text-rendering:geometricPrecision; image-rendering:optimizeQuality; fill-rule:evenodd; clip-rule:evenodd"
viewBox="0 0 0.6 0.51"
 xmlns:xlink="http://www.w3.org/1999/xlink"
 xmlns:xodm="http://www.corel.com/coreldraw/odm/2003">
 <defs>
  <style type="text/css">
   <![CDATA[
    .fil0 {fill:#AC8F44}
   ]]>
  </style>
 </defs>
 <g id="Слой_x0020_1">
  <metadata id="CorelCorpID_0Corel-Layer"/>
  <g id="_105553205672736">
   <path class="fil0" d="M0.01 0.24l0.11 -0.1 0.1 -0.08c0.01,-0 0.01,-0.01 0.02,-0 0.01,0 0.01,0.01 0.01,0.02l0 0.08 0.2 0c0.02,0 0.03,0.01 0.03,0.03l0 0.14c0,0.02 -0.01,0.03 -0.03,0.03l-0.2 0 0 0.08c0,0.01 -0,0.01 -0.01,0.02 -0.01,0 -0.01,0 -0.02,-0l-0.1 -0.08 -0.11 -0.1c-0,-0 -0.01,-0.01 -0.01,-0.01 0,-0.01 0,-0.01 0.01,-0.01z"/>
   <path class="fil0" d="M0.6 0.47l0 -0.43c0,-0.02 -0.02,-0.04 -0.04,-0.04l-0 0c-0.02,0 -0.04,0.02 -0.04,0.04l0 0.43c0,0.02 0.02,0.04 0.04,0.04l0 0c0.02,0 0.04,-0.02 0.04,-0.04z"/>
  </g>
 </g>
</svg>
