<?xml version="1.0" encoding="UTF-8"?>
<!DOCTYPE svg PUBLIC "-//W3C//DTD SVG 1.1//EN" "http://www.w3.org/Graphics/SVG/1.1/DTD/svg11.dtd">
<!-- Creator: CorelDRAW -->
<svg xmlns="http://www.w3.org/2000/svg" xml:space="preserve" width="1.2421mm" height="1.3584mm" version="1.1" style="shape-rendering:geometricPrecision; text-rendering:geometricPrecision; image-rendering:optimizeQuality; fill-rule:evenodd; clip-rule:evenodd"
viewBox="0 0 7.98 8.73"
 xmlns:xlink="http://www.w3.org/1999/xlink"
 xmlns:xodm="http://www.corel.com/coreldraw/odm/2003">
 <defs>
  <style type="text/css">
   <![CDATA[
    .str0 {stroke:white;stroke-width:0.84;stroke-linecap:round;stroke-linejoin:round;stroke-miterlimit:22.9256}
    .fil0 {fill:none}
   ]]>
  </style>
 </defs>
 <g id="Слой_x0020_1">
  <metadata id="CorelCorpID_0Corel-Layer"/>
  <path class="fil0 str0" d="M7.56 3.95l0 3.9c0,0.26 -0.21,0.47 -0.47,0.47l-1.45 0c-0.26,0 -0.47,-0.21 -0.47,-0.47l0 -2.86c0,-0.26 -0.21,-0.47 -0.47,-0.47l-1.44 0c-0.26,0 -0.47,0.21 -0.47,0.47l0 2.86c0,0.26 -0.21,0.47 -0.47,0.47l-1.45 0c-0.26,0 -0.47,-0.21 -0.47,-0.47l0 -3.9c0,-0.13 0.05,-0.24 0.14,-0.33l1.65 -1.62 1.46 -1.44c0.18,-0.18 0.48,-0.18 0.66,0l1.46 1.44 1.65 1.62c0.09,0.09 0.14,0.2 0.14,0.33z"/>
 </g>
</svg>
