<?xml version="1.0" encoding="UTF-8"?>
<!DOCTYPE svg PUBLIC "-//W3C//DTD SVG 1.1//EN" "http://www.w3.org/Graphics/SVG/1.1/DTD/svg11.dtd">
<!-- Creator: CorelDRAW -->
<svg xmlns="http://www.w3.org/2000/svg" xml:space="preserve" width="7.4677mm" height="3.7309mm" version="1.1" style="shape-rendering:geometricPrecision; text-rendering:geometricPrecision; image-rendering:optimizeQuality; fill-rule:evenodd; clip-rule:evenodd"
viewBox="0 0 1.16 1.54"
 xmlns:xlink="http://www.w3.org/1999/xlink"
 xmlns:xodm="http://www.corel.com/coreldraw/odm/2003">
 <defs>
  <style type="text/css">
   <![CDATA[
    .str0 {stroke:white;stroke-width:0.12;stroke-miterlimit:22.9256}
    .fil0 {fill:none}
   ]]>
  </style>
 </defs>
 <g id="Слой_x0020_1">
  <metadata id="CorelCorpID_0Corel-Layer"/>
  <path class="fil0 str0" d="M0.07 0.27l0.46 -0.2c0.03,-0.01 0.07,-0.01 0.1,0l0.46 0.2c0.01,0 0.01,0.01 0.01,0.02 0,0.01 -0.01,0.02 -0.01,0.02l-0.46 0.2c-0.03,0.01 -0.07,0.01 -0.1,0l-0.46 -0.2c-0.01,-0 -0.01,-0.01 -0.01,-0.02 0,-0.01 0.01,-0.02 0.01,-0.02zm0.8 0.14c0.02,0.04 0.02,0.08 0.02,0.12 0,0.17 -0.14,0.31 -0.31,0.31 -0.17,0 -0.31,-0.14 -0.31,-0.31 0,-0.04 0.01,-0.08 0.02,-0.12l0.24 0.11c0.02,0.01 0.03,0.01 0.05,0.01l0 0 0 0 0 0 0 -0 0 0 0 -0c0.02,-0 0.03,-0 0.05,-0.01l0.24 -0.11zm-0.29 0.43l0 0c0.28,0 0.5,0.23 0.5,0.5l0 0.09c0,0.03 -0.02,0.05 -0.05,0.05l-0.89 0c-0.03,0 -0.05,-0.02 -0.05,-0.05l0 -0.09c0,-0.28 0.23,-0.5 0.5,-0.5zm-0.52 -0.55l0 0.36"/>
 </g>
</svg>
