<?xml version="1.0" encoding="UTF-8"?>
<!DOCTYPE svg PUBLIC "-//W3C//DTD SVG 1.1//EN" "http://www.w3.org/Graphics/SVG/1.1/DTD/svg11.dtd">
<!-- Creator: CorelDRAW -->
<svg xmlns="http://www.w3.org/2000/svg" xml:space="preserve" width="61.6153mm" height="21.2407mm" version="1.1" style="shape-rendering:geometricPrecision; text-rendering:geometricPrecision; image-rendering:optimizeQuality; fill-rule:evenodd; clip-rule:evenodd"
viewBox="0 0 976.27 336.55"
 xmlns:xlink="http://www.w3.org/1999/xlink"
 xmlns:xodm="http://www.corel.com/coreldraw/odm/2003">
 <defs>
  <style type="text/css">
   <![CDATA[
    .fil2 {fill:#806426}
    .fil0 {fill:#EDB918}
    .fil3 {fill:#806426;fill-rule:nonzero}
    .fil1 {fill:#EDB918;fill-rule:nonzero}
   ]]>
  </style>
 </defs>
 <g id="Слой_x0020_1">
  <metadata id="CorelCorpID_0Corel-Layer"/>
  <g id="_105553301924320">
   <g>
    <polygon class="fil0" points="154.94,0 163.64,24.82 189.77,25.49 169.03,41.5 176.47,66.74 154.94,51.81 133.41,66.74 140.85,41.5 120.11,25.49 146.22,24.82 "/>
    <polygon class="fil0" points="90.38,49.9 95.71,64.88 111.7,65.29 99.01,74.95 103.56,90.19 90.38,81.18 77.21,90.19 81.76,74.95 69.06,65.29 85.06,64.88 "/>
    <polygon class="fil0" points="26.43,86.58 30.18,97.09 41.44,97.37 32.5,104.15 35.71,114.84 26.43,108.51 17.15,114.84 20.35,104.15 11.41,97.37 22.67,97.09 "/>
    <polygon class="fil0" points="220.1,49.9 214.77,64.88 198.78,65.29 211.48,74.95 206.93,90.19 220.1,81.18 233.28,90.19 228.72,74.95 241.42,65.29 225.43,64.88 "/>
    <polygon class="fil0" points="283.75,86.58 280.08,97.09 269.04,97.37 277.8,104.15 274.66,114.84 283.75,108.51 292.85,114.84 289.7,104.15 298.47,97.37 287.43,97.09 "/>
    <path class="fil0" d="M191.36 147.75l68.92 1.76 -58.39 44.8 20.94 70.61 -60.6 -41.76 -60.6 41.76 0.27 -0.91c16.18,-14.33 31.82,-29.49 46.06,-45.26 15.99,-17.72 38.72,-45.82 43.4,-71l-0 0z"/>
    <path class="fil0" d="M-0 187.84l8.92 116.29c3.97,-1.38 18.32,-4.82 34.31,-5.15 14.28,-0.29 25.44,1.48 39.16,4.31 10.76,2.22 31.35,6.53 41.2,10.45 4.97,1.98 9.7,4.14 14.7,6.62 4.71,2.34 8.44,4.52 14.26,7.17l-10.28 -9.29c-4.13,-3.26 -7.43,-5.59 -11.95,-8.48 -27.28,-17.49 -73.16,-24.92 -105.25,-25.7 -2.32,-29.42 -5.67,-71.97 -6.55,-83.21 30.87,-3.49 31.67,-4.53 83.98,9.43l-0.6 -7.64c-5.74,-2.82 -5.8,-3.26 -17.47,-7.45 -7.36,-2.64 -17.81,-5.2 -25.58,-6.48 -15.55,-2.58 -44.46,-4.78 -58.85,-0.85l-0 0z"/>
    <path class="fil0" d="M316.48 188.86l-6 122.1c-4.2,-1.75 -19.34,-6.47 -36.1,-8.02 -14.98,-1.39 -26.61,-0.36 -40.92,1.6 -11.21,1.53 -35.95,4.37 -46.16,7.76 -5.15,1.71 -10.05,3.64 -15.22,5.88 -4.88,2.11 -8.72,4.13 -14.74,6.49l10.5 -9.04c4.24,-3.13 7.63,-5.34 12.28,-8.06 28.09,-16.41 79.23,-20.63 112.85,-19.04 1.58,-30.88 3.86,-75.55 4.47,-87.35 -32.46,-6.01 -33.32,-7.16 -87.74,3.63l0.41 -8.02c5.94,-2.54 5.99,-3 18.09,-6.55 7.64,-2.24 18.51,-4.14 26.63,-4.91 16.23,-1.55 46.46,-1.7 61.65,3.53l0 0z"/>
    <path class="fil1" d="M403.46 195.21l9.91 0c3.3,0 5.12,-0.46 5.45,-1.39l-23.1 -43.72c-0.06,-0.2 -0.1,-0.43 -0.1,-0.69 0.27,-1.59 1.09,-2.38 2.48,-2.38l20.72 0c1.39,0 2.44,0.79 3.17,2.38l9.22 19.53 7.33 -19.53c0.66,-1.59 1.79,-2.38 3.37,-2.38l20.52 0c0.6,0 1.12,0.23 1.59,0.69 0.46,0.4 0.69,0.86 0.69,1.39 0,0.53 -0.03,0.86 -0.1,0.99l-19.73 46.1c-3.44,8.06 -7.07,13.45 -10.91,16.16 -3.77,2.71 -9.81,4.06 -18.14,4.06l-12.39 0c-0.73,0 -1.35,-0.26 -1.88,-0.79 -0.53,-0.53 -0.79,-1.16 -0.79,-1.88l0 -15.86c0,-0.73 0.26,-1.35 0.79,-1.88 0.53,-0.53 1.16,-0.79 1.88,-0.79zm90.76 -45.5l0 15.96c0,5.16 2.22,7.73 6.64,7.73l6.74 0 0 -23.69c0,-0.73 0.26,-1.35 0.79,-1.88 0.53,-0.53 1.16,-0.79 1.88,-0.79l20.43 0c0.72,0 1.35,0.26 1.88,0.79 0.53,0.53 0.79,1.16 0.79,1.88l0 64.04c0,0.73 -0.26,1.35 -0.79,1.88 -0.53,0.53 -1.16,0.79 -1.88,0.79l-20.43 0c-0.72,0 -1.35,-0.26 -1.88,-0.79 -0.53,-0.53 -0.79,-1.16 -0.79,-1.88l0 -17.75 -7.04 0c-9.98,0 -17.84,-2.58 -23.59,-7.73 -5.75,-5.22 -8.59,-12.89 -8.52,-23l0.1 -15.56c0,-0.73 0.26,-1.35 0.79,-1.88 0.53,-0.53 1.16,-0.79 1.89,-0.79l20.32 0c0.73,0 1.36,0.26 1.89,0.79 0.53,0.53 0.79,1.16 0.79,1.88zm75.74 47.38l30.53 0c0.73,0 1.36,0.26 1.89,0.79 0.53,0.53 0.79,1.16 0.79,1.88l0 13.98c0,0.73 -0.26,1.35 -0.79,1.88 -0.53,0.53 -1.16,0.79 -1.89,0.79l-51.64 0c-0.73,0 -1.36,-0.26 -1.89,-0.79 -0.53,-0.53 -0.8,-1.16 -0.8,-1.88l0 -64.04c0,-0.73 0.27,-1.35 0.8,-1.88 0.53,-0.53 1.16,-0.79 1.89,-0.79l50.85 0c0.73,0 1.35,0.26 1.89,0.79 0.53,0.53 0.79,1.16 0.79,1.88l0 13.98c0,0.73 -0.26,1.35 -0.79,1.88 -0.53,0.53 -1.16,0.79 -1.89,0.79l-29.74 0 0 6.24 27.56 0c0.73,0 1.36,0.26 1.89,0.8 0.53,0.53 0.79,1.16 0.79,1.88l0 12.89c0,0.73 -0.26,1.35 -0.79,1.88 -0.53,0.53 -1.16,0.79 -1.89,0.79l-27.56 0 0 6.25zm47.81 -50.06l47.48 0c0.73,0 1.36,0.26 1.89,0.79 0.53,0.53 0.8,1.16 0.8,1.88l0 13.98c0,0.73 -0.27,1.35 -0.8,1.88 -0.53,0.53 -1.16,0.79 -1.89,0.79l-25.38 0 0 5.75 6.34 0c8.72,0 15.63,1.92 20.72,5.75 5.15,3.77 7.73,9.12 7.73,16.06 0,6.94 -2.51,12.43 -7.53,16.46 -5.02,4.03 -11.99,6.05 -20.92,6.05l-28.45 0c-0.73,0 -1.36,-0.26 -1.89,-0.79 -0.53,-0.53 -0.79,-1.16 -0.79,-1.88l0 -64.04c0,-0.73 0.26,-1.35 0.79,-1.88 0.53,-0.53 1.16,-0.79 1.89,-0.79zm22.11 41.64l0 10.71 6.24 0c1.46,0 2.58,-0.6 3.37,-1.79 0.8,-1.19 1.19,-2.44 1.19,-3.77 0,-1.32 -0.43,-2.51 -1.28,-3.57 -0.8,-1.06 -1.88,-1.59 -3.28,-1.59l-6.24 0zm51.28 -35.29c6.08,-4.89 14.11,-7.33 24.09,-7.33 9.98,0 17.97,2.48 23.99,7.43 6.07,4.89 9.11,11.8 9.11,20.72l0 15.46c0,9.05 -3.01,15.96 -9.02,20.72 -5.95,4.69 -13.98,7.04 -24.09,7.04 -10.11,0 -18.18,-2.35 -24.19,-7.04 -5.94,-4.76 -8.92,-11.66 -8.92,-20.72l0 -15.46c0,-8.99 3.01,-15.93 9.02,-20.82zm18.73 42.73c1.32,1.32 3.11,1.98 5.36,1.98 2.24,0 4.03,-0.66 5.35,-1.98 1.32,-1.32 1.98,-3.34 1.98,-6.05l0 -16.65c0,-2.64 -0.66,-4.63 -1.98,-5.95 -1.32,-1.39 -3.11,-2.08 -5.35,-2.08 -2.25,0 -4.03,0.69 -5.36,2.08 -1.32,1.32 -1.98,3.3 -1.98,5.95l0 16.65c0,2.71 0.66,4.72 1.98,6.05zm71.85 -46.39l0 15.96c0,5.16 2.22,7.73 6.64,7.73l6.74 0 0 -23.69c0,-0.73 0.26,-1.35 0.79,-1.88 0.53,-0.53 1.16,-0.79 1.88,-0.79l20.42 0c0.73,0 1.35,0.26 1.88,0.79 0.53,0.53 0.8,1.16 0.8,1.88l0 64.04c0,0.73 -0.26,1.35 -0.8,1.88 -0.53,0.53 -1.16,0.79 -1.88,0.79l-20.42 0c-0.73,0 -1.36,-0.26 -1.88,-0.79 -0.53,-0.53 -0.79,-1.16 -0.79,-1.88l0 -17.75 -7.04 0c-9.98,0 -17.84,-2.58 -23.59,-7.73 -5.75,-5.22 -8.59,-12.89 -8.53,-23l0.1 -15.56c0,-0.73 0.26,-1.35 0.79,-1.88 0.53,-0.53 1.16,-0.79 1.88,-0.79l20.32 0c0.72,0 1.35,0.26 1.89,0.79 0.53,0.53 0.79,1.16 0.79,1.88zm116.87 63.44c0.19,0.33 0.3,0.76 0.3,1.29 0,0.46 -0.23,0.93 -0.7,1.39 -0.39,0.4 -0.89,0.59 -1.49,0.59l-22.6 0c-1.92,0 -3.27,-0.76 -4.07,-2.28l-12.09 -21.61 0 21.22c0,0.73 -0.27,1.35 -0.79,1.88 -0.53,0.53 -1.16,0.79 -1.88,0.79l-18.94 0c-0.72,0 -1.35,-0.26 -1.88,-0.79 -0.53,-0.53 -0.8,-1.16 -0.8,-1.88l0 -64.04c0,-0.73 0.26,-1.35 0.8,-1.88 0.53,-0.53 1.16,-0.79 1.88,-0.79l18.94 0c0.73,0 1.35,0.26 1.88,0.79 0.53,0.53 0.79,1.16 0.79,1.88l0 19.63 11.2 -20.12c0.73,-1.45 2.05,-2.18 3.96,-2.18l21.91 0c0.59,0 1.09,0.23 1.49,0.69 0.46,0.4 0.7,0.86 0.7,1.39 0,0.46 -0.1,0.86 -0.3,1.19l-17.85 29.94 19.53 32.91zm29.48 -66.12l21.51 0c2.38,0 3.86,1.09 4.46,3.27l22.1 63.25c0.07,0.2 0.1,0.53 0.1,0.99 0,0.4 -0.23,0.83 -0.7,1.29 -0.39,0.4 -0.89,0.59 -1.49,0.59l-18.34 0c-1.99,0 -3.27,-0.82 -3.86,-2.48l-2.39 -6.54 -21.31 0 -2.38 6.54c-0.6,1.65 -1.89,2.48 -3.87,2.48l-18.34 0c-0.59,0 -1.13,-0.2 -1.59,-0.59 -0.4,-0.46 -0.59,-0.89 -0.59,-1.29 0,-0.46 0.03,-0.79 0.1,-0.99l22.11 -63.25c0.59,-2.18 2.08,-3.27 4.46,-3.27zm5.16 41.04l11.2 0 -5.65 -18.44 -5.55 18.44z"/>
   </g>
   <path class="fil2" d="M146.05 149.08c-30.13,3.21 -50.89,-5.34 -78.07,-16.34 -0.67,-0.27 -1.32,-0.49 -1.99,-0.74 3.93,4.87 9.68,9.41 14.32,13.75 13.12,12.32 22.94,24.67 26.54,42.76 1.19,6.12 1.45,12.14 1.02,18.35 -1.2,16.37 -8.84,34.6 -17.22,48.62 -4.65,7.78 -9.7,15.81 -14.84,23.26 -1.03,1.5 -3.83,5.59 -5.17,6.67 25.48,-20.64 50.8,-43.52 72.78,-67.87 17.32,-19.2 42.57,-50.6 44.18,-77.25 1.23,-21.22 -7.27,-48.1 -23.03,-62.8 1.92,7.37 4.72,14.29 6.48,21.78 3.04,12.93 3.07,25.26 -4.85,36.53 -3.74,5.21 -7.75,7.29 -12.86,11.01l6.66 30.71 -8.71 11.25 -9.53 -10.19 4.3 -29.49 0 0z"/>
   <path class="fil2" d="M107.38 125.69l12.08 -0.2c4.25,23.4 36.49,20.4 37.85,-1.41 0.65,-10.38 -4.49,-11.98 -7.12,-17.48 0.67,-1.24 1.36,-2.6 2.08,-3.81 2.75,1.17 8.38,4.06 8.64,7.41 0.03,0.97 -0.22,2.14 1.37,1.77 1.34,-0.32 3.12,-1.96 1.11,-3.1 -2.4,-1.34 -1.57,-0.82 -3.44,-2.85 -2.19,-2.38 -3.69,-2.56 -6.38,-3.88 -0.27,-0.13 -0.49,-0.26 -0.73,-0.43 1.1,-1.81 2.4,-3.62 3.61,-5.36 -17.65,0.93 -11.12,0.61 -17.24,0.93 -3.52,0.19 -0.35,0.02 -16.16,1.07 -3.29,5.24 -1.36,2.51 -15.68,27.34z"/>
   <path class="fil2" d="M32.34 323.72c31.73,-3.63 62.68,-4.84 96.06,4.8 8.72,2.52 16.61,6.03 24.03,8.03 -10.42,-9.17 -32.28,-18.36 -48.96,-22.84 -21.33,-5.73 -50.75,-5.77 -72.32,-4.16l1.2 14.17 -0 0z"/>
   <path class="fil2" d="M286.5 329.86c-33.35,-6.22 -69.52,-10.02 -104.22,-2.36 -9.06,2 -17.24,5.11 -24.95,6.68 10.66,-8.9 33.29,-16.95 50.65,-20.43 22.19,-4.44 56.71,-2.08 79.36,1.24l-0.85 14.87 0 0z"/>
   <path class="fil3" d="M401.21 271.37l4.5 0c1.5,0 2.32,-0.21 2.47,-0.63l-10.48 -19.84c-0.03,-0.09 -0.04,-0.19 -0.04,-0.31 0.12,-0.72 0.5,-1.08 1.12,-1.08l9.4 0c0.63,0 1.11,0.36 1.44,1.08l4.18 8.86 3.33 -8.86c0.3,-0.72 0.81,-1.08 1.53,-1.08l9.31 0c0.27,0 0.51,0.11 0.72,0.32 0.21,0.18 0.32,0.39 0.32,0.63 0,0.24 -0.01,0.39 -0.05,0.45l-8.95 20.92c-1.56,3.66 -3.21,6.1 -4.95,7.33 -1.71,1.23 -4.45,1.84 -8.23,1.84l-5.62 0c-0.33,0 -0.61,-0.12 -0.85,-0.36 -0.24,-0.24 -0.36,-0.53 -0.36,-0.85l0 -7.2c0,-0.33 0.12,-0.61 0.36,-0.85 0.24,-0.24 0.52,-0.36 0.85,-0.36zm41.2 -20.65l0 7.24c0,2.34 1.01,3.51 3.02,3.51l3.06 0 0 -10.76c0,-0.33 0.12,-0.61 0.36,-0.85 0.24,-0.24 0.53,-0.36 0.86,-0.36l9.27 0c0.33,0 0.61,0.12 0.85,0.36 0.24,0.24 0.36,0.53 0.36,0.85l0 29.07c0,0.33 -0.12,0.61 -0.36,0.85 -0.24,0.24 -0.53,0.36 -0.85,0.36l-9.27 0c-0.33,0 -0.61,-0.12 -0.86,-0.36 -0.24,-0.24 -0.36,-0.53 -0.36,-0.85l0 -8.06 -3.19 0c-4.53,0 -8.1,-1.17 -10.71,-3.51 -2.61,-2.37 -3.9,-5.85 -3.87,-10.44l0.05 -7.07c0,-0.33 0.12,-0.61 0.36,-0.85 0.24,-0.24 0.52,-0.36 0.86,-0.36l9.22 0c0.33,0 0.61,0.12 0.85,0.36 0.24,0.24 0.36,0.53 0.36,0.85zm34.38 21.51l13.86 0c0.33,0 0.62,0.12 0.86,0.36 0.24,0.24 0.36,0.53 0.36,0.86l0 6.35c0,0.33 -0.12,0.61 -0.36,0.85 -0.24,0.24 -0.53,0.36 -0.86,0.36l-23.44 0c-0.33,0 -0.61,-0.12 -0.85,-0.36 -0.24,-0.24 -0.36,-0.53 -0.36,-0.85l0 -29.07c0,-0.33 0.12,-0.61 0.36,-0.85 0.24,-0.24 0.53,-0.36 0.85,-0.36l23.08 0c0.33,0 0.62,0.12 0.86,0.36 0.24,0.24 0.36,0.53 0.36,0.85l0 6.35c0,0.33 -0.12,0.61 -0.36,0.85 -0.24,0.24 -0.53,0.36 -0.86,0.36l-13.5 0 0 2.83 12.51 0c0.33,0 0.61,0.12 0.85,0.36 0.24,0.24 0.36,0.52 0.36,0.85l0 5.85c0,0.33 -0.12,0.61 -0.36,0.86 -0.24,0.24 -0.52,0.36 -0.85,0.36l-12.51 0 0 2.83zm21.71 -22.72l21.55 0c0.33,0 0.62,0.12 0.86,0.36 0.24,0.24 0.36,0.53 0.36,0.85l0 6.35c0,0.33 -0.12,0.61 -0.36,0.85 -0.24,0.24 -0.53,0.36 -0.86,0.36l-11.52 0 0 2.61 2.88 0c3.96,0 7.1,0.87 9.41,2.61 2.34,1.71 3.51,4.14 3.51,7.29 0,3.15 -1.14,5.64 -3.42,7.47 -2.28,1.83 -5.45,2.74 -9.5,2.74l-12.91 0c-0.33,0 -0.62,-0.12 -0.86,-0.36 -0.24,-0.24 -0.36,-0.53 -0.36,-0.85l0 -29.07c0,-0.33 0.12,-0.61 0.36,-0.85 0.24,-0.24 0.53,-0.36 0.86,-0.36zm10.03 18.9l0 4.86 2.83 0c0.66,0 1.17,-0.27 1.53,-0.81 0.36,-0.54 0.54,-1.11 0.54,-1.71 0,-0.6 -0.19,-1.14 -0.58,-1.62 -0.36,-0.48 -0.86,-0.72 -1.49,-0.72l-2.83 0zm39.83 -18.9l8.82 0c0.33,0 0.61,0.12 0.85,0.36 0.24,0.24 0.36,0.53 0.36,0.85l0 29.07c0,0.33 -0.12,0.61 -0.36,0.85 -0.24,0.24 -0.52,0.36 -0.85,0.36l-8.82 0c-0.32,0 -0.61,-0.12 -0.85,-0.36 -0.24,-0.24 -0.36,-0.53 -0.36,-0.85l0 -9.72 -7.29 0 0 9.72c0,0.33 -0.12,0.61 -0.36,0.85 -0.24,0.24 -0.52,0.36 -0.85,0.36l-8.82 0c-0.33,0 -0.61,-0.1 -0.85,-0.31 -0.24,-0.24 -0.36,-0.54 -0.36,-0.9l0 -29.07c0,-0.33 0.12,-0.61 0.36,-0.85 0.24,-0.24 0.53,-0.36 0.85,-0.36l8.82 0c0.33,0 0.61,0.12 0.85,0.36 0.24,0.24 0.36,0.53 0.36,0.85l0 9.45 7.29 0 0 -9.45c0,-0.33 0.12,-0.61 0.36,-0.85 0.24,-0.24 0.53,-0.36 0.85,-0.36zm30.51 31.5l-13.41 0c-0.33,0 -0.62,-0.12 -0.86,-0.36 -0.24,-0.24 -0.36,-0.53 -0.36,-0.85l0 -29.07c0,-0.33 0.12,-0.61 0.36,-0.85 0.24,-0.24 0.53,-0.36 0.86,-0.36l9.27 0c0.33,0 0.62,0.12 0.86,0.36 0.24,0.24 0.36,0.53 0.36,0.85l0 8.59 2.92 0c4.35,0 7.72,0.87 10.12,2.61 2.43,1.74 3.64,4.43 3.64,8.06 0,3.63 -1.22,6.37 -3.64,8.23 -2.43,1.86 -5.81,2.79 -10.12,2.79zm-3.15 -13.36l0 4.99 3.15 0c0.72,0 1.24,-0.26 1.57,-0.77 0.33,-0.51 0.49,-1.14 0.49,-1.89 0,-0.75 -0.21,-1.32 -0.63,-1.71 -0.42,-0.42 -0.9,-0.63 -1.44,-0.63l-3.15 0zm28.98 13.36l-9.18 0c-0.33,0 -0.61,-0.12 -0.85,-0.36 -0.24,-0.24 -0.36,-0.53 -0.36,-0.85l0 -29.07c0,-0.33 0.12,-0.61 0.36,-0.85 0.24,-0.24 0.53,-0.36 0.85,-0.36l9.18 0c0.33,0 0.62,0.12 0.85,0.36 0.24,0.24 0.36,0.53 0.36,0.85l0 29.07c0,0.33 -0.12,0.61 -0.36,0.85 -0.23,0.24 -0.52,0.36 -0.85,0.36zm17.85 -8.77l13.86 0c0.33,0 0.61,0.12 0.85,0.36 0.24,0.24 0.36,0.53 0.36,0.86l0 6.35c0,0.33 -0.12,0.61 -0.36,0.85 -0.24,0.24 -0.52,0.36 -0.85,0.36l-23.45 0c-0.33,0 -0.61,-0.12 -0.85,-0.36 -0.24,-0.24 -0.36,-0.53 -0.36,-0.85l0 -29.07c0,-0.33 0.12,-0.61 0.36,-0.85 0.24,-0.24 0.52,-0.36 0.85,-0.36l23.09 0c0.33,0 0.61,0.12 0.86,0.36 0.24,0.24 0.36,0.53 0.36,0.85l0 6.35c0,0.33 -0.12,0.61 -0.36,0.85 -0.24,0.24 -0.53,0.36 -0.86,0.36l-13.5 0 0 2.83 12.51 0c0.33,0 0.62,0.12 0.86,0.36 0.24,0.24 0.36,0.52 0.36,0.85l0 5.85c0,0.33 -0.12,0.61 -0.36,0.86 -0.24,0.24 -0.53,0.36 -0.86,0.36l-12.51 0 0 2.83zm58.78 -22.72l7.11 0c0.33,0 0.62,0.12 0.85,0.36 0.24,0.24 0.36,0.53 0.36,0.85l0 29.07c0,0.33 -0.13,0.61 -0.36,0.85 -0.23,0.24 -0.52,0.36 -0.85,0.36l-8.14 0c-0.33,0 -0.62,-0.12 -0.85,-0.36 -0.24,-0.24 -0.36,-0.53 -0.36,-0.85l0 -12.33 -2.97 4.86c-0.48,0.75 -1.04,1.12 -1.67,1.12l-3.15 0c-0.63,0 -1.19,-0.38 -1.67,-1.12l-2.97 -4.86 0 12.33c0,0.33 -0.12,0.61 -0.36,0.85 -0.24,0.24 -0.52,0.36 -0.85,0.36l-8.14 0c-0.33,0 -0.62,-0.12 -0.86,-0.36 -0.23,-0.24 -0.36,-0.53 -0.36,-0.85l0 -29.07c0,-0.33 0.13,-0.61 0.36,-0.85 0.24,-0.24 0.53,-0.36 0.86,-0.36l7.11 0c0.84,0 1.49,0.41 1.94,1.22l6.52 10.8 6.53 -10.8c0.45,-0.81 1.09,-1.22 1.93,-1.22zm24.03 0l9.77 0c1.08,0 1.75,0.5 2.02,1.49l10.03 28.71c0.03,0.09 0.04,0.24 0.04,0.45 0,0.18 -0.11,0.38 -0.31,0.58 -0.18,0.18 -0.41,0.27 -0.68,0.27l-8.32 0c-0.9,0 -1.49,-0.37 -1.76,-1.12l-1.08 -2.97 -9.67 0 -1.08 2.97c-0.27,0.75 -0.86,1.12 -1.76,1.12l-8.32 0c-0.28,0 -0.51,-0.09 -0.72,-0.27 -0.18,-0.21 -0.27,-0.41 -0.27,-0.58 0,-0.21 0.02,-0.36 0.04,-0.45l10.03 -28.71c0.27,-0.99 0.95,-1.49 2.02,-1.49zm2.34 18.63l5.08 0 -2.57 -8.37 -2.52 8.37zm22.78 -18.63l26.36 0c0.33,0 0.62,0.12 0.86,0.36 0.24,0.24 0.36,0.53 0.36,0.85l0 7.24c0,0.33 -0.12,0.61 -0.36,0.86 -0.24,0.24 -0.53,0.36 -0.86,0.36l-7.47 0 0 20.61c0,0.33 -0.12,0.61 -0.36,0.85 -0.24,0.24 -0.53,0.36 -0.86,0.36l-9 0c-0.33,0 -0.62,-0.12 -0.86,-0.36 -0.24,-0.24 -0.36,-0.53 -0.36,-0.85l0 -20.61 -7.47 0c-0.33,0 -0.62,-0.12 -0.86,-0.36 -0.24,-0.24 -0.36,-0.52 -0.36,-0.86l0 -7.24c0,-0.33 0.12,-0.61 0.36,-0.85 0.24,-0.24 0.53,-0.36 0.86,-0.36zm42.66 22.72l13.86 0c0.33,0 0.61,0.12 0.85,0.36 0.24,0.24 0.36,0.53 0.36,0.86l0 6.35c0,0.33 -0.12,0.61 -0.36,0.85 -0.24,0.24 -0.52,0.36 -0.85,0.36l-23.45 0c-0.33,0 -0.61,-0.12 -0.85,-0.36 -0.24,-0.24 -0.36,-0.53 -0.36,-0.85l0 -29.07c0,-0.33 0.12,-0.61 0.36,-0.85 0.24,-0.24 0.52,-0.36 0.85,-0.36l23.09 0c0.33,0 0.61,0.12 0.85,0.36 0.24,0.24 0.36,0.53 0.36,0.85l0 6.35c0,0.33 -0.12,0.61 -0.36,0.85 -0.24,0.24 -0.53,0.36 -0.85,0.36l-13.5 0 0 2.83 12.51 0c0.33,0 0.62,0.12 0.86,0.36 0.24,0.24 0.36,0.52 0.36,0.85l0 5.85c0,0.33 -0.12,0.61 -0.36,0.86 -0.24,0.24 -0.53,0.36 -0.86,0.36l-12.51 0 0 2.83zm21.7 -22.72l13.41 0c4.32,0 7.69,0.93 10.12,2.79 2.43,1.86 3.64,4.6 3.64,8.23 0,3.63 -1.21,6.32 -3.64,8.06 -2.4,1.74 -5.78,2.61 -10.12,2.61l-2.93 0 0 8.6c0,0.33 -0.12,0.61 -0.36,0.85 -0.24,0.24 -0.53,0.36 -0.85,0.36l-9.27 0c-0.33,0 -0.62,-0.12 -0.85,-0.36 -0.24,-0.24 -0.36,-0.53 -0.36,-0.85l0 -29.07c0,-0.33 0.12,-0.61 0.36,-0.85 0.24,-0.24 0.52,-0.36 0.85,-0.36zm10.26 8.37l0 4.99 3.15 0c0.54,0 1.01,-0.19 1.43,-0.58 0.42,-0.42 0.64,-1 0.64,-1.76 0,-0.75 -0.17,-1.38 -0.5,-1.89 -0.32,-0.51 -0.85,-0.77 -1.57,-0.77l-3.15 0zm21.95 -8.37l8.14 0c0.33,0 0.62,0.12 0.86,0.36 0.24,0.24 0.36,0.53 0.36,0.85l0 12.29 7.6 -12.47c0.39,-0.69 1.01,-1.03 1.85,-1.03l7.11 0c0.33,0 0.62,0.12 0.85,0.36 0.24,0.24 0.36,0.53 0.36,0.85l0 29.07c0,0.33 -0.12,0.61 -0.36,0.85 -0.24,0.24 -0.52,0.36 -0.85,0.36l-8.15 0c-0.33,0 -0.62,-0.12 -0.85,-0.36 -0.24,-0.24 -0.36,-0.53 -0.36,-0.85l0 -11.3 -7.6 11.47c-0.45,0.69 -1.07,1.03 -1.84,1.03l-7.11 0c-0.33,0 -0.61,-0.12 -0.85,-0.36 -0.24,-0.24 -0.36,-0.53 -0.36,-0.85l0 -29.07c0,-0.33 0.12,-0.61 0.36,-0.85 0.24,-0.24 0.52,-0.36 0.85,-0.36zm42.83 0l9.77 0c1.08,0 1.76,0.5 2.02,1.49l10.04 28.71c0.03,0.09 0.04,0.24 0.04,0.45 0,0.18 -0.11,0.38 -0.31,0.58 -0.18,0.18 -0.4,0.27 -0.67,0.27l-8.32 0c-0.9,0 -1.49,-0.37 -1.76,-1.12l-1.08 -2.97 -9.67 0 -1.08 2.97c-0.27,0.75 -0.86,1.12 -1.76,1.12l-8.32 0c-0.27,0 -0.51,-0.09 -0.72,-0.27 -0.18,-0.21 -0.27,-0.41 -0.27,-0.58 0,-0.21 0.01,-0.36 0.05,-0.45l10.03 -28.71c0.28,-0.99 0.95,-1.49 2.03,-1.49zm2.34 18.63l5.08 0 -2.56 -8.37 -2.52 8.37zm22.37 13.32c-0.33,0 -0.64,-0.12 -0.9,-0.36 -0.24,-0.24 -0.36,-0.52 -0.36,-0.85l0 -6.61c0,-0.33 0.12,-0.61 0.36,-0.86 0.24,-0.24 0.53,-0.36 0.86,-0.36 2.22,0 3.33,-1.15 3.33,-3.47l0 -18.22c0,-0.33 0.12,-0.61 0.36,-0.85 0.23,-0.24 0.52,-0.36 0.85,-0.36l25.56 0c0.33,0 0.62,0.12 0.86,0.36 0.24,0.24 0.36,0.53 0.36,0.85l0 29.07c0,0.33 -0.12,0.61 -0.36,0.85 -0.24,0.24 -0.53,0.36 -0.86,0.36l-8.82 0c-0.33,0 -0.62,-0.12 -0.85,-0.36 -0.24,-0.24 -0.36,-0.53 -0.36,-0.85l0 -20.38 -5.49 0 0 9.4c0,4.2 -1.31,7.36 -3.92,9.49 -2.61,2.1 -6.15,3.15 -10.62,3.15zm51.73 -0.45l-13.41 0c-0.33,0 -0.61,-0.12 -0.85,-0.36 -0.24,-0.24 -0.36,-0.53 -0.36,-0.85l0 -29.07c0,-0.33 0.12,-0.61 0.36,-0.85 0.24,-0.24 0.53,-0.36 0.85,-0.36l9.27 0c0.33,0 0.62,0.12 0.85,0.36 0.24,0.24 0.36,0.53 0.36,0.85l0 8.59 2.92 0c4.35,0 7.72,0.87 10.12,2.61 2.43,1.74 3.65,4.43 3.65,8.06 0,3.63 -1.22,6.37 -3.65,8.23 -2.43,1.86 -5.81,2.79 -10.12,2.79zm-3.15 -13.36l0 4.99 3.15 0c0.72,0 1.24,-0.26 1.58,-0.77 0.33,-0.51 0.49,-1.14 0.49,-1.89 0,-0.75 -0.21,-1.32 -0.63,-1.71 -0.42,-0.42 -0.9,-0.63 -1.44,-0.63l-3.15 0zm28.98 13.36l-9.18 0c-0.33,0 -0.62,-0.12 -0.85,-0.36 -0.24,-0.24 -0.36,-0.53 -0.36,-0.85l0 -29.07c0,-0.33 0.12,-0.61 0.36,-0.85 0.24,-0.24 0.52,-0.36 0.85,-0.36l9.18 0c0.33,0 0.61,0.12 0.85,0.36 0.24,0.24 0.36,0.53 0.36,0.85l0 29.07c0,0.33 -0.12,0.61 -0.36,0.85 -0.24,0.24 -0.53,0.36 -0.85,0.36z"/>
  </g>
 </g>
</svg>
