<svg width="182" height="63" viewBox="0 0 182 63" fill="none" xmlns="http://www.w3.org/2000/svg">
<path fill-rule="evenodd" clip-rule="evenodd" d="M29.4357 0.191406L31.0498 4.79327L35.8946 4.91859L32.0485 7.88719L33.4278 12.5666L29.4357 9.79899L25.4439 12.5666L26.8229 7.88719L22.9771 4.91859L27.8205 4.79327L29.4357 0.191406Z" fill="white"/>
<path fill-rule="evenodd" clip-rule="evenodd" d="M17.4659 9.44495L18.4542 12.2216L21.4189 12.2973L19.0648 14.0892L19.9095 16.9141L17.4659 15.2439L15.0234 16.9141L15.8667 14.0892L13.5126 12.2973L16.4778 12.2216L17.4659 9.44495Z" fill="white"/>
<path fill-rule="evenodd" clip-rule="evenodd" d="M5.6065 16.2455L6.30311 18.1942L8.39034 18.2472L6.73331 19.504L7.32735 21.485L5.6065 20.313L3.88667 21.485L4.4807 19.504L2.82239 18.2472L4.9109 18.1942L5.6065 16.2455Z" fill="white"/>
<path fill-rule="evenodd" clip-rule="evenodd" d="M41.5186 9.44495L40.5305 12.2221L37.5658 12.298L39.9199 14.0894L39.0758 16.9144L41.5186 15.2442L43.9616 16.9144L43.1175 14.0894L45.4721 12.298L42.5074 12.2221L41.5186 9.44495Z" fill="white"/>
<path fill-rule="evenodd" clip-rule="evenodd" d="M53.3214 16.2455L52.6396 18.1942L50.5934 18.2472L52.2174 19.504L51.6352 21.485L53.3214 20.313L55.0077 21.485L54.4245 19.504L56.0497 18.2472L54.0031 18.1942L53.3214 16.2455Z" fill="white"/>
<path fill-rule="evenodd" clip-rule="evenodd" d="M27.7887 27.8341C22.2019 28.4294 18.3519 26.8437 13.3119 24.805C13.1881 24.7551 13.0672 24.7148 12.9429 24.6681C13.6723 25.5709 14.7387 26.4124 15.598 27.2176C18.0313 29.5014 19.8526 31.7918 20.5201 35.1464C20.7399 36.2805 20.7883 37.3975 20.71 38.5483C20.4877 41.5831 19.07 44.9638 17.5161 47.5632C16.6541 49.006 15.7172 50.4948 14.7635 51.8759C14.5723 52.1531 14.0526 52.9118 13.8038 53.1131C18.5279 49.2858 23.2241 45.0442 27.2991 40.5281C30.5106 36.9688 35.1923 31.1458 35.4917 26.2039C35.7194 22.27 34.1435 17.2847 31.2214 14.5592C31.5772 15.9253 32.0965 17.2087 32.4237 18.597C32.988 20.9943 32.9931 23.2816 31.5234 25.3704C30.8297 26.3372 30.0868 26.7217 29.1391 27.4116L30.3744 33.1054L28.7587 35.1914L26.9924 33.3026L27.789 27.8336V27.8341H27.7887Z" fill="#8D6C01"/>
<path fill-rule="evenodd" clip-rule="evenodd" d="M20.6177 23.4981L22.8584 23.4609C23.647 27.7992 29.6237 27.2439 29.8772 23.1999C29.9981 21.2752 29.0442 20.9786 28.5574 19.959C28.6819 19.7287 28.8103 19.4763 28.9431 19.2531C29.4537 19.4709 30.4968 20.0068 30.5459 20.6269C30.5521 20.8067 30.5046 21.0243 30.8002 20.9543C31.0487 20.8948 31.3789 20.5917 31.0053 20.3801C30.5601 20.1323 30.7151 20.2285 30.3684 19.8515C29.9619 19.4099 29.6842 19.3776 29.1853 19.1319C29.1354 19.1076 29.0951 19.083 29.0493 19.052C29.2542 18.7169 29.494 18.3805 29.7196 18.0575C26.4466 18.2304 27.6577 18.1709 26.5228 18.2304C25.8709 18.2665 26.4572 18.2332 23.5263 18.4296C22.917 19.4014 23.2741 18.896 20.6179 23.4981H20.6177Z" fill="#8D6C01"/>
<path fill-rule="evenodd" clip-rule="evenodd" d="M36.1901 27.5886L48.9704 27.9152L38.144 36.2229L42.0263 49.3158L30.7895 41.5733L19.5536 49.3158L19.6037 49.1463C22.6031 46.4888 25.504 43.6791 28.1437 40.7537C31.1079 37.4683 35.3227 32.2577 36.1911 27.5886H36.1903H36.1901Z" fill="white"/>
<path fill-rule="evenodd" clip-rule="evenodd" d="M0.706421 35.0222L2.36062 56.5858C3.09651 56.3308 5.75763 55.6923 8.72236 55.6314C11.3706 55.5768 13.4392 55.9055 15.9843 56.43C17.9788 56.8416 21.7972 57.6408 23.624 58.3679C24.5462 58.7351 25.4229 59.1356 26.35 59.595C27.2241 60.0286 27.9148 60.4324 28.9935 60.9244L27.0879 59.2012C26.3221 58.5971 25.7102 58.1653 24.8723 57.6279C19.8136 54.3841 11.3067 53.0069 5.35559 52.8617C4.92537 47.4069 4.30445 39.5166 4.14089 37.4319C9.86596 36.7841 10.013 36.5929 19.7131 39.1799L19.6015 37.7634C18.5369 37.2402 18.5261 37.1596 16.3629 36.3826C14.9978 35.8924 13.0607 35.4193 11.6191 35.1803C8.735 34.7023 3.37426 34.2933 0.707455 35.0219H0.706673L0.706421 35.0222Z" fill="white"/>
<path fill-rule="evenodd" clip-rule="evenodd" d="M6.70335 60.2169C12.5871 59.5443 18.3264 59.3187 24.515 61.1065C26.1312 61.5737 27.5949 62.2243 28.9701 62.5964C27.0374 60.8964 22.9853 59.1921 19.8914 58.3609C15.9355 57.2984 10.4815 57.2906 6.48218 57.5896L6.70438 60.2169H6.70362H6.70335Z" fill="#8D6C01"/>
<path fill-rule="evenodd" clip-rule="evenodd" d="M59.3899 35.2108L58.2771 57.8504C57.4988 57.5259 54.6912 56.6515 51.5828 56.3634C48.8054 56.1063 46.6478 56.2967 43.995 56.6592C41.9165 56.9437 37.3297 57.469 35.4365 58.0989C34.4812 58.4168 33.5732 58.7739 32.6151 59.1886C31.711 59.58 30.9987 59.9547 29.8827 60.3929L31.8299 58.7168C32.6159 58.1364 33.244 57.7269 34.1063 57.2225C39.3148 54.18 48.7979 53.3974 55.0309 53.6924C55.324 47.9658 55.7474 39.6835 55.8601 37.495C49.8405 36.3803 49.6816 36.1676 39.5908 38.168L39.6665 36.6808C40.7675 36.2092 40.7768 36.1247 43.0209 35.4669C44.4371 35.0524 46.453 34.6987 47.9579 34.5555C50.9668 34.268 56.573 34.2406 59.3889 35.2108H59.3897H59.3899Z" fill="white"/>
<path fill-rule="evenodd" clip-rule="evenodd" d="M53.8306 61.3567C47.6459 60.203 40.9389 59.4981 34.5056 60.9192C32.8253 61.2903 31.3097 61.8672 29.8798 62.1569C31.8564 60.5076 36.0531 59.0136 39.2721 58.3692C43.3867 57.5457 49.7869 57.9834 53.9867 58.5999L53.8296 61.3567H53.8304H53.8306Z" fill="#8D6C01"/>
<path d="M75.5178 36.389H77.3562C77.9689 36.389 78.3058 36.3032 78.3673 36.1317L74.0843 28.0256C74.0722 27.9886 74.0657 27.9457 74.0657 27.8969C74.115 27.6028 74.2685 27.4556 74.5253 27.4556H78.3671C78.6244 27.4556 78.8203 27.6028 78.9551 27.8969L80.6649 31.5177L82.0248 27.8969C82.1472 27.6028 82.3558 27.4556 82.6498 27.4556H86.4548C86.5654 27.4556 86.6631 27.4987 86.7491 27.5842C86.8349 27.6579 86.8778 27.7434 86.8778 27.8413C86.8778 27.9398 86.8713 28.0013 86.8592 28.0256L83.2015 36.5727C82.5643 38.0675 81.8899 39.0664 81.1793 39.569C80.4807 40.0713 79.3595 40.3227 77.8156 40.3227H75.5178C75.3829 40.3227 75.2667 40.2739 75.1687 40.1757C75.0703 40.0775 75.0215 39.9612 75.0215 39.8266V36.8854C75.0215 36.7508 75.0703 36.6342 75.1687 36.536C75.2667 36.4378 75.3829 36.389 75.5178 36.389ZM92.3465 27.9517V30.9112C92.3465 31.8673 92.7574 32.3453 93.5782 32.3453H94.8283V27.9519C94.8283 27.8173 94.8772 27.7008 94.9748 27.6028C95.0738 27.5047 95.1901 27.4556 95.3242 27.4556H99.1116C99.2454 27.4556 99.362 27.5047 99.4609 27.6028C99.5586 27.7008 99.6074 27.8173 99.6074 27.9519V39.8266C99.6074 39.9612 99.5583 40.0775 99.4609 40.1757C99.362 40.2739 99.2457 40.3227 99.1116 40.3227H95.3242C95.1903 40.3227 95.0738 40.2739 94.9748 40.1757C94.8769 40.0775 94.8283 39.9612 94.8283 39.8266V36.536H93.5232C91.6729 36.536 90.2146 36.058 89.1482 35.1025C88.0826 34.1341 87.5553 32.7127 87.5677 30.8378L87.5863 27.9519C87.5863 27.8173 87.6354 27.7008 87.7333 27.6028C87.8312 27.5047 87.948 27.4556 88.0829 27.4556H91.8507C91.9861 27.4556 92.1023 27.5047 92.2003 27.6028C92.2982 27.7008 92.3468 27.8173 92.3468 27.9519L92.3465 27.9517ZM106.39 36.7381H112.051C112.186 36.7381 112.303 36.7872 112.4 36.8854C112.498 36.9836 112.547 37.0998 112.547 37.2347V39.8266C112.547 39.9612 112.498 40.0775 112.4 40.1757C112.303 40.2739 112.186 40.3227 112.051 40.3227H102.475C102.34 40.3227 102.223 40.2739 102.125 40.1757C102.028 40.0775 101.978 39.9612 101.978 39.8266V27.9519C101.978 27.8173 102.028 27.7008 102.125 27.6028C102.223 27.5047 102.34 27.4556 102.475 27.4556H111.904C112.04 27.4556 112.155 27.5047 112.254 27.6028C112.352 27.7008 112.4 27.8173 112.4 27.9519V30.5438C112.4 30.6787 112.352 30.7949 112.254 30.8931C112.155 30.9913 112.04 31.0404 111.904 31.0404H106.39V32.198H111.5C111.635 32.198 111.752 32.2471 111.85 32.3455C111.947 32.4435 111.996 32.5597 111.996 32.6946V35.0844C111.996 35.2193 111.947 35.3356 111.85 35.4335C111.752 35.5317 111.635 35.5805 111.5 35.5805H106.39V36.7386L106.39 36.7381ZM115.256 27.4556H124.06C124.195 27.4556 124.312 27.5047 124.409 27.6028C124.507 27.7008 124.557 27.8173 124.557 27.9519V30.5438C124.557 30.6787 124.507 30.7949 124.409 30.8931C124.312 30.9913 124.195 31.0404 124.06 31.0404H119.355V32.1063H120.531C122.148 32.1063 123.43 32.4618 124.373 33.1724C125.329 33.871 125.807 34.8635 125.807 36.15C125.807 37.4368 125.341 38.4543 124.409 39.2013C123.478 39.9491 122.186 40.3224 120.531 40.3224H115.256C115.12 40.3224 115.004 40.2736 114.906 40.1754C114.808 40.0772 114.759 39.961 114.759 39.8263V27.9517C114.759 27.817 114.809 27.7005 114.906 27.6026C115.004 27.5044 115.12 27.4553 115.256 27.4553V27.4556ZM119.355 35.1759V37.1611H120.512C120.782 37.1611 120.99 37.0505 121.137 36.8301C121.285 36.6097 121.358 36.3771 121.358 36.1317C121.358 35.8867 121.279 35.666 121.12 35.4699C120.972 35.2736 120.771 35.1759 120.512 35.1759H119.355H119.355ZM128.863 28.6317C129.991 27.7248 131.48 27.2719 133.331 27.2719C135.181 27.2719 136.663 27.7313 137.779 28.6503C138.905 29.5573 139.469 30.8376 139.469 32.492V35.3596C139.469 37.0383 138.911 38.3194 137.796 39.2013C136.694 40.0713 135.204 40.5064 133.331 40.5064C131.455 40.5064 129.96 40.0713 128.844 39.2013C127.742 38.3194 127.191 37.0383 127.191 35.3596V32.492C127.191 30.8252 127.748 29.5387 128.863 28.6317ZM132.337 36.5544C132.582 36.7993 132.914 36.9218 133.331 36.9218C133.747 36.9218 134.077 36.7993 134.323 36.5544C134.568 36.3092 134.69 35.9355 134.69 35.433V32.3453C134.69 31.8548 134.568 31.4874 134.323 31.2425C134.077 30.9849 133.747 30.8564 133.331 30.8564C132.914 30.8564 132.582 30.9849 132.337 31.2425C132.093 31.4874 131.97 31.8551 131.97 32.3453V35.433C131.97 35.9355 132.093 36.3092 132.337 36.5544ZM145.661 27.9517V30.9112C145.661 31.8673 146.072 32.3453 146.892 32.3453H148.143V27.9519C148.143 27.8173 148.191 27.7008 148.289 27.6028C148.387 27.5047 148.503 27.4556 148.638 27.4556H152.425C152.56 27.4556 152.676 27.5047 152.774 27.6028C152.873 27.7008 152.922 27.8173 152.922 27.9519V39.8266C152.922 39.9612 152.873 40.0775 152.774 40.1757C152.676 40.2739 152.56 40.3227 152.425 40.3227H148.638C148.503 40.3227 148.387 40.2739 148.289 40.1757C148.191 40.0775 148.143 39.9612 148.143 39.8266V36.536H146.837C144.987 36.536 143.529 36.058 142.462 35.1025C141.396 34.1341 140.869 32.7127 140.882 30.8378L140.9 27.9519C140.9 27.8173 140.949 27.7008 141.047 27.6028C141.145 27.5047 141.261 27.4556 141.396 27.4556H145.165C145.299 27.4556 145.415 27.5047 145.514 27.6028C145.612 27.7008 145.661 27.8173 145.661 27.9519V27.9517ZM167.332 39.716C167.368 39.7772 167.387 39.8571 167.387 39.9548C167.387 40.0405 167.344 40.1266 167.258 40.2121C167.185 40.2857 167.093 40.3222 166.983 40.3222H162.792C162.436 40.3222 162.186 40.1814 162.038 39.8997L159.795 35.8924V39.8263C159.795 39.961 159.746 40.0772 159.648 40.1754C159.55 40.2736 159.434 40.3224 159.299 40.3224H155.788C155.653 40.3224 155.537 40.2736 155.439 40.1754C155.34 40.0772 155.291 39.961 155.291 39.8263V27.9517C155.291 27.817 155.34 27.7005 155.439 27.6026C155.537 27.5044 155.653 27.4553 155.788 27.4553H159.299C159.434 27.4553 159.55 27.5044 159.648 27.6026C159.746 27.7005 159.795 27.817 159.795 27.9517V31.5913L161.873 27.8597C162.008 27.5899 162.252 27.4553 162.608 27.4553H166.67C166.78 27.4553 166.872 27.4985 166.946 27.584C167.031 27.6576 167.075 27.7431 167.075 27.8411C167.075 27.9271 167.056 28.001 167.02 28.062L163.71 33.6129L167.332 39.7157L167.332 39.716ZM172.799 27.4556H176.787C177.229 27.4556 177.504 27.6579 177.614 28.0623L181.713 39.7896C181.726 39.8266 181.732 39.8878 181.732 39.9736C181.732 40.047 181.69 40.1271 181.603 40.2124C181.53 40.286 181.438 40.3224 181.327 40.3224H177.928C177.559 40.3224 177.321 40.1697 177.211 39.863L176.769 38.6499H172.818L172.377 39.863C172.265 40.1697 172.027 40.3224 171.659 40.3224H168.259C168.149 40.3224 168.05 40.286 167.964 40.2124C167.891 40.1268 167.855 40.047 167.855 39.9736C167.855 39.8878 167.861 39.8266 167.873 39.7896L171.972 28.0623C172.082 27.6579 172.358 27.4556 172.799 27.4556H172.799ZM173.755 35.0656H175.831L174.784 31.6466L173.755 35.0656Z" fill="white"/>
<path d="M75.1006 50.5101H75.9349C76.2132 50.5101 76.3659 50.4711 76.3938 50.3931L74.4497 46.7139C74.444 46.6971 74.4414 46.6777 74.4414 46.6558C74.4636 46.5222 74.5334 46.455 74.6499 46.455H76.3935C76.5106 46.455 76.5992 46.5219 76.6607 46.6558L77.4366 48.2993L78.0539 46.6558C78.1097 46.5222 78.204 46.455 78.3376 46.455H80.0647C80.1148 46.455 80.1592 46.4746 80.1983 46.5136C80.237 46.5467 80.2567 46.586 80.2567 46.6302C80.2567 46.6746 80.2541 46.7025 80.2481 46.7136L78.588 50.5936C78.2986 51.2718 77.9927 51.7253 77.6702 51.9532C77.3529 52.1811 76.8444 52.2953 76.1434 52.2953H75.1003C75.0391 52.2953 74.9863 52.2733 74.9419 52.2289C74.8972 52.1844 74.8752 52.1312 74.8752 52.0705V50.7349C74.8752 50.6742 74.8972 50.621 74.9419 50.5765C74.9863 50.5321 75.0391 50.5098 75.1003 50.5098L75.1006 50.5101ZM82.7392 46.6806V48.0239C82.7392 48.4577 82.9258 48.675 83.2984 48.675H83.8658V46.6808C83.8658 46.6201 83.888 46.5669 83.9325 46.5224C83.9772 46.478 84.0301 46.4555 84.0911 46.4555H85.8102C85.8709 46.4555 85.9241 46.4782 85.9685 46.5224C86.013 46.5669 86.0352 46.6201 86.0352 46.6808V52.0713C86.0352 52.132 86.013 52.1852 85.9685 52.2297C85.9241 52.2741 85.8709 52.2961 85.8102 52.2961H84.0911C84.0299 52.2961 83.9772 52.2741 83.9325 52.2297C83.888 52.1852 83.8658 52.132 83.8658 52.0713V50.5773H83.2736C82.4338 50.5773 81.7716 50.3605 81.2879 49.9269C80.8039 49.4874 80.5647 48.842 80.5701 47.9911L80.5786 46.6811C80.5786 46.6204 80.6006 46.5671 80.6453 46.5227C80.69 46.4782 80.7424 46.4558 80.8039 46.4558H82.5144C82.5752 46.4558 82.6284 46.4785 82.6728 46.5227C82.7173 46.5671 82.7395 46.6204 82.7395 46.6811L82.7392 46.6806ZM89.1136 50.6688H91.683C91.7445 50.6688 91.7975 50.6907 91.8422 50.7352C91.8872 50.7801 91.9086 50.8328 91.9086 50.8941V52.0708C91.9086 52.1315 91.8872 52.1847 91.8422 52.2291C91.7975 52.2736 91.7443 52.2956 91.683 52.2956H87.3365C87.2757 52.2956 87.2225 52.2736 87.1781 52.2291C87.1336 52.1847 87.1111 52.1315 87.1111 52.0708V46.6803C87.1111 46.6196 87.1339 46.5664 87.1781 46.5219C87.2225 46.4775 87.2757 46.455 87.3365 46.455H91.6166C91.6781 46.455 91.7311 46.4777 91.7758 46.5219C91.8202 46.5664 91.8422 46.6196 91.8422 46.6803V47.857C91.8422 47.9182 91.8202 47.9709 91.7758 48.0154C91.7311 48.0601 91.6779 48.082 91.6166 48.082H89.1136V48.6076H91.4334C91.4949 48.6076 91.5469 48.6298 91.5916 48.6745C91.6363 48.719 91.6582 48.7717 91.6582 48.8329V49.9174C91.6582 49.9789 91.6363 50.0313 91.5916 50.0763C91.5469 50.1207 91.4949 50.1429 91.4334 50.1429H89.1136V50.6685V50.6688ZM93.1383 46.455H97.134C97.1955 46.455 97.2484 46.4777 97.2931 46.5219C97.3381 46.5664 97.3598 46.6196 97.3598 46.6803V47.857C97.3598 47.9182 97.3381 47.9709 97.2931 48.0154C97.2484 48.0601 97.1952 48.082 97.134 48.082H94.9987V48.566H95.5322C96.2668 48.566 96.8479 48.7272 97.2766 49.05C97.7104 49.3673 97.9267 49.8179 97.9267 50.4021C97.9267 50.9858 97.7153 51.4478 97.2934 51.787C96.8702 52.126 96.2836 52.2956 95.5325 52.2956H93.1385C93.077 52.2956 93.0241 52.2736 92.9794 52.2291C92.9357 52.1847 92.9129 52.1315 92.9129 52.0708V46.6803C92.9129 46.6196 92.9357 46.5664 92.9794 46.5219C93.0241 46.4775 93.0773 46.455 93.1385 46.455H93.1383ZM94.9987 49.9597V50.8605H95.524C95.6464 50.8605 95.7413 50.8103 95.8082 50.7104C95.8748 50.6101 95.9076 50.5044 95.9076 50.3931C95.9076 50.2819 95.8715 50.1822 95.7997 50.0928C95.7332 50.0042 95.6407 49.9597 95.524 49.9597H94.9987ZM102.384 46.455H104.02C104.082 46.455 104.134 46.4777 104.179 46.5219C104.223 46.5664 104.245 46.6196 104.245 46.6803V52.0708C104.245 52.1315 104.223 52.1847 104.179 52.2291C104.134 52.2736 104.082 52.2956 104.02 52.2956H102.384C102.324 52.2956 102.271 52.2736 102.226 52.2291C102.181 52.1847 102.16 52.1315 102.16 52.0708V50.2683H100.807V52.0708C100.807 52.1315 100.785 52.1847 100.741 52.2291C100.696 52.2736 100.644 52.2956 100.583 52.2956H98.9468C98.8863 52.2956 98.8334 52.2762 98.7884 52.2374C98.744 52.193 98.722 52.1372 98.722 52.0708V46.6803C98.722 46.6196 98.744 46.5664 98.7884 46.5219C98.8334 46.4775 98.8863 46.455 98.9468 46.455H100.583C100.644 46.455 100.696 46.4777 100.741 46.5219C100.785 46.5664 100.807 46.6196 100.807 46.6803V48.4329H102.16V46.6803C102.16 46.6196 102.181 46.5664 102.226 46.5219C102.271 46.4775 102.324 46.455 102.384 46.455ZM108.041 52.2953H105.556C105.494 52.2953 105.441 52.2733 105.396 52.2289C105.353 52.1844 105.33 52.1312 105.33 52.0705V46.68C105.33 46.6193 105.353 46.5661 105.396 46.5217C105.441 46.4772 105.494 46.4547 105.556 46.4547H107.274C107.335 46.4547 107.388 46.4775 107.433 46.5217C107.477 46.5661 107.499 46.6193 107.499 46.68V48.2735H108.041C108.848 48.2735 109.473 48.4347 109.919 48.7575C110.369 49.0804 110.594 49.5781 110.594 50.2515C110.594 50.9243 110.369 51.4331 109.919 51.778C109.468 52.123 108.842 52.295 108.041 52.295L108.041 52.2953ZM107.458 49.8176V50.7437H108.041C108.175 50.7437 108.272 50.6961 108.333 50.6018C108.395 50.507 108.425 50.3902 108.425 50.2517C108.425 50.1124 108.387 50.0068 108.309 49.9344C108.231 49.8566 108.142 49.8179 108.041 49.8179H107.458V49.8176ZM112.831 52.2953H111.129C111.068 52.2953 111.015 52.2733 110.97 52.2289C110.926 52.1844 110.904 52.1312 110.904 52.0705V46.68C110.904 46.6193 110.926 46.5661 110.97 46.5217C111.015 46.4772 111.068 46.4547 111.129 46.4547H112.831C112.893 46.4547 112.946 46.4775 112.989 46.5217C113.034 46.5661 113.057 46.6193 113.057 46.68V52.0705C113.057 52.1312 113.034 52.1844 112.989 52.2289C112.946 52.2733 112.893 52.2953 112.831 52.2953ZM116.141 50.6685H118.711C118.773 50.6685 118.824 50.6905 118.869 50.7349C118.914 50.7799 118.936 50.8326 118.936 50.8938V52.0705C118.936 52.1312 118.914 52.1844 118.869 52.2289C118.824 52.2733 118.773 52.2953 118.711 52.2953H114.363C114.302 52.2953 114.25 52.2733 114.205 52.2289C114.16 52.1844 114.139 52.1312 114.139 52.0705V46.68C114.139 46.6193 114.16 46.5661 114.205 46.5217C114.25 46.4772 114.302 46.4547 114.363 46.4547H118.644C118.705 46.4547 118.758 46.4775 118.803 46.5217C118.847 46.5661 118.869 46.6193 118.869 46.68V47.8567C118.869 47.918 118.847 47.9707 118.803 48.0151C118.758 48.0598 118.705 48.0818 118.644 48.0818H116.141V48.6073H118.46C118.522 48.6073 118.575 48.6296 118.619 48.6743C118.663 48.7187 118.686 48.7714 118.686 48.8327V49.9171C118.686 49.9786 118.663 50.0311 118.619 50.076C118.575 50.1205 118.521 50.1427 118.46 50.1427H116.141V50.6682V50.6685ZM127.04 46.4547H128.359C128.42 46.4547 128.473 46.4775 128.517 46.5217C128.561 46.5661 128.585 46.6193 128.585 46.68V52.0705C128.585 52.1312 128.561 52.1844 128.517 52.2289C128.473 52.2733 128.42 52.2953 128.359 52.2953H126.849C126.787 52.2953 126.734 52.2733 126.691 52.2289C126.646 52.1844 126.623 52.1312 126.623 52.0705V49.784L126.072 50.685C125.983 50.824 125.88 50.8935 125.763 50.8935H125.18C125.062 50.8935 124.96 50.824 124.871 50.685L124.32 49.784V52.0705C124.32 52.1312 124.298 52.1844 124.253 52.2289C124.209 52.2733 124.157 52.2953 124.095 52.2953H122.585C122.524 52.2953 122.471 52.2733 122.426 52.2289C122.383 52.1844 122.359 52.1312 122.359 52.0705V46.68C122.359 46.6193 122.383 46.5661 122.426 46.5217C122.471 46.4772 122.524 46.4547 122.585 46.4547H123.903C124.059 46.4547 124.179 46.5299 124.262 46.68L125.471 48.6825L126.682 46.68C126.765 46.5299 126.885 46.4547 127.04 46.4547ZM131.495 46.4547H133.307C133.506 46.4547 133.632 46.5467 133.682 46.7304L135.542 52.0534C135.548 52.0705 135.551 52.0979 135.551 52.1369C135.551 52.17 135.531 52.2064 135.492 52.2454C135.458 52.279 135.417 52.2953 135.367 52.2953H133.823C133.657 52.2953 133.548 52.226 133.498 52.087L133.298 51.5362H131.504L131.304 52.087C131.253 52.226 131.145 52.2953 130.978 52.2953H129.435C129.384 52.2953 129.34 52.2788 129.301 52.2454C129.268 52.2067 129.251 52.1702 129.251 52.1369C129.251 52.0979 129.254 52.0705 129.26 52.0534L131.12 46.7304C131.17 46.5467 131.296 46.4547 131.495 46.4547H131.495ZM131.93 49.9088H132.872L132.396 48.357L131.93 49.9088ZM136.153 46.4547H141.041C141.103 46.4547 141.156 46.4775 141.2 46.5217C141.245 46.5661 141.267 46.6193 141.267 46.68V48.0234C141.267 48.0849 141.245 48.1373 141.2 48.182C141.156 48.2267 141.103 48.249 141.041 48.249H139.657V52.0705C139.657 52.1312 139.634 52.1844 139.59 52.2289C139.546 52.2733 139.493 52.2953 139.431 52.2953H137.763C137.702 52.2953 137.649 52.2733 137.604 52.2289C137.56 52.1844 137.537 52.1312 137.537 52.0705V48.249H136.153C136.091 48.249 136.039 48.2267 135.994 48.182C135.949 48.1373 135.927 48.0849 135.927 48.0234V46.68C135.927 46.6193 135.949 46.5661 135.994 46.5217C136.039 46.4772 136.092 46.4547 136.153 46.4547ZM144.064 50.6685H146.634C146.696 50.6685 146.748 50.6905 146.792 50.7349C146.837 50.7799 146.859 50.8326 146.859 50.8938V52.0705C146.859 52.1312 146.837 52.1844 146.792 52.2289C146.748 52.2733 146.696 52.2953 146.634 52.2953H142.286C142.225 52.2953 142.173 52.2733 142.128 52.2289C142.083 52.1844 142.062 52.1312 142.062 52.0705V46.68C142.062 46.6193 142.083 46.5661 142.128 46.5217C142.173 46.4772 142.225 46.4547 142.286 46.4547H146.567C146.628 46.4547 146.681 46.4775 146.726 46.5217C146.77 46.5661 146.792 46.6193 146.792 46.68V47.8567C146.792 47.918 146.77 47.9707 146.726 48.0151C146.681 48.0598 146.628 48.0818 146.567 48.0818H144.064V48.6073H146.383C146.445 48.6073 146.498 48.6296 146.542 48.6743C146.586 48.7187 146.609 48.7714 146.609 48.8327V49.9171C146.609 49.9786 146.586 50.0311 146.542 50.076C146.498 50.1205 146.444 50.1427 146.383 50.1427H144.064V50.6682V50.6685ZM148.088 46.4547H150.575C151.376 46.4547 152.001 46.6276 152.452 46.972C152.903 47.3167 153.127 47.8257 153.127 48.4988C153.127 49.1719 152.903 49.6698 152.452 49.9926C152.007 50.3148 151.381 50.4765 150.575 50.4765H150.032V52.0705C150.032 52.1312 150.01 52.1844 149.965 52.2289C149.92 52.2733 149.867 52.2953 149.807 52.2953H148.088C148.026 52.2953 147.974 52.2733 147.93 52.2289C147.885 52.1844 147.862 52.1312 147.862 52.0705V46.68C147.862 46.6193 147.885 46.5661 147.93 46.5217C147.973 46.4772 148.026 46.4547 148.088 46.4547ZM149.991 48.0069V48.9329H150.575C150.674 48.9329 150.763 48.8967 150.841 48.8244C150.919 48.7466 150.959 48.6381 150.959 48.4988C150.959 48.3596 150.927 48.243 150.866 48.1487C150.806 48.0539 150.708 48.0069 150.575 48.0069H149.991ZM154.06 46.4547H155.57C155.632 46.4547 155.684 46.4775 155.729 46.5217C155.774 46.5661 155.796 46.6193 155.796 46.68V48.9582L157.206 46.6467C157.278 46.5188 157.393 46.455 157.549 46.455H158.866C158.928 46.455 158.981 46.4777 159.025 46.5219C159.069 46.5664 159.092 46.6196 159.092 46.6803V52.0708C159.092 52.1315 159.069 52.1847 159.025 52.2291C158.981 52.2736 158.928 52.2956 158.866 52.2956H157.356C157.294 52.2956 157.242 52.2736 157.198 52.2291C157.153 52.1847 157.13 52.1315 157.13 52.0708V49.9763L155.721 52.1036C155.638 52.2317 155.523 52.2953 155.379 52.2953H154.06C153.999 52.2953 153.946 52.2733 153.902 52.2289C153.857 52.1844 153.835 52.1312 153.835 52.0705V46.68C153.835 46.6193 153.857 46.5661 153.902 46.5217C153.946 46.4772 153.999 46.4547 154.06 46.4547H154.06ZM162.001 46.4547H163.812C164.013 46.4547 164.137 46.5467 164.187 46.7304L166.048 52.0534C166.053 52.0705 166.057 52.0979 166.057 52.1369C166.057 52.17 166.037 52.2064 165.998 52.2454C165.965 52.279 165.923 52.2953 165.874 52.2953H164.33C164.163 52.2953 164.054 52.226 164.004 52.087L163.804 51.5362H162.01L161.81 52.087C161.76 52.226 161.651 52.2953 161.484 52.2953H159.941C159.891 52.2953 159.846 52.2788 159.808 52.2454C159.775 52.2067 159.758 52.1702 159.758 52.1369C159.758 52.0979 159.76 52.0705 159.766 52.0534L161.625 46.7304C161.677 46.5467 161.802 46.4547 162.001 46.4547ZM162.436 49.9088H163.378L162.903 48.357L162.436 49.9088ZM166.584 52.3788C166.522 52.3788 166.466 52.3565 166.416 52.3118C166.373 52.2674 166.35 52.2147 166.35 52.1534V50.9271C166.35 50.8656 166.373 50.8132 166.416 50.7682C166.461 50.7238 166.514 50.7016 166.575 50.7016C166.986 50.7016 167.192 50.4876 167.192 50.059V46.68C167.192 46.6193 167.215 46.5661 167.26 46.5217C167.303 46.4772 167.357 46.4547 167.418 46.4547H172.157C172.219 46.4547 172.271 46.4775 172.316 46.5217C172.361 46.5661 172.383 46.6193 172.383 46.68V52.0705C172.383 52.1312 172.361 52.1844 172.316 52.2289C172.271 52.2733 172.218 52.2953 172.157 52.2953H170.522C170.46 52.2953 170.407 52.2733 170.364 52.2289C170.319 52.1844 170.297 52.1312 170.297 52.0705V48.2908H169.279V50.0344C169.279 50.8132 169.036 51.3997 168.553 51.7948C168.069 52.1844 167.413 52.3788 166.584 52.3788ZM176.175 52.295H173.689C173.628 52.295 173.575 52.2731 173.531 52.2286C173.486 52.1842 173.464 52.131 173.464 52.0702V46.6798C173.464 46.6191 173.486 46.5658 173.531 46.5214C173.575 46.4769 173.628 46.4545 173.689 46.4545H175.408C175.469 46.4545 175.522 46.4772 175.566 46.5214C175.611 46.5658 175.634 46.6191 175.634 46.6798V48.2732H176.176C176.982 48.2732 177.608 48.4345 178.053 48.7572C178.503 49.0802 178.729 49.5778 178.729 50.2512C178.729 50.924 178.503 51.4328 178.053 51.7777C177.603 52.1227 176.976 52.2948 176.176 52.2948L176.175 52.295ZM175.591 49.8174V50.7434H176.175C176.308 50.7434 176.406 50.6959 176.468 50.6016C176.529 50.5067 176.559 50.39 176.559 50.2515C176.559 50.1122 176.521 50.0065 176.443 49.9342C176.365 49.8564 176.275 49.8176 176.175 49.8176H175.591V49.8174ZM180.965 52.295H179.262C179.201 52.295 179.148 52.2731 179.104 52.2286C179.06 52.1842 179.037 52.131 179.037 52.0702V46.6798C179.037 46.6191 179.06 46.5658 179.104 46.5214C179.148 46.4769 179.201 46.4545 179.262 46.4545H180.965C181.025 46.4545 181.078 46.4772 181.123 46.5214C181.168 46.5658 181.19 46.6191 181.19 46.6798V52.0702C181.19 52.131 181.168 52.1842 181.123 52.2286C181.078 52.2731 181.025 52.295 180.965 52.295Z" fill="#8D6C01"/>
</svg>
