<?xml version="1.0" encoding="UTF-8"?>
<!DOCTYPE svg PUBLIC "-//W3C//DTD SVG 1.1//EN" "http://www.w3.org/Graphics/SVG/1.1/DTD/svg11.dtd">
<!-- Creator: CorelDRAW -->
<svg xmlns="http://www.w3.org/2000/svg" xml:space="preserve" width="3.8492mm" height="4.7224mm" version="1.1" style="shape-rendering:geometricPrecision; text-rendering:geometricPrecision; image-rendering:optimizeQuality; fill-rule:evenodd; clip-rule:evenodd"
viewBox="0 0 0.38 0.46"
 xmlns:xlink="http://www.w3.org/1999/xlink"
 xmlns:xodm="http://www.corel.com/coreldraw/odm/2003">
 <defs>
  <style type="text/css">
   <![CDATA[
    .fil0 {fill:#AC8F44}
   ]]>
  </style>
 </defs>
 <g id="Слой_x0020_1">
  <metadata id="CorelCorpID_0Corel-Layer"/>
  <path class="fil0" d="M0.2 0.34l0.07 -0.08 0.06 -0.07c0,-0 0,-0.01 0,-0.01 -0,-0 -0.01,-0.01 -0.01,-0.01l-0.06 0 0 -0.15c0,-0.01 -0.01,-0.02 -0.02,-0.02l-0.11 0c-0.01,0 -0.02,0.01 -0.02,0.02l0 0.15 -0.06 0c-0.01,0 -0.01,0 -0.01,0.01 -0,0 -0,0.01 0,0.01l0.06 0.07 0.07 0.08c0,0 0.01,0 0.01,0 0,0 0.01,-0 0.01,-0zm-0.17 0.06l0.32 0c0.02,0 0.03,0.01 0.03,0.03l0 0c0,0.02 -0.01,0.03 -0.03,0.03l-0.32 0c-0.02,0 -0.03,-0.01 -0.03,-0.03l0 -0c0,-0.02 0.01,-0.03 0.03,-0.03z"/>
 </g>
</svg>
