<?xml version="1.0" encoding="UTF-8"?>
<!DOCTYPE svg PUBLIC "-//W3C//DTD SVG 1.1//EN" "http://www.w3.org/Graphics/SVG/1.1/DTD/svg11.dtd">
<!-- Creator: CorelDRAW -->
<svg xmlns="http://www.w3.org/2000/svg" xml:space="preserve" width="0.9973mm" height="0.9999mm" version="1.1" style="shape-rendering:geometricPrecision; text-rendering:geometricPrecision; image-rendering:optimizeQuality; fill-rule:evenodd; clip-rule:evenodd"
viewBox="0 0 2.74 2.75"
 xmlns:xlink="http://www.w3.org/1999/xlink"
 xmlns:xodm="http://www.corel.com/coreldraw/odm/2003">
 <defs>
  <style type="text/css">
   <![CDATA[
    .fil0 {fill:#EDB918;fill-rule:nonzero}
   ]]>
  </style>
 </defs>
 <g id="Слой_x0020_1">
  <metadata id="CorelCorpID_0Corel-Layer"/>
  <g id="_105553360330048">
   <g>
    <path class="fil0" d="M0.08 0.45c-0.1,-0.1 -0.1,-0.27 -0,-0.37 0.1,-0.1 0.27,-0.1 0.37,0l-0.37 0.37zm2.14 2.14l-2.14 -2.14 0.37 -0.37 2.14 2.14 -0.37 0.37zm0.37 -0.37c0.1,0.1 0.1,0.27 0,0.37 -0.1,0.1 -0.27,0.1 -0.37,-0l0.37 -0.37z"/>
   </g>
   <g>
    <path class="fil0" d="M0.85 2.75c-0.14,0 -0.27,-0.11 -0.27,-0.25 -0.01,-0.14 0.11,-0.27 0.25,-0.27l0.02 0.52zm1.59 -0.05l-1.59 0.05 -0.02 -0.52 1.59 -0.05 0.27 0.27 -0.25 0.25zm-0.02 -0.52c0.14,-0 0.27,0.11 0.27,0.25 0.01,0.14 -0.11,0.27 -0.25,0.27l-0.02 -0.52zm0.33 -1.33l-0.05 1.6 -0.52 -0.02 0.05 -1.6 0.52 0.02zm-0.52 -0.02c0,-0.14 0.13,-0.26 0.27,-0.25 0.14,0.01 0.26,0.13 0.25,0.27l-0.52 -0.02z"/>
   </g>
  </g>
 </g>
</svg>
