<?xml version="1.0" encoding="UTF-8"?>
<!DOCTYPE svg PUBLIC "-//W3C//DTD SVG 1.1//EN" "http://www.w3.org/Graphics/SVG/1.1/DTD/svg11.dtd">
<!-- Creator: CorelDRAW -->
<svg xmlns="http://www.w3.org/2000/svg" xml:space="preserve" width="4.3654mm" height="4.931mm" version="1.1" style="shape-rendering:geometricPrecision; text-rendering:geometricPrecision; image-rendering:optimizeQuality; fill-rule:evenodd; clip-rule:evenodd"
viewBox="0 0 0.49 0.55"
 xmlns:xlink="http://www.w3.org/1999/xlink"
 xmlns:xodm="http://www.corel.com/coreldraw/odm/2003">
 <defs>
  <style type="text/css">
   <![CDATA[
    .fil0 {fill:#AC8F44;fill-rule:nonzero}
   ]]>
  </style>
 </defs>
 <g id="Слой_x0020_1">
  <metadata id="CorelCorpID_0Corel-Layer"/>
  <g id="_105553282534688">
   <g>
    <path class="fil0" d="M0.42 0.1l-0.27 -0.06 0.01 -0.04 0.27 0.06 -0.01 0.04 -0 0zm0.01 -0.04c0.01,0 0.02,0.01 0.02,0.03 -0,0.01 -0.01,0.02 -0.03,0.02l0.01 -0.04zm0.05 0.08l-0.05 -0.01 0 0 0 -0 0 -0 0 -0 0 -0 -0 -0 -0 -0 -0 -0 -0 -0 -0 -0 -0 -0 -0 -0 -0 -0 -0 -0 -0 -0 -0 -0 -0 -0 -0 -0 -0 -0 -0 -0 -0 -0 -0 -0 -0 -0 -0 -0 -0 -0 -0 -0 -0 -0 -0 -0 -0 -0 -0 -0 -0 -0 -0 -0 -0 -0 0.01 -0.04 0 0 0 0 0 0 0 0 0 0 0 0 0 0 0 0 0 0 0 0 0 0 0 0 0 0 0 0 0 0 0 0 0 0 0 0 0 0 0 0 0 0 0 0 0 0 0 0 0 0 0 0 0 0 0 0 -0 0 -0 0 -0 0 -0 0 0 0zm0 0c-0,0.01 -0.01,0.02 -0.03,0.02 -0.01,-0 -0.02,-0.01 -0.02,-0.03l0.05 0.01zm-0.12 0.35l0.08 -0.36 0.05 0.01 -0.08 0.36 -0.05 -0.01zm0.05 0.01c-0,0.01 -0.01,0.02 -0.03,0.02 -0.01,-0 -0.02,-0.01 -0.02,-0.03l0.05 0.01zm-0.08 0.05l0.01 -0.04 0 0 0 0 0 0 0 0 0 0 0 -0 0 -0 0 -0 0 -0 0 -0 0 -0 0 -0 0 -0 0 -0 0 -0 0 -0 0 -0 0 -0 0 -0 0 -0 0 -0 0 -0 0 -0 0 -0 0 -0 0 -0 0 -0 0 -0 0 -0 0 -0 0 -0 0 -0 0 -0 0.05 0.01 -0 0 -0 0 -0 0 -0 0 -0 0 -0 0 -0 0 -0 0 -0 0 -0 0 -0 0 -0 0 -0 0 -0 0 -0 0 -0 0 -0 0 -0 0 -0 0 -0 0 -0 0 -0 0 -0 0 -0 0 -0 0 -0 0 -0 0 -0 0 -0 -0 -0 -0 -0 -0 -0 -0 0 0zm0 0c-0.01,-0 -0.02,-0.01 -0.02,-0.03 0,-0.01 0.01,-0.02 0.03,-0.02l-0.01 0.04zm-0.26 -0.1l0.27 0.06 -0.01 0.04 -0.27 -0.06 -0 0 0.01 -0.04zm-0.01 0.04c-0.01,-0 -0.02,-0.01 -0.02,-0.03 0,-0.01 0.01,-0.02 0.03,-0.02l-0.01 0.04zm-0.05 -0.08l0.05 0.01 0 0 -0 0 -0 0 -0 0 -0 0 0 0 0 0 0 0 0 0 0 0 0 0 0 0 0 0 0 0 0 0 0 0 0 0 0 0 0 0 0 0 0 0 0 0 0 0 0 0 0 0 0 0 0 0 0 0 0 0 0 0 0 0 0 0 0 0 -0.01 0.04 -0 -0 -0 -0 -0 -0 -0 -0 -0 -0 -0 -0 -0 -0 -0 -0 -0 -0 -0 -0 -0 -0 -0 -0 -0 -0 -0 -0 -0 -0 -0 -0 -0 -0 -0 -0 -0 -0 -0 -0 -0 -0 -0 -0 -0 -0 -0 -0 -0 -0 -0 -0 -0 -0 -0 -0 0 -0 0 -0 0 -0 0 -0 0 0zm0 0c0,-0.01 0.01,-0.02 0.03,-0.02 0.01,0 0.02,0.01 0.02,0.03l-0.05 -0.01zm0.12 -0.35l-0.08 0.36 -0.05 -0.01 0.08 -0.36 0.05 0.01zm-0.05 -0.01c0,-0.01 0.01,-0.02 0.03,-0.02 0.01,0 0.02,0.01 0.02,0.03l-0.05 -0.01zm0.08 -0.05l-0.01 0.04 0 0 -0 -0 -0 -0 -0 -0 -0 -0 -0 0 -0 0 -0 0 -0 0 -0 0 -0 0 -0 0 -0 0 -0 0 -0 0 -0 0 -0 0 -0 0 -0 0 -0 0 -0 0 -0 0 -0 0 -0 0 -0 0 -0 0 -0 0 -0 0 -0 0 -0 0 -0 0 -0 0 -0 0 -0.05 -0.01 0 -0 0 -0 0 -0 0 -0 0 -0 0 -0 0 -0 0 -0 0 -0 0 -0 0 -0 0 -0 0 -0 0 -0 0 -0 0 -0 0 -0 0 -0 0 -0 0 -0 0 -0 0 -0 0 -0 0 -0 0 -0 0 -0 0 -0 0 -0 0 0 0 0 0 0 0 0 0 0zm-0 0c0.01,0 0.02,0.01 0.02,0.03 -0,0.01 -0.01,0.02 -0.03,0.02l0.01 -0.04z"/>
   </g>
   <g>
    <path class="fil0" d="M0.16 0.17c-0.01,-0 -0.02,-0.01 -0.02,-0.03 0,-0.01 0.01,-0.02 0.03,-0.02l-0.01 0.04zm0.19 0.04l-0.19 -0.04 0.01 -0.04 0.19 0.04 -0.01 0.04zm0.01 -0.04c0.01,0 0.02,0.01 0.02,0.03 -0,0.01 -0.01,0.02 -0.03,0.02l0.01 -0.04z"/>
   </g>
   <g>
    <path class="fil0" d="M0.14 0.27c-0.01,-0 -0.02,-0.01 -0.02,-0.03 0,-0.01 0.01,-0.02 0.03,-0.02l-0.01 0.04zm0.19 0.04l-0.19 -0.04 0.01 -0.04 0.19 0.04 -0.01 0.04zm0.01 -0.04c0.01,0 0.02,0.01 0.02,0.03 -0,0.01 -0.01,0.02 -0.03,0.02l0.01 -0.04z"/>
   </g>
   <g>
    <path class="fil0" d="M0.12 0.36c-0.01,-0 -0.02,-0.01 -0.02,-0.03 0,-0.01 0.01,-0.02 0.03,-0.02l-0.01 0.04zm0.19 0.04l-0.19 -0.04 0.01 -0.04 0.19 0.04 -0.01 0.04zm0.01 -0.04c0.01,0 0.02,0.01 0.02,0.03 -0,0.01 -0.01,0.02 -0.03,0.02l0.01 -0.04z"/>
   </g>
  </g>
 </g>
</svg>
