<?xml version="1.0" encoding="UTF-8"?>
<!DOCTYPE svg PUBLIC "-//W3C//DTD SVG 1.1//EN" "http://www.w3.org/Graphics/SVG/1.1/DTD/svg11.dtd">
<!-- Creator: CorelDRAW -->
<svg xmlns="http://www.w3.org/2000/svg" xml:space="preserve" width="6.8722mm" height="6.8722mm" version="1.1" style="shape-rendering:geometricPrecision; text-rendering:geometricPrecision; image-rendering:optimizeQuality; fill-rule:evenodd; clip-rule:evenodd"
viewBox="0 0 71.79 71.79"
 xmlns:xlink="http://www.w3.org/1999/xlink"
 xmlns:xodm="http://www.corel.com/coreldraw/odm/2003">
 <defs>
  <style type="text/css">
   <![CDATA[
    .fil0 {fill:#F9EFD9}
    .fil1 {fill:#EDB918;fill-rule:nonzero}
   ]]>
  </style>
 </defs>
 <g id="Слой_x0020_1">
  <metadata id="CorelCorpID_0Corel-Layer"/>
  <g id="_105553206621952">
   <circle class="fil0" cx="35.89" cy="35.89" r="35.89"/>
   <path class="fil1" d="M33.66 44.51c-0.28,0 -0.52,-0.1 -0.72,-0.28 -0.21,-0.19 -0.31,-0.44 -0.31,-0.75 0,-0.27 0,-0.55 0,-0.83 0,-0.28 0,-0.55 0,-0.83 0.14,-1.34 0.51,-2.54 1.11,-3.59 0.6,-1.05 1.31,-2.01 2.12,-2.89 0.81,-0.88 1.62,-1.71 2.42,-2.5 0.81,-0.79 1.5,-1.57 2.06,-2.35 0.57,-0.77 0.9,-1.57 1.01,-2.4 0.1,-1 -0.1,-1.84 -0.59,-2.53 -0.5,-0.69 -1.17,-1.21 -2.01,-1.57 -0.84,-0.36 -1.73,-0.54 -2.66,-0.54 -1.62,0 -2.94,0.4 -3.97,1.19 -1.03,0.79 -1.74,2.06 -2.12,3.82 -0.1,0.41 -0.27,0.71 -0.52,0.9 -0.24,0.19 -0.57,0.28 -0.98,0.28l-4.39 0c-0.31,0 -0.58,-0.11 -0.8,-0.34 -0.22,-0.22 -0.34,-0.52 -0.34,-0.9 0.03,-1.38 0.35,-2.71 0.95,-4 0.6,-1.29 1.48,-2.45 2.63,-3.48 1.15,-1.03 2.55,-1.85 4.2,-2.45 1.65,-0.6 3.54,-0.9 5.68,-0.9 2.34,0 4.31,0.3 5.91,0.9 1.6,0.6 2.87,1.38 3.82,2.35 0.95,0.96 1.63,2 2.04,3.12 0.41,1.12 0.6,2.21 0.57,3.28 -0.07,1.31 -0.36,2.48 -0.88,3.51 -0.52,1.03 -1.15,1.99 -1.91,2.86 -0.76,0.88 -1.53,1.74 -2.32,2.58 -0.79,0.84 -1.49,1.69 -2.09,2.55 -0.6,0.86 -1.01,1.77 -1.21,2.73 -0.07,0.31 -0.12,0.61 -0.15,0.9 -0.03,0.29 -0.07,0.58 -0.1,0.85 -0.14,0.41 -0.31,0.73 -0.52,0.95 -0.21,0.22 -0.5,0.34 -0.88,0.34l-5.06 0zm-0.16 9.7c-0.34,0 -0.64,-0.12 -0.88,-0.36 -0.24,-0.24 -0.36,-0.53 -0.36,-0.88l0 -4.49c0,-0.38 0.12,-0.69 0.36,-0.93 0.24,-0.24 0.53,-0.36 0.88,-0.36l5 0c0.38,0 0.69,0.12 0.93,0.36 0.24,0.24 0.36,0.55 0.36,0.93l0 4.49c0,0.34 -0.12,0.64 -0.36,0.88 -0.24,0.24 -0.55,0.36 -0.93,0.36l-5 0z"/>
  </g>
 </g>
</svg>
