<?xml version="1.0" encoding="UTF-8"?>
<!DOCTYPE svg PUBLIC "-//W3C//DTD SVG 1.1//EN" "http://www.w3.org/Graphics/SVG/1.1/DTD/svg11.dtd">
<svg xmlns="http://www.w3.org/2000/svg" xml:space="preserve" width="4.7161mm" height="6.2411mm" version="1.1" style="shape-rendering:geometricPrecision; text-rendering:geometricPrecision; image-rendering:optimizeQuality; fill-rule:evenodd; clip-rule:evenodd"
viewBox="0 0 0.9 0.75"
 xmlns:xlink="http://www.w3.org/1999/xlink">
 <defs>
  <style type="text/css">
   <![CDATA[
    .str0 {stroke:#AC8F44;stroke-width:0.06;stroke-miterlimit:22.9256}
    .fil0 {fill:none}
    .fil1 {fill:#AC8F44;fill-rule:nonzero}
   ]]>
  </style>
 </defs>
 <g id="Layer_1">
  <metadata id="CorelCorpID_0Corel-Layer"/>
  <!-- Left person -->
  <circle class="fil0 str0" cx="0.22" cy="0.18" r="0.1"/>
  <path class="fil0 str0" d="M0.22 0.33c-0.08,0 -0.15,0.07 -0.15,0.15l0 0.15c0,0.02 0.01,0.03 0.03,0.03l0.24 0c0.02,0 0.03,-0.01 0.03,-0.03l0 -0.15c0,-0.08 -0.07,-0.15 -0.15,-0.15z"/>
  
  <!-- Right person -->
  <circle class="fil0 str0" cx="0.68" cy="0.18" r="0.1"/>
  <path class="fil0 str0" d="M0.68 0.33c-0.08,0 -0.15,0.07 -0.15,0.15l0 0.15c0,0.02 0.01,0.03 0.03,0.03l0.24 0c0.02,0 0.03,-0.01 0.03,-0.03l0 -0.15c0,-0.08 -0.07,-0.15 -0.15,-0.15z"/>
  
  <!-- Connection arrow -->
  <path class="fil1" d="M0.37 0.18l0.16 0 0 -0.04 0.08 0.06 -0.08 0.06 0 -0.04 -0.16 0 0 -0.04z"/>
  <line class="fil0 str0" x1="0.32" y1="0.18" x2="0.58" y2="0.18"/>
 </g>
</svg>