<?xml version="1.0" encoding="UTF-8"?>
<!DOCTYPE svg PUBLIC "-//W3C//DTD SVG 1.1//EN" "http://www.w3.org/Graphics/SVG/1.1/DTD/svg11.dtd">
<!-- Creator: CorelDRAW -->
<svg xmlns="http://www.w3.org/2000/svg" xml:space="preserve" width="7.4205mm" height="3.6086mm" version="1.1" style="shape-rendering:geometricPrecision; text-rendering:geometricPrecision; image-rendering:optimizeQuality; fill-rule:evenodd; clip-rule:evenodd"
viewBox="0 0 2.38 1.16"
 xmlns:xlink="http://www.w3.org/1999/xlink"
 xmlns:xodm="http://www.corel.com/coreldraw/odm/2003">
 <defs>
  <style type="text/css">
   <![CDATA[
    .fil0 {fill:#8d6c01;fill-rule:nonzero}
   ]]>
  </style>
 </defs>
 <g id="Слой_x0020_1">
  <metadata id="CorelCorpID_0Corel-Layer"/>
  <path class="fil0" d="M1.19 0c0.32,0 0.61,0.06 0.82,0.16 0.23,0.1 0.37,0.25 0.37,0.42 0,0.17 -0.14,0.32 -0.37,0.42 -0.21,0.1 -0.5,0.16 -0.82,0.16 -0.32,0 -0.61,-0.06 -0.82,-0.16 -0.23,-0.1 -0.37,-0.25 -0.37,-0.42 0,-0.17 0.14,-0.32 0.37,-0.42 0.21,-0.1 0.5,-0.16 0.82,-0.16zm0 0.26c0.18,0 0.32,0.14 0.32,0.32 0,0.18 -0.14,0.32 -0.32,0.32 -0.18,0 -0.32,-0.14 -0.32,-0.32 0,-0.18 0.14,-0.32 0.32,-0.32zm0.76 0.03c-0.19,-0.09 -0.46,-0.14 -0.76,-0.14 -0.3,0 -0.57,0.05 -0.76,0.14 -0.18,0.08 -0.29,0.18 -0.29,0.29 0,0.11 0.11,0.21 0.29,0.29 0.19,0.09 0.46,0.14 0.76,0.14 0.3,0 0.57,-0.05 0.76,-0.14 0.18,-0.08 0.29,-0.18 0.29,-0.29 0,-0.11 -0.11,-0.21 -0.29,-0.29z"/>
 </g>
</svg>
