<?xml version="1.0" encoding="UTF-8"?>
<!DOCTYPE svg PUBLIC "-//W3C//DTD SVG 1.1//EN" "http://www.w3.org/Graphics/SVG/1.1/DTD/svg11.dtd">
<!-- Creator: CorelDRAW -->
<svg xmlns="http://www.w3.org/2000/svg" xml:space="preserve" width="10.0001mm" height="9.5613mm" version="1.1" style="shape-rendering:geometricPrecision; text-rendering:geometricPrecision; image-rendering:optimizeQuality; fill-rule:evenodd; clip-rule:evenodd"
viewBox="0 0 311.26 297.6"
 xmlns:xlink="http://www.w3.org/1999/xlink"
 xmlns:xodm="http://www.corel.com/coreldraw/odm/2003">
 <defs>
  <style type="text/css">
   <![CDATA[
    .fil0 {fill:#EDB918}
   ]]>
  </style>
 </defs>
 <g id="Слой_x0020_1">
  <metadata id="CorelCorpID_0Corel-Layer"/>
  <path class="fil0" d="M171.78 11.76l34.07 81.78 88.43 7.22c7.46,0.61 13.86,4.61 16.17,11.73 2.32,7.12 -0.54,14.08 -6.19,18.99l-66.33 57.72 19.54 86.29c1.65,7.3 -0.1,14.61 -6.16,19.01 -6.06,4.4 -13.58,3.87 -19.98,-0.02l-75.71 -45.95 -75.71 45.95c-6.4,3.88 -13.92,4.42 -19.98,0.02 -6.06,-4.4 -7.78,-11.7 -6.15,-19.01l19.23 -86.29 -66.02 -57.72c-5.64,-4.93 -8.5,-11.87 -6.19,-18.99 2.31,-7.12 8.71,-11.11 16.17,-11.73l87.53 -7.24 34.97 -81.76c2.94,-6.89 8.66,-11.76 16.15,-11.76 7.49,0 13.27,4.85 16.15,11.76z"/>
 </g>
</svg>
