<svg width="50" height="48" viewBox="0 0 50 48" fill="none" xmlns="http://www.w3.org/2000/svg">
<path fill-rule="evenodd" clip-rule="evenodd" d="M31.7346 4.91425L34.5437 11.6493L41.8271 12.245C43.3162 12.3668 44.7513 12.8745 45.9561 13.7477C47.2219 14.6683 48.2034 15.9476 48.7314 17.5654C49.2594 19.1832 49.2188 20.7942 48.7314 22.2766C48.2711 23.698 47.425 24.9367 46.3216 25.8912L40.8117 30.6903L42.4363 37.8654C42.7612 39.2869 42.7206 40.7693 42.2671 42.1637C41.7797 43.6732 40.8727 45.0066 39.4986 46.0017C38.138 46.9899 36.5947 47.4435 35.0175 47.4435C33.5351 47.4435 32.0934 47.017 30.8276 46.2453L24.5595 42.4412L18.2915 46.2453C17.0257 47.017 15.5772 47.4435 14.1015 47.4435C12.5244 47.4435 10.9811 46.9899 9.6205 46.0017C8.2464 44.9999 7.33937 43.6732 6.852 42.1704C6.40525 40.7896 6.36464 39.314 6.68278 37.8925L8.28702 30.6836L2.79064 25.8776C1.68054 24.9097 0.834423 23.6777 0.380905 22.2833C-0.106459 20.8009 -0.147072 19.1967 0.380905 17.5721C0.908881 15.9544 1.88361 14.675 3.15617 13.7545C4.36104 12.8813 5.78251 12.3736 7.26491 12.2518L14.5009 11.6561L17.398 4.8804C17.9734 3.54015 18.8872 2.35559 20.0853 1.4824C21.3714 0.548284 22.8808 0 24.5595 0C26.2315 0 27.7409 0.541515 29.027 1.47563L29.0406 1.46209C30.2454 2.34205 31.1728 3.54692 31.7481 4.92778L31.7346 4.91425Z" fill="#ED701F"/>
</svg>
