<?xml version="1.0" encoding="UTF-8"?>
<!DOCTYPE svg PUBLIC "-//W3C//DTD SVG 1.1//EN" "http://www.w3.org/Graphics/SVG/1.1/DTD/svg11.dtd">
<!-- Creator: CorelDRAW -->
<svg xmlns="http://www.w3.org/2000/svg" xml:space="preserve" width="12.9969mm" height="12.5554mm" version="1.1" style="shape-rendering:geometricPrecision; text-rendering:geometricPrecision; image-rendering:optimizeQuality; fill-rule:evenodd; clip-rule:evenodd"
viewBox="0 0 72.57 70.1"
 xmlns:xlink="http://www.w3.org/1999/xlink"
 xmlns:xodm="http://www.corel.com/coreldraw/odm/2003">
 <defs>
  <style type="text/css">
   <![CDATA[
    .fil0 {fill:#ED701F}
   ]]>
  </style>
 </defs>
 <g id="Слой_x0020_1">
  <metadata id="CorelCorpID_0Corel-Layer"/>
  <path class="fil0" d="M46.9 7.28l4.15 9.95 10.76 0.88c2.2,0.18 4.32,0.93 6.1,2.22 1.87,1.36 3.32,3.25 4.1,5.64 0.78,2.39 0.72,4.77 0,6.96 -0.68,2.1 -1.93,3.93 -3.56,5.34l-8.14 7.09 2.4 10.6c0.48,2.1 0.42,4.29 -0.25,6.35 -0.72,2.23 -2.06,4.2 -4.09,5.67 -2.01,1.46 -4.29,2.13 -6.62,2.13 -2.19,-0 -4.32,-0.63 -6.19,-1.77l-9.26 -5.62 -9.26 5.62c-1.87,1.14 -4.01,1.77 -6.19,1.77 -2.33,0 -4.61,-0.67 -6.62,-2.13 -2.03,-1.48 -3.37,-3.44 -4.09,-5.66 -0.66,-2.04 -0.72,-4.22 -0.25,-6.32l2.37 -10.65 -8.12 -7.1c-1.64,-1.43 -2.89,-3.25 -3.56,-5.31 -0.72,-2.19 -0.78,-4.56 0,-6.96 0.78,-2.39 2.22,-4.28 4.1,-5.64 1.78,-1.29 3.88,-2.04 6.07,-2.22l10.69 -0.88 4.28 -10.01c0.85,-1.98 2.2,-3.73 3.97,-5.02 1.9,-1.38 4.13,-2.19 6.61,-2.19 2.47,0 4.7,0.8 6.6,2.18l0.02 -0.02c1.78,1.3 3.15,3.08 4,5.12zm-7.72 3.21l6.11 14.67 15.86 1.3c1.34,0.11 2.49,0.83 2.9,2.1 0.42,1.28 -0.1,2.53 -1.11,3.41l-11.9 10.35 3.51 15.48c0.3,1.31 -0.02,2.62 -1.1,3.41 -1.09,0.79 -2.44,0.69 -3.58,-0l-13.58 -8.24 -13.58 8.24c-1.15,0.7 -2.5,0.79 -3.58,0 -1.09,-0.79 -1.4,-2.1 -1.1,-3.41l3.45 -15.48 -11.84 -10.35c-1.01,-0.88 -1.53,-2.13 -1.11,-3.41 0.41,-1.28 1.56,-1.99 2.9,-2.1l15.7 -1.3 6.27 -14.67c0.53,-1.24 1.55,-2.11 2.9,-2.11 1.34,0 2.38,0.87 2.9,2.11z"/>
 </g>
</svg>
