<?xml version="1.0" encoding="UTF-8"?>
<!DOCTYPE svg PUBLIC "-//W3C//DTD SVG 1.1//EN" "http://www.w3.org/Graphics/SVG/1.1/DTD/svg11.dtd">
<!-- Creator: CorelDRAW -->
<svg xmlns="http://www.w3.org/2000/svg" xml:space="preserve" width="9.3769mm" height="9.0314mm" version="1.1" style="shape-rendering:geometricPrecision; text-rendering:geometricPrecision; image-rendering:optimizeQuality; fill-rule:evenodd; clip-rule:evenodd"
viewBox="0 0 1.89 1.82"
 xmlns:xlink="http://www.w3.org/1999/xlink"
 xmlns:xodm="http://www.corel.com/coreldraw/odm/2003">
 <defs>
  <style type="text/css">
   <![CDATA[
    .fil0 {fill:white}
   ]]>
  </style>
 </defs>
 <g id="Слой_x0020_1">
  <metadata id="CorelCorpID_0Corel-Layer"/>
  <g>
   <path class="fil0" d="M1.17 0.15l0.14 0.33 0.36 0.03c0.05,0 0.09,0.02 0.13,0.05 0.04,0.03 0.07,0.07 0.08,0.12l0 -0c0.02,0.05 0.01,0.1 0,0.14 -0.01,0.04 -0.04,0.08 -0.08,0.11l-0.27 0.24 0.08 0.35c0.01,0.04 0.01,0.09 -0.01,0.13 -0.01,0.05 -0.04,0.09 -0.08,0.12 -0.04,0.03 -0.09,0.04 -0.14,0.04 -0.05,-0 -0.09,-0.01 -0.13,-0.04l-0.31 -0.19 -0.31 0.19c-0.04,0.02 -0.09,0.04 -0.13,0.04l0 -0c-0.05,0 -0.1,-0.01 -0.14,-0.04 -0.04,-0.03 -0.07,-0.07 -0.08,-0.12 -0,-0 -0,-0.01 -0,-0.01 -0.01,-0.04 -0.01,-0.08 -0,-0.12l0.08 -0.35 -0.27 -0.24c-0.04,-0.03 -0.06,-0.07 -0.08,-0.11 -0.01,-0.05 -0.02,-0.09 0,-0.14 0.02,-0.05 0.05,-0.09 0.08,-0.12 0.04,-0.03 0.08,-0.04 0.13,-0.05l0.36 -0.03 0.14 -0.33c0.02,-0.04 0.05,-0.08 0.08,-0.11 0.04,-0.03 0.09,-0.05 0.14,-0.05 0.05,0 0.1,0.02 0.14,0.05l0 -0c0.04,0.03 0.07,0.06 0.08,0.11zm-0.14 0.06l0.17 0.42 0.45 0.04c0.04,0 0.07,0.02 0.08,0.06 0.01,0.04 -0,0.07 -0.03,0.1l-0.34 0.29 0.1 0.44c0.01,0.04 -0,0.07 -0.03,0.1 -0.03,0.02 -0.07,0.02 -0.1,-0l-0.39 -0.23 -0.39 0.23c-0.03,0.02 -0.07,0.02 -0.1,0 -0.03,-0.02 -0.04,-0.06 -0.03,-0.1l0.1 -0.44 -0.34 -0.29c-0.03,-0.03 -0.04,-0.06 -0.03,-0.1 0.01,-0.04 0.04,-0.06 0.08,-0.06l0.45 -0.04 0.18 -0.42c0.01,-0.04 0.04,-0.06 0.08,-0.06 0.04,0 0.07,0.02 0.08,0.06z"/>
  </g>
 </g>
</svg>
