<?xml version="1.0" encoding="UTF-8"?>
<!DOCTYPE svg PUBLIC "-//W3C//DTD SVG 1.1//EN" "http://www.w3.org/Graphics/SVG/1.1/DTD/svg11.dtd">
<!-- Creator: CorelDRAW -->
<svg xmlns="http://www.w3.org/2000/svg" xml:space="preserve" width="6.4731mm" height="6.1856mm" version="1.1" style="shape-rendering:geometricPrecision; text-rendering:geometricPrecision; image-rendering:optimizeQuality; fill-rule:evenodd; clip-rule:evenodd"
viewBox="0 0 75.43 72.08"
 xmlns:xlink="http://www.w3.org/1999/xlink"
 xmlns:xodm="http://www.corel.com/coreldraw/odm/2003">
 <defs>
  <style type="text/css">
   <![CDATA[
    .fil0 {fill:#EDB918}
   ]]>
  </style>
 </defs>
 <g id="Слой_x0020_1">
  <metadata id="CorelCorpID_0Corel-Layer"/>
  <path class="fil0" d="M41.05 2.43l6.47 20.03c0.48,1.48 1.79,2.43 3.35,2.43l21.05 -0.04c1.55,-0 2.86,0.95 3.34,2.42 0.48,1.47 -0.03,3.02 -1.28,3.92l-17.05 12.34c-1.26,0.91 -1.76,2.46 -1.28,3.93l6.54 20c0.48,1.47 -0.02,3.02 -1.27,3.93 -1.25,0.91 -2.88,0.91 -4.13,-0l-17 -12.4c-1.25,-0.91 -2.88,-0.91 -4.13,0l-17 12.4c-1.25,0.91 -2.88,0.91 -4.13,0 -1.25,-0.91 -1.75,-2.46 -1.27,-3.93l6.54 -20c0.48,-1.47 -0.02,-3.02 -1.28,-3.93l-17.05 -12.34c-1.25,-0.91 -1.76,-2.45 -1.28,-3.92 0.48,-1.47 1.79,-2.43 3.34,-2.42l21.05 0.04c1.55,0 2.87,-0.96 3.35,-2.43l6.47 -20.03c0.48,-1.47 1.79,-2.43 3.34,-2.43 1.55,0 2.86,0.96 3.34,2.43z"/>
 </g>
</svg>
