<?xml version="1.0" encoding="UTF-8"?>
<!DOCTYPE svg PUBLIC "-//W3C//DTD SVG 1.1//EN" "http://www.w3.org/Graphics/SVG/1.1/DTD/svg11.dtd">
<!-- Creator: CorelDRAW -->
<svg xmlns="http://www.w3.org/2000/svg" xml:space="preserve" width="10.2339mm" height="10.229mm" version="1.1" style="shape-rendering:geometricPrecision; text-rendering:geometricPrecision; image-rendering:optimizeQuality; fill-rule:evenodd; clip-rule:evenodd"
viewBox="0 0 1.57 1.57"
 xmlns:xlink="http://www.w3.org/1999/xlink"
 xmlns:xodm="http://www.corel.com/coreldraw/odm/2003">
 <defs>
  <style type="text/css">
   <![CDATA[
    .fil0 {fill:#EDB918}
    .fil1 {fill:#F7F7F7}
   ]]>
  </style>
 </defs>
 <g id="Слой_x0020_1">
  <metadata id="CorelCorpID_0Corel-Layer"/>
  <g id="_105553267495200">
   <path class="fil0" d="M1.09 0.47c0.05,-0.01 0.06,0.03 0.05,0.07 -0,0.04 -0.01,0.08 -0.01,0.12 -0.02,0.11 -0.03,0.23 -0.05,0.34 -0.01,0.07 -0.02,0.18 -0.08,0.18 -0.03,-0 -0.07,-0.03 -0.09,-0.04 -0.02,-0.02 -0.05,-0.03 -0.08,-0.05 -0.03,-0.02 -0.05,-0.03 -0.08,-0.05 -0.04,-0.03 -0.11,-0.06 -0.08,-0.1l0.13 -0.13c0.01,-0.01 0.01,-0.01 0.02,-0.02l0.03 -0.03c0.02,-0.01 0.07,-0.07 0.08,-0.08 0.01,-0.02 -0,-0.03 -0.03,-0.02 -0.03,0.02 -0.05,0.03 -0.08,0.05 -0.03,0.02 -0.05,0.03 -0.08,0.05 -0.05,0.04 -0.1,0.07 -0.16,0.1 -0.08,0.05 -0.11,0.04 -0.2,0.01 -0.06,-0.02 -0.17,-0.05 -0.04,-0.1 0.12,-0.05 0.24,-0.11 0.36,-0.16 0.06,-0.03 0.31,-0.14 0.37,-0.15zm-1.09 0.35c0.01,0.17 0.06,0.31 0.16,0.43l0.04 0.05c0.01,0.01 0.03,0.04 0.05,0.05 0,0 0.01,0.01 0.01,0.01 0.06,0.06 0.16,0.11 0.23,0.14 0.1,0.04 0.21,0.06 0.33,0.06 0.18,-0.01 0.33,-0.07 0.46,-0.18l0.05 -0.05c0.04,-0.04 0.08,-0.08 0.11,-0.13 0.15,-0.23 0.17,-0.53 0.04,-0.77 -0.04,-0.07 -0.1,-0.17 -0.17,-0.22 -0,-0 -0.01,-0.01 -0.01,-0.01 -0.01,-0.01 -0.01,-0.01 -0.01,-0.01 -0.06,-0.06 -0.13,-0.1 -0.21,-0.13 -0.1,-0.04 -0.21,-0.06 -0.33,-0.06 -0.17,0.01 -0.3,0.06 -0.43,0.16l-0.05 0.04 -0.09 0.1c-0.04,0.05 -0.08,0.13 -0.11,0.19 -0.04,0.09 -0.07,0.23 -0.06,0.33z"/>
   <path class="fil1" d="M1.09 0.47c-0.06,0.01 -0.31,0.12 -0.37,0.15 -0.12,0.05 -0.24,0.1 -0.36,0.16 -0.13,0.05 -0.03,0.08 0.04,0.1 0.09,0.03 0.13,0.04 0.2,-0.01 0.05,-0.04 0.1,-0.07 0.16,-0.1 0.03,-0.02 0.05,-0.03 0.08,-0.05 0.03,-0.02 0.05,-0.03 0.08,-0.05 0.02,-0.01 0.04,-0 0.03,0.02 -0.01,0.02 -0.07,0.07 -0.08,0.08l-0.03 0.03c-0.01,0.01 -0.01,0.01 -0.02,0.02l-0.13 0.13c-0.03,0.05 0.04,0.08 0.08,0.1 0.03,0.02 0.05,0.03 0.08,0.05 0.03,0.02 0.05,0.03 0.08,0.05 0.02,0.01 0.05,0.04 0.09,0.04 0.06,0 0.07,-0.12 0.08,-0.18 0.02,-0.11 0.04,-0.23 0.05,-0.34 0.01,-0.04 0.01,-0.08 0.01,-0.12 0,-0.04 -0,-0.08 -0.05,-0.07z"/>
  </g>
 </g>
</svg>
