<?xml version="1.0" encoding="UTF-8"?>
<!DOCTYPE svg PUBLIC "-//W3C//DTD SVG 1.1//EN" "http://www.w3.org/Graphics/SVG/1.1/DTD/svg11.dtd">
<!-- Creator: CorelDRAW -->
<svg xmlns="http://www.w3.org/2000/svg" xml:space="preserve" width="6.8258mm" height="5.4164mm" version="1.1" style="shape-rendering:geometricPrecision; text-rendering:geometricPrecision; image-rendering:optimizeQuality; fill-rule:evenodd; clip-rule:evenodd"
viewBox="0 0 1.72 1.37"
 xmlns:xlink="http://www.w3.org/1999/xlink"
 xmlns:xodm="http://www.corel.com/coreldraw/odm/2003">
 <defs>
  <style type="text/css">
   <![CDATA[
    .fil0 {fill:white;fill-rule:nonzero}
   ]]>
  </style>
 </defs>
 <g id="Слой_x0020_1">
  <metadata id="CorelCorpID_0Corel-Layer"/>
  <path class="fil0" d="M0.18 0.19l0 -0.07c0,-0 0,-0.01 0,-0.01l0 -0.01c0,-0.04 0.02,-0.1 0.11,-0.09 0.09,0 0.17,0.01 0.26,0.03 0.08,0.02 0.16,0.06 0.24,0.11 0,0 0.01,0 0.01,0.01 0.02,0.02 0.03,0.03 0.04,0.04 0.01,0.01 0.01,0.02 0.02,0.02 0.01,-0 0.01,-0.01 0.02,-0.02 0.01,-0.01 0.02,-0.03 0.04,-0.04l0 -0c0.08,-0.05 0.16,-0.09 0.24,-0.11 0.08,-0.02 0.16,-0.03 0.26,-0.03 0.09,-0 0.11,0.05 0.11,0.09l0 0.01c0,0 0,0.01 0,0.01l0 0.07 0.08 0 0.01 0c0.02,0 0.04,0.01 0.06,0.03 0.01,0.01 0.02,0.03 0.03,0.05 0,0.01 0,0.01 0,0.02l0 0.77c0,0.01 0,0.03 0,0.04 0,0.07 0.01,0.18 -0.02,0.23 -0,0 -0,0.01 -0.01,0.01l-0.01 0.01c-0.01,0.01 -0.03,0.02 -0.05,0.02l-0.01 0c-0.02,0 -0.02,0 -0.04,-0.01l-0.03 -0c-0.19,-0.03 -0.35,-0.06 -0.55,-0.03 -0,0 -0.01,0 -0.02,0l-0.03 0c-0.02,-0 -0.03,-0.01 -0.04,-0.02l-0.01 -0.01 -0 -0c-0.01,0 -0.02,0 -0.03,0l-0 0c-0.01,0 -0.02,0 -0.04,0 -0,0 -0.01,0 -0.01,-0 -0.01,-0 -0.03,-0 -0.04,-0 -0.01,-0 -0.02,-0 -0.03,-0l-0 0c-0.01,0.01 -0.03,0.02 -0.05,0.02l-0.03 0 -0.01 -0c-0.2,-0.03 -0.36,-0 -0.55,0.03l-0.03 0c-0.02,0.01 -0.03,0.01 -0.04,0.01l-0 -0c-0.02,0 -0.04,-0.01 -0.05,-0.02 -0.04,-0.04 -0.03,-0.17 -0.03,-0.25 0,-0.02 0,-0.03 0,-0.04l0 -0.77 0 -0.01c0,-0.03 0.01,-0.04 0.03,-0.06l0 -0c0.01,-0.01 0.03,-0.02 0.05,-0.02 0.01,-0 0.01,-0 0.02,-0l0.08 0zm1.24 0.06l0 -0.12c-0.08,0 -0.15,0.01 -0.21,0.03 -0.07,0.02 -0.13,0.05 -0.2,0.09 -0.01,0.01 -0.02,0.02 -0.03,0.03 -0.02,0.02 -0.03,0.04 -0.05,0.05l0 0.86 0 -0c0.06,-0.08 0.13,-0.13 0.21,-0.16 0.08,-0.03 0.18,-0.03 0.28,-0.03 0,-0.1 0,-0.45 0,-0.63l-0 -0.11zm-0.62 0.93l0 -0.86c-0.02,-0.01 -0.04,-0.03 -0.05,-0.05 -0.01,-0.01 -0.02,-0.02 -0.03,-0.03 -0.07,-0.05 -0.13,-0.08 -0.2,-0.09 -0.06,-0.02 -0.13,-0.03 -0.21,-0.03l0 0.12 -0 0.11c-0,0.19 -0,0.53 0,0.63 0.1,-0 0.19,0 0.28,0.03 0.08,0.03 0.15,0.07 0.21,0.16l0 0zm0.28 0.02c0.18,-0.02 0.33,0.01 0.51,0.03l0.01 0c-0,-0.03 -0,-0.09 -0,-0.14l-0 -0.05 0 -0.74 -0.05 0 0 0.05c0,0.22 0,0.64 -0,0.68 -0.01,0.08 -0.07,0.08 -0.12,0.08l-0.01 -0c-0.09,-0 -0.17,-0 -0.24,0.02 -0.03,0.01 -0.07,0.03 -0.1,0.05zm-0.44 0c-0.03,-0.02 -0.06,-0.04 -0.1,-0.05 -0.07,-0.02 -0.15,-0.02 -0.24,-0.02l-0.01 0c-0.05,0 -0.1,0.01 -0.12,-0.08 -0.01,-0.04 -0.01,-0.47 -0,-0.68l0 -0.05 -0.05 0 0 0.74 -0 0.05c-0,0.04 -0,0.1 -0,0.14l0.01 -0c0.18,-0.03 0.33,-0.05 0.51,-0.03z"/>
 </g>
</svg>
