<svg xmlns="http://www.w3.org/2000/svg" xmlns:xlink="http://www.w3.org/1999/xlink" width="113" zoomAndPan="magnify" viewBox="0 0 84.75 84.749999" height="113" preserveAspectRatio="xMidYMid meet" version="1.0"><defs><g/><clipPath id="97fde8624e"><path d="M 25 0.0078125 L 43 0.0078125 L 43 34 L 25 34 Z M 25 0.0078125 " clip-rule="nonzero"/></clipPath><clipPath id="cf2a7cec23"><path d="M 25.675781 34 L 25.1875 0.464844 L 42.324219 0.214844 L 42.816406 33.75 Z M 25.675781 34 " clip-rule="nonzero"/></clipPath><clipPath id="1e60adaf87"><path d="M 25.675781 34 L 25.1875 0.464844 L 42.324219 0.214844 L 42.816406 33.75 Z M 25.675781 34 " clip-rule="nonzero"/></clipPath><clipPath id="93c6885953"><path d="M 3 29 L 77 29 L 77 58 L 3 58 Z M 3 29 " clip-rule="nonzero"/></clipPath><clipPath id="270abe39af"><path d="M 3.371094 33.582031 L 75.644531 29.363281 L 77.078125 53.898438 L 4.804688 58.121094 Z M 3.371094 33.582031 " clip-rule="nonzero"/></clipPath><clipPath id="6b5589649a"><path d="M 7.09375 33.363281 L 71.84375 29.582031 C 73.898438 29.464844 75.660156 31.03125 75.78125 33.085938 L 76.78125 50.183594 C 76.898438 52.238281 75.332031 54 73.277344 54.121094 L 8.523438 57.902344 C 6.46875 58.023438 4.707031 56.453125 4.585938 54.398438 L 3.589844 37.300781 C 3.46875 35.246094 5.039062 33.484375 7.09375 33.363281 Z M 7.09375 33.363281 " clip-rule="nonzero"/></clipPath><clipPath id="f04b9730ea"><path d="M 0.460938 0.441406 L 73.925781 0.441406 L 73.925781 29 L 0.460938 29 Z M 0.460938 0.441406 " clip-rule="nonzero"/></clipPath><clipPath id="98c6386cc3"><path d="M 0.371094 4.582031 L 72.644531 0.363281 L 74.078125 24.898438 L 1.804688 29.121094 Z M 0.371094 4.582031 " clip-rule="nonzero"/></clipPath><clipPath id="db83ee2044"><path d="M 4.09375 4.363281 L 68.84375 0.582031 C 70.898438 0.464844 72.660156 2.03125 72.78125 4.085938 L 73.78125 21.183594 C 73.898438 23.238281 72.332031 25 70.277344 25.121094 L 5.523438 28.902344 C 3.46875 29.023438 1.707031 27.453125 1.585938 25.398438 L 0.589844 8.300781 C 0.46875 6.246094 2.039062 4.484375 4.09375 4.363281 Z M 4.09375 4.363281 " clip-rule="nonzero"/></clipPath><clipPath id="0061852e43"><rect x="0" width="74" y="0" height="29"/></clipPath><clipPath id="d3f70379f9"><path d="M 3 29 L 77 29 L 77 58 L 3 58 Z M 3 29 " clip-rule="nonzero"/></clipPath><clipPath id="63cee6ab9b"><path d="M 3.371094 33.582031 L 75.539062 29.367188 L 76.972656 53.917969 L 4.804688 58.132812 Z M 3.371094 33.582031 " clip-rule="nonzero"/></clipPath><clipPath id="5165b4d5d0"><path d="M 3.386719 33.582031 L 76.058594 29.335938 L 77.503906 54.0625 L 4.828125 58.304688 Z M 3.386719 33.582031 " clip-rule="nonzero"/></clipPath><clipPath id="11d3b1e5a4"><path d="M 7.105469 33.363281 L 71.832031 29.585938 C 73.882812 29.464844 75.644531 31.03125 75.765625 33.085938 L 76.761719 50.175781 C 76.882812 52.230469 75.316406 53.992188 73.261719 54.113281 L 8.535156 57.890625 C 6.480469 58.011719 4.71875 56.445312 4.601562 54.390625 L 3.601562 37.300781 C 3.484375 35.246094 5.050781 33.484375 7.105469 33.363281 Z M 7.105469 33.363281 " clip-rule="nonzero"/></clipPath><clipPath id="b9f664fdb7"><rect x="0" width="58" y="0" height="18"/></clipPath><clipPath id="c80b5fe8bf"><path d="M 50 1 L 52.632812 1 L 52.632812 5 L 50 5 Z M 50 1 " clip-rule="nonzero"/></clipPath><clipPath id="5a792fdb60"><rect x="0" width="53" y="0" height="8"/></clipPath><clipPath id="dfbf36aa17"><rect x="0" width="81" y="0" height="62"/></clipPath></defs><g transform="matrix(1, 0, 0, 1, 3, 11)"><g clip-path="url(#dfbf36aa17)"><g clip-path="url(#97fde8624e)"><g clip-path="url(#cf2a7cec23)"><g clip-path="url(#1e60adaf87)"><path fill="#553602" d="M 25.1875 0.414062 C 25.191406 0.503906 25.242188 0.550781 25.335938 0.546875 C 25.335938 0.546875 26.90625 0.46875 28.847656 1.394531 C 30.789062 2.324219 33.085938 4.253906 34.511719 8.304688 C 34.714844 8.882812 34.859375 9.402344 34.960938 9.882812 C 34.316406 9.589844 33.613281 9.460938 32.964844 9.578125 C 32.167969 9.71875 31.457031 10.242188 31.085938 11.238281 C 30.710938 12.234375 30.9375 13.097656 31.449219 13.667969 C 31.960938 14.238281 32.746094 14.523438 33.492188 14.40625 C 34.238281 14.292969 34.941406 13.765625 35.253906 12.757812 C 35.441406 12.152344 35.488281 11.371094 35.34375 10.402344 C 36.011719 10.820312 36.574219 11.429688 36.839844 12.113281 C 37.117188 12.824219 37.089844 13.605469 36.550781 14.375 C 35.402344 16.011719 34.988281 17.511719 35.257812 18.695312 C 35.53125 19.875 36.496094 20.707031 38 20.96875 C 38.722656 21.09375 39.320312 21.265625 39.769531 21.527344 C 40.222656 21.789062 40.527344 22.132812 40.691406 22.617188 C 41.023438 23.589844 40.765625 25.179688 39.703125 27.746094 C 39.164062 29.054688 39.085938 30.09375 39.285156 30.914062 C 39.488281 31.734375 39.964844 32.324219 40.507812 32.742188 C 41.589844 33.574219 42.933594 33.734375 42.933594 33.734375 C 43.023438 33.746094 43.078125 33.707031 43.085938 33.613281 C 43.097656 33.519531 43.058594 33.46875 42.964844 33.457031 C 42.964844 33.457031 41.6875 33.296875 40.679688 32.519531 C 40.175781 32.132812 39.742188 31.597656 39.558594 30.847656 C 39.375 30.097656 39.4375 29.125 39.964844 27.855469 C 41.03125 25.265625 41.332031 23.625 40.957031 22.527344 C 40.769531 21.976562 40.40625 21.574219 39.910156 21.285156 C 39.414062 21 38.789062 20.820312 38.046875 20.691406 C 36.621094 20.445312 35.777344 19.703125 35.53125 18.632812 C 35.285156 17.5625 35.660156 16.132812 36.777344 14.539062 C 37.371094 13.695312 37.40625 12.792969 37.101562 12.011719 C 36.792969 11.226562 36.15625 10.554688 35.398438 10.105469 C 35.359375 10.082031 35.316406 10.0625 35.277344 10.039062 C 35.171875 9.488281 35.011719 8.886719 34.777344 8.214844 C 33.328125 4.097656 30.96875 2.101562 28.96875 1.144531 C 26.96875 0.1875 25.320312 0.265625 25.320312 0.265625 C 25.226562 0.269531 25.183594 0.320312 25.1875 0.414062 Z M 31.175781 12.285156 C 31.167969 11.996094 31.21875 11.675781 31.347656 11.335938 C 31.691406 10.417969 32.304688 9.976562 33.015625 9.851562 C 33.652344 9.738281 34.375 9.890625 35.027344 10.222656 C 35.214844 11.265625 35.171875 12.078125 34.988281 12.675781 C 34.703125 13.597656 34.097656 14.03125 33.449219 14.132812 C 32.800781 14.230469 32.101562 13.976562 31.65625 13.480469 C 31.378906 13.167969 31.191406 12.765625 31.175781 12.285156 Z M 31.175781 12.285156 " fill-opacity="1" fill-rule="nonzero"/></g></g></g><g clip-path="url(#93c6885953)"><g clip-path="url(#270abe39af)"><g clip-path="url(#6b5589649a)"><g transform="matrix(1, 0, 0, 1, 3, 29)"><g clip-path="url(#0061852e43)"><g clip-path="url(#f04b9730ea)"><g clip-path="url(#98c6386cc3)"><g clip-path="url(#db83ee2044)"><path fill="#f9eed8" d="M 0.371094 4.582031 L 72.546875 0.367188 L 73.980469 24.90625 L 1.804688 29.121094 Z M 0.371094 4.582031 " fill-opacity="1" fill-rule="nonzero"/></g></g></g></g></g></g></g></g><g clip-path="url(#d3f70379f9)"><g clip-path="url(#63cee6ab9b)"><g clip-path="url(#5165b4d5d0)"><g clip-path="url(#11d3b1e5a4)"><path stroke-linecap="butt" transform="matrix(0.743982, -0.0434419, 0.0434419, 0.743982, 3.385343, 33.580641)" fill="none" stroke-linejoin="miter" d="M 5.000299 -0.000183793 L 92.000278 0.002643 C 94.756876 0.000839414 96.994267 2.236918 96.995765 4.998748 L 96.993352 27.969376 C 96.994851 30.731206 94.758772 32.968597 91.996942 32.970095 L 4.996963 32.967268 C 2.235133 32.968766 -0.0022583 30.732687 0.00147627 27.971163 L -0.0013442 5.00023 C 0.00239037 2.238705 2.238469 0.00131426 5.000299 -0.000183793 Z M 5.000299 -0.000183793 " stroke="#553602" stroke-width="2" stroke-opacity="1" stroke-miterlimit="4"/></g></g></g></g><g transform="matrix(1, 0, 0, 1, 11, 33)"><g clip-path="url(#b9f664fdb7)"><g fill="#553602" fill-opacity="1"><g transform="translate(3.966623, 6.386937)"><g><path d="M 2.53125 -0.140625 L 2.453125 -1.609375 L 1.796875 -0.375 L 1.546875 -0.359375 L 0.765625 -1.484375 L 0.84375 -0.046875 L 0.296875 -0.015625 L 0.15625 -2.46875 L 0.640625 -2.5 L 1.640625 -1.015625 L 2.453125 -2.609375 L 2.921875 -2.625 L 3.0625 -0.171875 Z M 2.53125 -0.140625 "/></g></g></g><g fill="#553602" fill-opacity="1"><g transform="translate(7.29668, 6.192492)"><g><path d="M 1.171875 -1.359375 C 1.421875 -1.367188 1.609375 -1.320312 1.734375 -1.21875 C 1.867188 -1.113281 1.945312 -0.960938 1.96875 -0.765625 C 1.976562 -0.554688 1.914062 -0.390625 1.78125 -0.265625 C 1.644531 -0.148438 1.441406 -0.0820312 1.171875 -0.0625 L 0.265625 -0.015625 L 0.15625 -1.90625 L 0.703125 -1.9375 L 0.734375 -1.328125 Z M 2.09375 -2.015625 L 2.640625 -2.046875 L 2.75 -0.15625 L 2.203125 -0.125 Z M 1.109375 -0.453125 C 1.210938 -0.453125 1.289062 -0.472656 1.34375 -0.515625 C 1.394531 -0.566406 1.421875 -0.640625 1.421875 -0.734375 C 1.410156 -0.828125 1.378906 -0.894531 1.328125 -0.9375 C 1.273438 -0.976562 1.191406 -0.992188 1.078125 -0.984375 L 0.765625 -0.984375 L 0.796875 -0.4375 Z M 1.109375 -0.453125 "/></g></g></g><g fill="#553602" fill-opacity="1"><g transform="translate(10.26333, 6.019266)"><g/></g></g><g fill="#553602" fill-opacity="1"><g transform="translate(11.217267, 5.963564)"><g><path d="M 1.140625 -0.03125 C 0.941406 -0.0195312 0.757812 -0.0507812 0.59375 -0.125 C 0.4375 -0.195312 0.3125 -0.300781 0.21875 -0.4375 C 0.125 -0.582031 0.0703125 -0.75 0.0625 -0.9375 C 0.0390625 -1.125 0.0703125 -1.289062 0.15625 -1.4375 C 0.238281 -1.59375 0.351562 -1.71875 0.5 -1.8125 C 0.65625 -1.90625 0.832031 -1.957031 1.03125 -1.96875 C 1.238281 -1.976562 1.421875 -1.945312 1.578125 -1.875 C 1.742188 -1.800781 1.875 -1.691406 1.96875 -1.546875 C 2.0625 -1.410156 2.117188 -1.25 2.140625 -1.0625 C 2.148438 -0.875 2.113281 -0.703125 2.03125 -0.546875 C 1.945312 -0.398438 1.828125 -0.28125 1.671875 -0.1875 C 1.523438 -0.09375 1.347656 -0.0390625 1.140625 -0.03125 Z M 1.109375 -0.484375 C 1.253906 -0.492188 1.367188 -0.546875 1.453125 -0.640625 C 1.535156 -0.742188 1.578125 -0.875 1.578125 -1.03125 C 1.566406 -1.1875 1.515625 -1.3125 1.421875 -1.40625 C 1.328125 -1.5 1.207031 -1.539062 1.0625 -1.53125 C 0.925781 -1.519531 0.816406 -1.460938 0.734375 -1.359375 C 0.648438 -1.265625 0.613281 -1.140625 0.625 -0.984375 C 0.625 -0.828125 0.671875 -0.703125 0.765625 -0.609375 C 0.859375 -0.515625 0.972656 -0.472656 1.109375 -0.484375 Z M 1.109375 -0.484375 "/></g></g></g><g fill="#553602" fill-opacity="1"><g transform="translate(13.467586, 5.832166)"><g><path d="M 1.234375 -1.828125 C 1.421875 -1.835938 1.582031 -1.8125 1.71875 -1.75 C 1.863281 -1.6875 1.976562 -1.585938 2.0625 -1.453125 C 2.144531 -1.328125 2.191406 -1.175781 2.203125 -1 C 2.210938 -0.820312 2.175781 -0.660156 2.09375 -0.515625 C 2.007812 -0.367188 1.890625 -0.253906 1.734375 -0.171875 C 1.585938 -0.0859375 1.414062 -0.0390625 1.21875 -0.03125 C 0.882812 -0.0078125 0.617188 -0.0976562 0.421875 -0.296875 C 0.222656 -0.503906 0.113281 -0.8125 0.09375 -1.21875 C 0.0625 -1.59375 0.125 -1.894531 0.28125 -2.125 C 0.4375 -2.363281 0.679688 -2.523438 1.015625 -2.609375 L 1.90625 -2.859375 L 2.015625 -2.390625 L 1.21875 -2.1875 C 1 -2.132812 0.835938 -2.054688 0.734375 -1.953125 C 0.640625 -1.847656 0.59375 -1.707031 0.59375 -1.53125 C 0.675781 -1.613281 0.769531 -1.679688 0.875 -1.734375 C 0.976562 -1.785156 1.097656 -1.816406 1.234375 -1.828125 Z M 1.203125 -0.453125 C 1.347656 -0.453125 1.457031 -0.5 1.53125 -0.59375 C 1.613281 -0.695312 1.648438 -0.816406 1.640625 -0.953125 C 1.628906 -1.097656 1.578125 -1.207031 1.484375 -1.28125 C 1.398438 -1.363281 1.285156 -1.40625 1.140625 -1.40625 C 1.003906 -1.394531 0.894531 -1.34375 0.8125 -1.25 C 0.726562 -1.164062 0.691406 -1.050781 0.703125 -0.90625 C 0.710938 -0.769531 0.765625 -0.65625 0.859375 -0.5625 C 0.953125 -0.476562 1.066406 -0.441406 1.203125 -0.453125 Z M 1.203125 -0.453125 "/></g></g></g><g fill="#553602" fill-opacity="1"><g transform="translate(15.784298, 5.69689)"><g><path d="M 0.15625 -1.90625 L 0.703125 -1.9375 L 0.75 -1.1875 L 1.5625 -1.234375 L 1.515625 -1.984375 L 2.0625 -2.015625 L 2.171875 -0.125 L 1.625 -0.09375 L 1.578125 -0.796875 L 0.765625 -0.75 L 0.8125 -0.046875 L 0.265625 -0.015625 Z M 0.15625 -1.90625 "/></g></g></g><g fill="#553602" fill-opacity="1"><g transform="translate(18.174389, 5.55733)"><g><path d="M 1.140625 -0.03125 C 0.941406 -0.0195312 0.757812 -0.0507812 0.59375 -0.125 C 0.4375 -0.195312 0.3125 -0.300781 0.21875 -0.4375 C 0.125 -0.582031 0.0703125 -0.75 0.0625 -0.9375 C 0.0390625 -1.125 0.0703125 -1.289062 0.15625 -1.4375 C 0.238281 -1.59375 0.351562 -1.71875 0.5 -1.8125 C 0.65625 -1.90625 0.832031 -1.957031 1.03125 -1.96875 C 1.238281 -1.976562 1.421875 -1.945312 1.578125 -1.875 C 1.742188 -1.800781 1.875 -1.691406 1.96875 -1.546875 C 2.0625 -1.410156 2.117188 -1.25 2.140625 -1.0625 C 2.148438 -0.875 2.113281 -0.703125 2.03125 -0.546875 C 1.945312 -0.398438 1.828125 -0.28125 1.671875 -0.1875 C 1.523438 -0.09375 1.347656 -0.0390625 1.140625 -0.03125 Z M 1.109375 -0.484375 C 1.253906 -0.492188 1.367188 -0.546875 1.453125 -0.640625 C 1.535156 -0.742188 1.578125 -0.875 1.578125 -1.03125 C 1.566406 -1.1875 1.515625 -1.3125 1.421875 -1.40625 C 1.328125 -1.5 1.207031 -1.539062 1.0625 -1.53125 C 0.925781 -1.519531 0.816406 -1.460938 0.734375 -1.359375 C 0.648438 -1.265625 0.613281 -1.140625 0.625 -0.984375 C 0.625 -0.828125 0.671875 -0.703125 0.765625 -0.609375 C 0.859375 -0.515625 0.972656 -0.472656 1.109375 -0.484375 Z M 1.109375 -0.484375 "/></g></g></g><g fill="#553602" fill-opacity="1"><g transform="translate(20.424708, 5.425932)"><g><path d="M 1.640625 -1.078125 C 1.867188 -1.023438 1.988281 -0.882812 2 -0.65625 C 2.007812 -0.488281 1.953125 -0.351562 1.828125 -0.25 C 1.710938 -0.144531 1.523438 -0.0859375 1.265625 -0.078125 L 0.265625 -0.015625 L 0.15625 -1.90625 L 1.109375 -1.96875 C 1.347656 -1.976562 1.535156 -1.941406 1.671875 -1.859375 C 1.816406 -1.773438 1.894531 -1.65625 1.90625 -1.5 C 1.90625 -1.40625 1.878906 -1.320312 1.828125 -1.25 C 1.785156 -1.1875 1.722656 -1.128906 1.640625 -1.078125 Z M 0.703125 -1.15625 L 1.109375 -1.171875 C 1.304688 -1.179688 1.398438 -1.253906 1.390625 -1.390625 C 1.378906 -1.523438 1.273438 -1.585938 1.078125 -1.578125 L 0.671875 -1.5625 Z M 1.203125 -0.453125 C 1.398438 -0.460938 1.492188 -0.535156 1.484375 -0.671875 C 1.472656 -0.742188 1.441406 -0.789062 1.390625 -0.8125 C 1.347656 -0.84375 1.28125 -0.859375 1.1875 -0.859375 L 0.71875 -0.828125 L 0.75 -0.421875 Z M 1.203125 -0.453125 "/></g></g></g><g fill="#553602" fill-opacity="1"><g transform="translate(22.56321, 5.301062)"><g><path d="M 0.15625 -1.90625 L 0.703125 -1.9375 L 0.765625 -0.8125 L 1.609375 -1.984375 L 2.109375 -2.015625 L 2.21875 -0.125 L 1.6875 -0.09375 L 1.625 -1.21875 L 0.765625 -0.046875 L 0.265625 -0.015625 Z M 0.15625 -1.90625 "/></g></g></g><g fill="#553602" fill-opacity="1"><g transform="translate(25.009211, 5.158238)"><g><path d="M 1.953125 -2.015625 L 2.0625 -0.125 L 1.515625 -0.09375 L 1.4375 -1.53125 L 0.84375 -1.484375 L 0.84375 -1.15625 C 0.84375 -0.90625 0.828125 -0.695312 0.796875 -0.53125 C 0.773438 -0.363281 0.722656 -0.234375 0.640625 -0.140625 C 0.566406 -0.046875 0.457031 0.00390625 0.3125 0.015625 C 0.226562 0.015625 0.132812 0.0078125 0.03125 0 L 0.015625 -0.453125 C 0.0546875 -0.441406 0.0859375 -0.441406 0.109375 -0.453125 C 0.179688 -0.453125 0.238281 -0.484375 0.28125 -0.546875 C 0.320312 -0.609375 0.347656 -0.6875 0.359375 -0.78125 C 0.367188 -0.882812 0.375 -1.007812 0.375 -1.15625 L 0.34375 -1.921875 Z M 1.953125 -2.015625 "/></g></g></g><g fill="#553602" fill-opacity="1"><g transform="translate(27.301462, 5.024391)"><g><path d="M 0.15625 -1.90625 L 0.703125 -1.9375 L 0.765625 -0.8125 L 1.609375 -1.984375 L 2.109375 -2.015625 L 2.21875 -0.125 L 1.6875 -0.09375 L 1.625 -1.21875 L 0.765625 -0.046875 L 0.265625 -0.015625 Z M 0.15625 -1.90625 "/></g></g></g><g fill="#553602" fill-opacity="1"><g transform="translate(29.747463, 4.881566)"><g/></g></g><g fill="#553602" fill-opacity="1"><g transform="translate(30.7014, 4.825865)"><g><path d="M 2.03125 -2.015625 L 2.140625 -0.125 L 1.59375 -0.09375 L 1.515625 -1.53125 L 0.734375 -1.484375 L 0.8125 -0.046875 L 0.265625 -0.015625 L 0.15625 -1.90625 Z M 2.03125 -2.015625 "/></g></g></g><g fill="#553602" fill-opacity="1"><g transform="translate(33.060041, 4.688141)"><g><path d="M 1.953125 -2.015625 L 2.0625 -0.125 L 1.515625 -0.09375 L 1.4375 -1.53125 L 0.84375 -1.484375 L 0.84375 -1.15625 C 0.84375 -0.90625 0.828125 -0.695312 0.796875 -0.53125 C 0.773438 -0.363281 0.722656 -0.234375 0.640625 -0.140625 C 0.566406 -0.046875 0.457031 0.00390625 0.3125 0.015625 C 0.226562 0.015625 0.132812 0.0078125 0.03125 0 L 0.015625 -0.453125 C 0.0546875 -0.441406 0.0859375 -0.441406 0.109375 -0.453125 C 0.179688 -0.453125 0.238281 -0.484375 0.28125 -0.546875 C 0.320312 -0.609375 0.347656 -0.6875 0.359375 -0.78125 C 0.367188 -0.882812 0.375 -1.007812 0.375 -1.15625 L 0.34375 -1.921875 Z M 1.953125 -2.015625 "/></g></g></g><g fill="#553602" fill-opacity="1"><g transform="translate(35.352295, 4.554294)"><g><path d="M 0.890625 -1.96875 C 1.179688 -1.976562 1.40625 -1.921875 1.5625 -1.796875 C 1.726562 -1.671875 1.820312 -1.46875 1.84375 -1.1875 L 1.90625 -0.109375 L 1.390625 -0.078125 L 1.375 -0.3125 C 1.28125 -0.132812 1.09375 -0.0351562 0.8125 -0.015625 C 0.664062 -0.00390625 0.539062 -0.0195312 0.4375 -0.0625 C 0.332031 -0.113281 0.25 -0.175781 0.1875 -0.25 C 0.125 -0.332031 0.0859375 -0.429688 0.078125 -0.546875 C 0.0664062 -0.722656 0.125 -0.863281 0.25 -0.96875 C 0.382812 -1.082031 0.585938 -1.144531 0.859375 -1.15625 L 1.296875 -1.1875 C 1.285156 -1.300781 1.238281 -1.390625 1.15625 -1.453125 C 1.082031 -1.515625 0.972656 -1.539062 0.828125 -1.53125 C 0.722656 -1.53125 0.625 -1.507812 0.53125 -1.46875 C 0.445312 -1.425781 0.367188 -1.375 0.296875 -1.3125 L 0.09375 -1.703125 C 0.1875 -1.773438 0.300781 -1.832031 0.4375 -1.875 C 0.582031 -1.925781 0.734375 -1.957031 0.890625 -1.96875 Z M 0.9375 -0.40625 C 1.03125 -0.40625 1.109375 -0.425781 1.171875 -0.46875 C 1.242188 -0.519531 1.296875 -0.585938 1.328125 -0.671875 L 1.3125 -0.859375 L 0.9375 -0.84375 C 0.707031 -0.820312 0.597656 -0.738281 0.609375 -0.59375 C 0.609375 -0.53125 0.640625 -0.476562 0.703125 -0.4375 C 0.765625 -0.40625 0.84375 -0.394531 0.9375 -0.40625 Z M 0.9375 -0.40625 "/></g></g></g><g fill="#553602" fill-opacity="1"><g transform="translate(37.427898, 4.433097)"><g><path d="M 1.765625 -1.546875 L 1.125 -1.5 L 1.203125 -0.0625 L 0.671875 -0.046875 L 0.59375 -1.484375 L -0.046875 -1.4375 L -0.078125 -1.890625 L 1.734375 -2 Z M 1.765625 -1.546875 "/></g></g></g><g fill="#553602" fill-opacity="1"><g transform="translate(39.262398, 4.325979)"><g><path d="M 2.796875 -1.125 C 2.816406 -0.832031 2.734375 -0.59375 2.546875 -0.40625 C 2.367188 -0.226562 2.097656 -0.113281 1.734375 -0.0625 L 1.78125 0.578125 L 1.28125 0.59375 L 1.234375 -0.046875 C 0.867188 -0.046875 0.582031 -0.117188 0.375 -0.265625 C 0.175781 -0.421875 0.0664062 -0.648438 0.046875 -0.953125 C 0.0351562 -1.242188 0.117188 -1.476562 0.296875 -1.65625 C 0.484375 -1.832031 0.757812 -1.941406 1.125 -1.984375 L 1.078125 -2.671875 L 1.578125 -2.6875 L 1.625 -2 C 1.988281 -2.007812 2.269531 -1.9375 2.46875 -1.78125 C 2.675781 -1.625 2.785156 -1.40625 2.796875 -1.125 Z M 0.578125 -0.984375 C 0.585938 -0.816406 0.640625 -0.6875 0.734375 -0.59375 C 0.835938 -0.507812 1 -0.46875 1.21875 -0.46875 L 1.140625 -1.5625 C 0.941406 -1.519531 0.796875 -1.453125 0.703125 -1.359375 C 0.617188 -1.265625 0.578125 -1.140625 0.578125 -0.984375 Z M 1.71875 -0.484375 C 1.914062 -0.523438 2.0625 -0.59375 2.15625 -0.6875 C 2.25 -0.789062 2.289062 -0.925781 2.28125 -1.09375 C 2.28125 -1.25 2.226562 -1.367188 2.125 -1.453125 C 2.019531 -1.535156 1.859375 -1.578125 1.640625 -1.578125 Z M 1.71875 -0.484375 "/></g></g></g><g fill="#553602" fill-opacity="1"><g transform="translate(42.194103, 4.154793)"><g><path d="M 1.140625 -0.03125 C 0.941406 -0.0195312 0.757812 -0.0507812 0.59375 -0.125 C 0.4375 -0.195312 0.3125 -0.300781 0.21875 -0.4375 C 0.125 -0.582031 0.0703125 -0.75 0.0625 -0.9375 C 0.0390625 -1.125 0.0703125 -1.289062 0.15625 -1.4375 C 0.238281 -1.59375 0.351562 -1.71875 0.5 -1.8125 C 0.65625 -1.90625 0.832031 -1.957031 1.03125 -1.96875 C 1.238281 -1.976562 1.421875 -1.945312 1.578125 -1.875 C 1.742188 -1.800781 1.875 -1.691406 1.96875 -1.546875 C 2.0625 -1.410156 2.117188 -1.25 2.140625 -1.0625 C 2.148438 -0.875 2.113281 -0.703125 2.03125 -0.546875 C 1.945312 -0.398438 1.828125 -0.28125 1.671875 -0.1875 C 1.523438 -0.09375 1.347656 -0.0390625 1.140625 -0.03125 Z M 1.109375 -0.484375 C 1.253906 -0.492188 1.367188 -0.546875 1.453125 -0.640625 C 1.535156 -0.742188 1.578125 -0.875 1.578125 -1.03125 C 1.566406 -1.1875 1.515625 -1.3125 1.421875 -1.40625 C 1.328125 -1.5 1.207031 -1.539062 1.0625 -1.53125 C 0.925781 -1.519531 0.816406 -1.460938 0.734375 -1.359375 C 0.648438 -1.265625 0.613281 -1.140625 0.625 -0.984375 C 0.625 -0.828125 0.671875 -0.703125 0.765625 -0.609375 C 0.859375 -0.515625 0.972656 -0.472656 1.109375 -0.484375 Z M 1.109375 -0.484375 "/></g></g></g><g fill="#553602" fill-opacity="1"><g transform="translate(44.444423, 4.023395)"><g><path d="M 1.25 -1.984375 C 1.425781 -1.992188 1.585938 -1.960938 1.734375 -1.890625 C 1.890625 -1.828125 2.007812 -1.722656 2.09375 -1.578125 C 2.175781 -1.441406 2.226562 -1.273438 2.25 -1.078125 C 2.257812 -0.890625 2.226562 -0.71875 2.15625 -0.5625 C 2.082031 -0.414062 1.972656 -0.296875 1.828125 -0.203125 C 1.691406 -0.109375 1.535156 -0.0546875 1.359375 -0.046875 C 1.117188 -0.0351562 0.925781 -0.101562 0.78125 -0.25 L 0.84375 0.625 L 0.296875 0.65625 L 0.140625 -1.90625 L 0.671875 -1.9375 L 0.6875 -1.71875 C 0.800781 -1.882812 0.988281 -1.972656 1.25 -1.984375 Z M 1.234375 -0.5 C 1.378906 -0.507812 1.492188 -0.5625 1.578125 -0.65625 C 1.660156 -0.757812 1.703125 -0.890625 1.703125 -1.046875 C 1.691406 -1.203125 1.640625 -1.328125 1.546875 -1.421875 C 1.453125 -1.515625 1.332031 -1.554688 1.1875 -1.546875 C 1.050781 -1.535156 0.941406 -1.476562 0.859375 -1.375 C 0.773438 -1.269531 0.738281 -1.140625 0.75 -0.984375 C 0.75 -0.828125 0.796875 -0.703125 0.890625 -0.609375 C 0.984375 -0.523438 1.097656 -0.488281 1.234375 -0.5 Z M 1.234375 -0.5 "/></g></g></g><g fill="#553602" fill-opacity="1"><g transform="translate(46.834513, 3.883835)"><g><path d="M 2.09375 -0.125 L 2.03125 -1.25 L 1.515625 -0.28125 L 1.296875 -0.265625 L 0.6875 -1.171875 L 0.75 -0.046875 L 0.265625 -0.015625 L 0.15625 -1.90625 L 0.71875 -1.9375 L 1.390625 -0.875 L 1.96875 -2.015625 L 2.484375 -2.046875 L 2.59375 -0.15625 Z M 2.09375 -0.125 "/></g></g></g><g fill="#553602" fill-opacity="1"><g transform="translate(49.647416, 3.719586)"><g><path d="M 2.046875 -2.015625 L 1.296875 0.03125 C 1.234375 0.257812 1.140625 0.421875 1.015625 0.515625 C 0.898438 0.609375 0.75 0.660156 0.5625 0.671875 C 0.46875 0.679688 0.367188 0.671875 0.265625 0.640625 C 0.171875 0.617188 0.09375 0.582031 0.03125 0.53125 L 0.21875 0.125 C 0.257812 0.164062 0.304688 0.191406 0.359375 0.203125 C 0.410156 0.222656 0.460938 0.234375 0.515625 0.234375 C 0.585938 0.234375 0.644531 0.210938 0.6875 0.171875 C 0.738281 0.128906 0.78125 0.0664062 0.8125 -0.015625 L 0.8125 -0.03125 L -0.109375 -1.890625 L 0.453125 -1.921875 L 1.0625 -0.671875 L 1.515625 -1.984375 Z M 2.046875 -2.015625 "/></g></g></g><g fill="#553602" fill-opacity="1"><g transform="translate(51.757964, 3.596349)"><g><path d="M 0.046875 -2.46875 L 0.6875 -2.5 L 0.671875 -0.890625 L 0.25 -0.859375 Z M 0.5 0 C 0.40625 0.0078125 0.320312 -0.015625 0.25 -0.078125 C 0.1875 -0.140625 0.15625 -0.21875 0.15625 -0.3125 C 0.144531 -0.394531 0.171875 -0.46875 0.234375 -0.53125 C 0.296875 -0.59375 0.375 -0.628906 0.46875 -0.640625 C 0.570312 -0.640625 0.65625 -0.609375 0.71875 -0.546875 C 0.78125 -0.492188 0.816406 -0.425781 0.828125 -0.34375 C 0.828125 -0.25 0.796875 -0.164062 0.734375 -0.09375 C 0.679688 -0.03125 0.601562 0 0.5 0 Z M 0.5 0 "/></g></g></g><g fill="#553602" fill-opacity="1"><g transform="translate(52.732979, 3.539417)"><g/></g></g><g fill="#553602" fill-opacity="1"><g transform="translate(1.473382, 11.431289)"><g><path d="M 2.796875 -0.640625 L 2.859375 0.328125 L 2.34375 0.359375 L 2.3125 -0.140625 L 0.578125 -0.03125 L 0.609375 0.46875 L 0.078125 0.5 L 0.03125 -0.46875 L 0.125 -0.484375 C 0.269531 -0.484375 0.367188 -0.585938 0.421875 -0.796875 C 0.472656 -1.015625 0.492188 -1.320312 0.484375 -1.71875 L 0.46875 -2.484375 L 2.34375 -2.59375 L 2.453125 -0.609375 Z M 0.984375 -1.6875 C 0.992188 -1.394531 0.984375 -1.148438 0.953125 -0.953125 C 0.929688 -0.765625 0.878906 -0.617188 0.796875 -0.515625 L 1.890625 -0.578125 L 1.8125 -2.09375 L 0.984375 -2.046875 Z M 0.984375 -1.6875 "/></g></g></g><g fill="#553602" fill-opacity="1"><g transform="translate(4.342192, 11.263776)"><g><path d="M 2.046875 -1.0625 C 2.046875 -1.050781 2.046875 -1 2.046875 -0.90625 L 0.609375 -0.8125 C 0.648438 -0.707031 0.71875 -0.625 0.8125 -0.5625 C 0.90625 -0.5 1.023438 -0.46875 1.171875 -0.46875 C 1.265625 -0.476562 1.347656 -0.5 1.421875 -0.53125 C 1.503906 -0.570312 1.578125 -0.625 1.640625 -0.6875 L 1.953125 -0.390625 C 1.785156 -0.171875 1.53125 -0.0507812 1.1875 -0.03125 C 0.976562 -0.0195312 0.785156 -0.0507812 0.609375 -0.125 C 0.441406 -0.195312 0.3125 -0.300781 0.21875 -0.4375 C 0.125 -0.582031 0.0703125 -0.75 0.0625 -0.9375 C 0.0390625 -1.125 0.0703125 -1.289062 0.15625 -1.4375 C 0.238281 -1.59375 0.351562 -1.71875 0.5 -1.8125 C 0.644531 -1.90625 0.8125 -1.957031 1 -1.96875 C 1.1875 -1.976562 1.359375 -1.945312 1.515625 -1.875 C 1.671875 -1.8125 1.789062 -1.707031 1.875 -1.5625 C 1.96875 -1.425781 2.023438 -1.257812 2.046875 -1.0625 Z M 1.03125 -1.5625 C 0.90625 -1.550781 0.800781 -1.507812 0.71875 -1.4375 C 0.644531 -1.363281 0.601562 -1.265625 0.59375 -1.140625 L 1.515625 -1.203125 C 1.484375 -1.316406 1.421875 -1.40625 1.328125 -1.46875 C 1.242188 -1.539062 1.144531 -1.570312 1.03125 -1.5625 Z M 1.03125 -1.5625 "/></g></g></g><g fill="#553602" fill-opacity="1"><g transform="translate(6.554074, 11.134622)"><g><path d="M 1.953125 -2.015625 L 2.0625 -0.125 L 1.515625 -0.09375 L 1.4375 -1.53125 L 0.84375 -1.484375 L 0.84375 -1.15625 C 0.84375 -0.90625 0.828125 -0.695312 0.796875 -0.53125 C 0.773438 -0.363281 0.722656 -0.234375 0.640625 -0.140625 C 0.566406 -0.046875 0.457031 0.00390625 0.3125 0.015625 C 0.226562 0.015625 0.132812 0.0078125 0.03125 0 L 0.015625 -0.453125 C 0.0546875 -0.441406 0.0859375 -0.441406 0.109375 -0.453125 C 0.179688 -0.453125 0.238281 -0.484375 0.28125 -0.546875 C 0.320312 -0.609375 0.347656 -0.6875 0.359375 -0.78125 C 0.367188 -0.882812 0.375 -1.007812 0.375 -1.15625 L 0.34375 -1.921875 Z M 1.953125 -2.015625 "/></g></g></g><g fill="#553602" fill-opacity="1"><g transform="translate(8.846325, 11.000775)"><g><path d="M 0.890625 -1.96875 C 1.179688 -1.976562 1.40625 -1.921875 1.5625 -1.796875 C 1.726562 -1.671875 1.820312 -1.46875 1.84375 -1.1875 L 1.90625 -0.109375 L 1.390625 -0.078125 L 1.375 -0.3125 C 1.28125 -0.132812 1.09375 -0.0351562 0.8125 -0.015625 C 0.664062 -0.00390625 0.539062 -0.0195312 0.4375 -0.0625 C 0.332031 -0.113281 0.25 -0.175781 0.1875 -0.25 C 0.125 -0.332031 0.0859375 -0.429688 0.078125 -0.546875 C 0.0664062 -0.722656 0.125 -0.863281 0.25 -0.96875 C 0.382812 -1.082031 0.585938 -1.144531 0.859375 -1.15625 L 1.296875 -1.1875 C 1.285156 -1.300781 1.238281 -1.390625 1.15625 -1.453125 C 1.082031 -1.515625 0.972656 -1.539062 0.828125 -1.53125 C 0.722656 -1.53125 0.625 -1.507812 0.53125 -1.46875 C 0.445312 -1.425781 0.367188 -1.375 0.296875 -1.3125 L 0.09375 -1.703125 C 0.1875 -1.773438 0.300781 -1.832031 0.4375 -1.875 C 0.582031 -1.925781 0.734375 -1.957031 0.890625 -1.96875 Z M 0.9375 -0.40625 C 1.03125 -0.40625 1.109375 -0.425781 1.171875 -0.46875 C 1.242188 -0.519531 1.296875 -0.585938 1.328125 -0.671875 L 1.3125 -0.859375 L 0.9375 -0.84375 C 0.707031 -0.820312 0.597656 -0.738281 0.609375 -0.59375 C 0.609375 -0.53125 0.640625 -0.476562 0.703125 -0.4375 C 0.765625 -0.40625 0.84375 -0.394531 0.9375 -0.40625 Z M 0.9375 -0.40625 "/></g></g></g><g fill="#553602" fill-opacity="1"><g transform="translate(10.92193, 10.879578)"><g><path d="M 2.046875 -1.0625 C 2.046875 -1.050781 2.046875 -1 2.046875 -0.90625 L 0.609375 -0.8125 C 0.648438 -0.707031 0.71875 -0.625 0.8125 -0.5625 C 0.90625 -0.5 1.023438 -0.46875 1.171875 -0.46875 C 1.265625 -0.476562 1.347656 -0.5 1.421875 -0.53125 C 1.503906 -0.570312 1.578125 -0.625 1.640625 -0.6875 L 1.953125 -0.390625 C 1.785156 -0.171875 1.53125 -0.0507812 1.1875 -0.03125 C 0.976562 -0.0195312 0.785156 -0.0507812 0.609375 -0.125 C 0.441406 -0.195312 0.3125 -0.300781 0.21875 -0.4375 C 0.125 -0.582031 0.0703125 -0.75 0.0625 -0.9375 C 0.0390625 -1.125 0.0703125 -1.289062 0.15625 -1.4375 C 0.238281 -1.59375 0.351562 -1.71875 0.5 -1.8125 C 0.644531 -1.90625 0.8125 -1.957031 1 -1.96875 C 1.1875 -1.976562 1.359375 -1.945312 1.515625 -1.875 C 1.671875 -1.8125 1.789062 -1.707031 1.875 -1.5625 C 1.96875 -1.425781 2.023438 -1.257812 2.046875 -1.0625 Z M 1.03125 -1.5625 C 0.90625 -1.550781 0.800781 -1.507812 0.71875 -1.4375 C 0.644531 -1.363281 0.601562 -1.265625 0.59375 -1.140625 L 1.515625 -1.203125 C 1.484375 -1.316406 1.421875 -1.40625 1.328125 -1.46875 C 1.242188 -1.539062 1.144531 -1.570312 1.03125 -1.5625 Z M 1.03125 -1.5625 "/></g></g></g><g fill="#553602" fill-opacity="1"><g transform="translate(13.133812, 10.750424)"><g><path d="M 2.09375 -0.125 L 2.03125 -1.25 L 1.515625 -0.28125 L 1.296875 -0.265625 L 0.6875 -1.171875 L 0.75 -0.046875 L 0.265625 -0.015625 L 0.15625 -1.90625 L 0.71875 -1.9375 L 1.390625 -0.875 L 1.96875 -2.015625 L 2.484375 -2.046875 L 2.59375 -0.15625 Z M 2.09375 -0.125 "/></g></g></g><g fill="#553602" fill-opacity="1"><g transform="translate(15.946713, 10.586175)"><g/></g></g><g fill="#553602" fill-opacity="1"><g transform="translate(16.90065, 10.530474)"><g><path d="M 2.046875 -1.0625 C 2.046875 -1.050781 2.046875 -1 2.046875 -0.90625 L 0.609375 -0.8125 C 0.648438 -0.707031 0.71875 -0.625 0.8125 -0.5625 C 0.90625 -0.5 1.023438 -0.46875 1.171875 -0.46875 C 1.265625 -0.476562 1.347656 -0.5 1.421875 -0.53125 C 1.503906 -0.570312 1.578125 -0.625 1.640625 -0.6875 L 1.953125 -0.390625 C 1.785156 -0.171875 1.53125 -0.0507812 1.1875 -0.03125 C 0.976562 -0.0195312 0.785156 -0.0507812 0.609375 -0.125 C 0.441406 -0.195312 0.3125 -0.300781 0.21875 -0.4375 C 0.125 -0.582031 0.0703125 -0.75 0.0625 -0.9375 C 0.0390625 -1.125 0.0703125 -1.289062 0.15625 -1.4375 C 0.238281 -1.59375 0.351562 -1.71875 0.5 -1.8125 C 0.644531 -1.90625 0.8125 -1.957031 1 -1.96875 C 1.1875 -1.976562 1.359375 -1.945312 1.515625 -1.875 C 1.671875 -1.8125 1.789062 -1.707031 1.875 -1.5625 C 1.96875 -1.425781 2.023438 -1.257812 2.046875 -1.0625 Z M 1.03125 -1.5625 C 0.90625 -1.550781 0.800781 -1.507812 0.71875 -1.4375 C 0.644531 -1.363281 0.601562 -1.265625 0.59375 -1.140625 L 1.515625 -1.203125 C 1.484375 -1.316406 1.421875 -1.40625 1.328125 -1.46875 C 1.242188 -1.539062 1.144531 -1.570312 1.03125 -1.5625 Z M 1.03125 -1.5625 "/></g></g></g><g fill="#553602" fill-opacity="1"><g transform="translate(19.112533, 10.40132)"><g><path d="M 2.046875 -1.0625 C 2.046875 -1.050781 2.046875 -1 2.046875 -0.90625 L 0.609375 -0.8125 C 0.648438 -0.707031 0.71875 -0.625 0.8125 -0.5625 C 0.90625 -0.5 1.023438 -0.46875 1.171875 -0.46875 C 1.265625 -0.476562 1.347656 -0.5 1.421875 -0.53125 C 1.503906 -0.570312 1.578125 -0.625 1.640625 -0.6875 L 1.953125 -0.390625 C 1.785156 -0.171875 1.53125 -0.0507812 1.1875 -0.03125 C 0.976562 -0.0195312 0.785156 -0.0507812 0.609375 -0.125 C 0.441406 -0.195312 0.3125 -0.300781 0.21875 -0.4375 C 0.125 -0.582031 0.0703125 -0.75 0.0625 -0.9375 C 0.0390625 -1.125 0.0703125 -1.289062 0.15625 -1.4375 C 0.238281 -1.59375 0.351562 -1.71875 0.5 -1.8125 C 0.644531 -1.90625 0.8125 -1.957031 1 -1.96875 C 1.1875 -1.976562 1.359375 -1.945312 1.515625 -1.875 C 1.671875 -1.8125 1.789062 -1.707031 1.875 -1.5625 C 1.96875 -1.425781 2.023438 -1.257812 2.046875 -1.0625 Z M 1.03125 -1.5625 C 0.90625 -1.550781 0.800781 -1.507812 0.71875 -1.4375 C 0.644531 -1.363281 0.601562 -1.265625 0.59375 -1.140625 L 1.515625 -1.203125 C 1.484375 -1.316406 1.421875 -1.40625 1.328125 -1.46875 C 1.242188 -1.539062 1.144531 -1.570312 1.03125 -1.5625 Z M 0.625 -2.1875 C 0.550781 -2.175781 0.488281 -2.191406 0.4375 -2.234375 C 0.382812 -2.285156 0.359375 -2.347656 0.359375 -2.421875 C 0.359375 -2.484375 0.378906 -2.535156 0.421875 -2.578125 C 0.460938 -2.628906 0.519531 -2.660156 0.59375 -2.671875 C 0.664062 -2.671875 0.726562 -2.648438 0.78125 -2.609375 C 0.832031 -2.566406 0.859375 -2.515625 0.859375 -2.453125 C 0.859375 -2.378906 0.835938 -2.316406 0.796875 -2.265625 C 0.753906 -2.210938 0.695312 -2.1875 0.625 -2.1875 Z M 1.328125 -2.21875 C 1.265625 -2.21875 1.207031 -2.238281 1.15625 -2.28125 C 1.101562 -2.332031 1.078125 -2.394531 1.078125 -2.46875 C 1.078125 -2.53125 1.097656 -2.582031 1.140625 -2.625 C 1.179688 -2.675781 1.234375 -2.703125 1.296875 -2.703125 C 1.367188 -2.710938 1.429688 -2.691406 1.484375 -2.640625 C 1.535156 -2.597656 1.5625 -2.546875 1.5625 -2.484375 C 1.5625 -2.410156 1.539062 -2.347656 1.5 -2.296875 C 1.457031 -2.253906 1.398438 -2.226562 1.328125 -2.21875 Z M 1.328125 -2.21875 "/></g></g></g><g fill="#553602" fill-opacity="1"><g transform="translate(21.324415, 10.272165)"><g/></g></g><g fill="#553602" fill-opacity="1"><g transform="translate(22.278352, 10.216464)"><g><path d="M 1.953125 -2.015625 L 2.0625 -0.125 L 1.515625 -0.09375 L 1.4375 -1.53125 L 0.84375 -1.484375 L 0.84375 -1.15625 C 0.84375 -0.90625 0.828125 -0.695312 0.796875 -0.53125 C 0.773438 -0.363281 0.722656 -0.234375 0.640625 -0.140625 C 0.566406 -0.046875 0.457031 0.00390625 0.3125 0.015625 C 0.226562 0.015625 0.132812 0.0078125 0.03125 0 L 0.015625 -0.453125 C 0.0546875 -0.441406 0.0859375 -0.441406 0.109375 -0.453125 C 0.179688 -0.453125 0.238281 -0.484375 0.28125 -0.546875 C 0.320312 -0.609375 0.347656 -0.6875 0.359375 -0.78125 C 0.367188 -0.882812 0.375 -1.007812 0.375 -1.15625 L 0.34375 -1.921875 Z M 1.953125 -2.015625 "/></g></g></g><g fill="#553602" fill-opacity="1"><g transform="translate(24.570605, 10.082617)"><g><path d="M 2.046875 -2.015625 L 1.296875 0.03125 C 1.234375 0.257812 1.140625 0.421875 1.015625 0.515625 C 0.898438 0.609375 0.75 0.660156 0.5625 0.671875 C 0.46875 0.679688 0.367188 0.671875 0.265625 0.640625 C 0.171875 0.617188 0.09375 0.582031 0.03125 0.53125 L 0.21875 0.125 C 0.257812 0.164062 0.304688 0.191406 0.359375 0.203125 C 0.410156 0.222656 0.460938 0.234375 0.515625 0.234375 C 0.585938 0.234375 0.644531 0.210938 0.6875 0.171875 C 0.738281 0.128906 0.78125 0.0664062 0.8125 -0.015625 L 0.8125 -0.03125 L -0.109375 -1.890625 L 0.453125 -1.921875 L 1.0625 -0.671875 L 1.515625 -1.984375 Z M 2.046875 -2.015625 "/></g></g></g><g fill="#553602" fill-opacity="1"><g transform="translate(26.681153, 9.95938)"><g><path d="M 1.84375 -2 L 1.953125 -0.109375 L 1.40625 -0.078125 L 1.359375 -0.78125 C 1.210938 -0.6875 1.046875 -0.632812 0.859375 -0.625 C 0.597656 -0.613281 0.398438 -0.660156 0.265625 -0.765625 C 0.128906 -0.867188 0.0507812 -1.046875 0.03125 -1.296875 L 0 -1.890625 L 0.546875 -1.921875 L 0.578125 -1.359375 C 0.585938 -1.242188 0.625 -1.160156 0.6875 -1.109375 C 0.75 -1.066406 0.835938 -1.050781 0.953125 -1.0625 C 1.085938 -1.070312 1.21875 -1.109375 1.34375 -1.171875 L 1.296875 -1.96875 Z M 1.84375 -2 "/></g></g></g><g fill="#553602" fill-opacity="1"><g transform="translate(28.861585, 9.832062)"><g><path d="M 3.03125 -2.078125 L 3.140625 -0.1875 L 0.265625 -0.015625 L 0.15625 -1.90625 L 0.703125 -1.9375 L 0.78125 -0.5 L 1.40625 -0.53125 L 1.328125 -1.96875 L 1.859375 -2 L 1.9375 -0.5625 L 2.5625 -0.609375 L 2.484375 -2.046875 Z M 3.03125 -2.078125 "/></g></g></g><g fill="#553602" fill-opacity="1"><g transform="translate(32.219597, 9.635984)"><g><path d="M 2.046875 -1.0625 C 2.046875 -1.050781 2.046875 -1 2.046875 -0.90625 L 0.609375 -0.8125 C 0.648438 -0.707031 0.71875 -0.625 0.8125 -0.5625 C 0.90625 -0.5 1.023438 -0.46875 1.171875 -0.46875 C 1.265625 -0.476562 1.347656 -0.5 1.421875 -0.53125 C 1.503906 -0.570312 1.578125 -0.625 1.640625 -0.6875 L 1.953125 -0.390625 C 1.785156 -0.171875 1.53125 -0.0507812 1.1875 -0.03125 C 0.976562 -0.0195312 0.785156 -0.0507812 0.609375 -0.125 C 0.441406 -0.195312 0.3125 -0.300781 0.21875 -0.4375 C 0.125 -0.582031 0.0703125 -0.75 0.0625 -0.9375 C 0.0390625 -1.125 0.0703125 -1.289062 0.15625 -1.4375 C 0.238281 -1.59375 0.351562 -1.71875 0.5 -1.8125 C 0.644531 -1.90625 0.8125 -1.957031 1 -1.96875 C 1.1875 -1.976562 1.359375 -1.945312 1.515625 -1.875 C 1.671875 -1.8125 1.789062 -1.707031 1.875 -1.5625 C 1.96875 -1.425781 2.023438 -1.257812 2.046875 -1.0625 Z M 1.03125 -1.5625 C 0.90625 -1.550781 0.800781 -1.507812 0.71875 -1.4375 C 0.644531 -1.363281 0.601562 -1.265625 0.59375 -1.140625 L 1.515625 -1.203125 C 1.484375 -1.316406 1.421875 -1.40625 1.328125 -1.46875 C 1.242188 -1.539062 1.144531 -1.570312 1.03125 -1.5625 Z M 1.03125 -1.5625 "/></g></g></g><g fill="#553602" fill-opacity="1"><g transform="translate(34.431479, 9.50683)"><g><path d="M 0.4375 -0.6875 C 0.53125 -0.6875 0.609375 -0.65625 0.671875 -0.59375 C 0.734375 -0.539062 0.769531 -0.460938 0.78125 -0.359375 C 0.78125 -0.316406 0.773438 -0.269531 0.765625 -0.21875 C 0.765625 -0.175781 0.742188 -0.109375 0.703125 -0.015625 L 0.53125 0.5 L 0.1875 0.515625 L 0.3125 -0.03125 C 0.25 -0.0507812 0.195312 -0.0820312 0.15625 -0.125 C 0.125 -0.175781 0.109375 -0.238281 0.109375 -0.3125 C 0.0976562 -0.414062 0.125 -0.5 0.1875 -0.5625 C 0.25 -0.632812 0.332031 -0.675781 0.4375 -0.6875 Z M 0.4375 -0.6875 "/></g></g></g><g fill="#553602" fill-opacity="1"><g transform="translate(35.312034, 9.455413)"><g/></g></g><g fill="#553602" fill-opacity="1"><g transform="translate(36.265971, 9.399712)"><g><path d="M 1.84375 -2 L 1.953125 -0.109375 L 1.40625 -0.078125 L 1.359375 -0.78125 C 1.210938 -0.6875 1.046875 -0.632812 0.859375 -0.625 C 0.597656 -0.613281 0.398438 -0.660156 0.265625 -0.765625 C 0.128906 -0.867188 0.0507812 -1.046875 0.03125 -1.296875 L 0 -1.890625 L 0.546875 -1.921875 L 0.578125 -1.359375 C 0.585938 -1.242188 0.625 -1.160156 0.6875 -1.109375 C 0.75 -1.066406 0.835938 -1.050781 0.953125 -1.0625 C 1.085938 -1.070312 1.21875 -1.109375 1.34375 -1.171875 L 1.296875 -1.96875 Z M 1.84375 -2 "/></g></g></g><g fill="#553602" fill-opacity="1"><g transform="translate(38.446404, 9.272394)"><g><path d="M 1.765625 -1.546875 L 1.125 -1.5 L 1.203125 -0.0625 L 0.671875 -0.046875 L 0.59375 -1.484375 L -0.046875 -1.4375 L -0.078125 -1.890625 L 1.734375 -2 Z M 1.765625 -1.546875 "/></g></g></g><g fill="#553602" fill-opacity="1"><g transform="translate(40.280903, 9.165275)"><g><path d="M 1.140625 -0.03125 C 0.941406 -0.0195312 0.757812 -0.0507812 0.59375 -0.125 C 0.4375 -0.195312 0.3125 -0.300781 0.21875 -0.4375 C 0.125 -0.582031 0.0703125 -0.75 0.0625 -0.9375 C 0.0390625 -1.125 0.0703125 -1.289062 0.15625 -1.4375 C 0.238281 -1.59375 0.351562 -1.71875 0.5 -1.8125 C 0.65625 -1.90625 0.832031 -1.957031 1.03125 -1.96875 C 1.238281 -1.976562 1.421875 -1.945312 1.578125 -1.875 C 1.742188 -1.800781 1.875 -1.691406 1.96875 -1.546875 C 2.0625 -1.410156 2.117188 -1.25 2.140625 -1.0625 C 2.148438 -0.875 2.113281 -0.703125 2.03125 -0.546875 C 1.945312 -0.398438 1.828125 -0.28125 1.671875 -0.1875 C 1.523438 -0.09375 1.347656 -0.0390625 1.140625 -0.03125 Z M 1.109375 -0.484375 C 1.253906 -0.492188 1.367188 -0.546875 1.453125 -0.640625 C 1.535156 -0.742188 1.578125 -0.875 1.578125 -1.03125 C 1.566406 -1.1875 1.515625 -1.3125 1.421875 -1.40625 C 1.328125 -1.5 1.207031 -1.539062 1.0625 -1.53125 C 0.925781 -1.519531 0.816406 -1.460938 0.734375 -1.359375 C 0.648438 -1.265625 0.613281 -1.140625 0.625 -0.984375 C 0.625 -0.828125 0.671875 -0.703125 0.765625 -0.609375 C 0.859375 -0.515625 0.972656 -0.472656 1.109375 -0.484375 Z M 1.109375 -0.484375 "/></g></g></g><g fill="#553602" fill-opacity="1"><g transform="translate(42.531223, 9.033877)"><g><path d="M 1.234375 -1.828125 C 1.421875 -1.835938 1.582031 -1.8125 1.71875 -1.75 C 1.863281 -1.6875 1.976562 -1.585938 2.0625 -1.453125 C 2.144531 -1.328125 2.191406 -1.175781 2.203125 -1 C 2.210938 -0.820312 2.175781 -0.660156 2.09375 -0.515625 C 2.007812 -0.367188 1.890625 -0.253906 1.734375 -0.171875 C 1.585938 -0.0859375 1.414062 -0.0390625 1.21875 -0.03125 C 0.882812 -0.0078125 0.617188 -0.0976562 0.421875 -0.296875 C 0.222656 -0.503906 0.113281 -0.8125 0.09375 -1.21875 C 0.0625 -1.59375 0.125 -1.894531 0.28125 -2.125 C 0.4375 -2.363281 0.679688 -2.523438 1.015625 -2.609375 L 1.90625 -2.859375 L 2.015625 -2.390625 L 1.21875 -2.1875 C 1 -2.132812 0.835938 -2.054688 0.734375 -1.953125 C 0.640625 -1.847656 0.59375 -1.707031 0.59375 -1.53125 C 0.675781 -1.613281 0.769531 -1.679688 0.875 -1.734375 C 0.976562 -1.785156 1.097656 -1.816406 1.234375 -1.828125 Z M 1.203125 -0.453125 C 1.347656 -0.453125 1.457031 -0.5 1.53125 -0.59375 C 1.613281 -0.695312 1.648438 -0.816406 1.640625 -0.953125 C 1.628906 -1.097656 1.578125 -1.207031 1.484375 -1.28125 C 1.398438 -1.363281 1.285156 -1.40625 1.140625 -1.40625 C 1.003906 -1.394531 0.894531 -1.34375 0.8125 -1.25 C 0.726562 -1.164062 0.691406 -1.050781 0.703125 -0.90625 C 0.710938 -0.769531 0.765625 -0.65625 0.859375 -0.5625 C 0.953125 -0.476562 1.066406 -0.441406 1.203125 -0.453125 Z M 1.203125 -0.453125 "/></g></g></g><g fill="#553602" fill-opacity="1"><g transform="translate(44.847935, 8.898602)"><g><path d="M 1.171875 -1.359375 C 1.421875 -1.367188 1.609375 -1.320312 1.734375 -1.21875 C 1.867188 -1.113281 1.945312 -0.960938 1.96875 -0.765625 C 1.976562 -0.554688 1.914062 -0.390625 1.78125 -0.265625 C 1.644531 -0.148438 1.441406 -0.0820312 1.171875 -0.0625 L 0.265625 -0.015625 L 0.15625 -1.90625 L 0.703125 -1.9375 L 0.734375 -1.328125 Z M 2.09375 -2.015625 L 2.640625 -2.046875 L 2.75 -0.15625 L 2.203125 -0.125 Z M 1.109375 -0.453125 C 1.210938 -0.453125 1.289062 -0.472656 1.34375 -0.515625 C 1.394531 -0.566406 1.421875 -0.640625 1.421875 -0.734375 C 1.410156 -0.828125 1.378906 -0.894531 1.328125 -0.9375 C 1.273438 -0.976562 1.191406 -0.992188 1.078125 -0.984375 L 0.765625 -0.984375 L 0.796875 -0.4375 Z M 1.109375 -0.453125 "/></g></g></g><g fill="#553602" fill-opacity="1"><g transform="translate(47.814585, 8.725376)"><g/></g></g><g fill="#553602" fill-opacity="1"><g transform="translate(48.768522, 8.669674)"><g><path d="M 1.640625 -1.078125 C 1.867188 -1.023438 1.988281 -0.882812 2 -0.65625 C 2.007812 -0.488281 1.953125 -0.351562 1.828125 -0.25 C 1.710938 -0.144531 1.523438 -0.0859375 1.265625 -0.078125 L 0.265625 -0.015625 L 0.15625 -1.90625 L 1.109375 -1.96875 C 1.347656 -1.976562 1.535156 -1.941406 1.671875 -1.859375 C 1.816406 -1.773438 1.894531 -1.65625 1.90625 -1.5 C 1.90625 -1.40625 1.878906 -1.320312 1.828125 -1.25 C 1.785156 -1.1875 1.722656 -1.128906 1.640625 -1.078125 Z M 0.703125 -1.15625 L 1.109375 -1.171875 C 1.304688 -1.179688 1.398438 -1.253906 1.390625 -1.390625 C 1.378906 -1.523438 1.273438 -1.585938 1.078125 -1.578125 L 0.671875 -1.5625 Z M 1.203125 -0.453125 C 1.398438 -0.460938 1.492188 -0.535156 1.484375 -0.671875 C 1.472656 -0.742188 1.441406 -0.789062 1.390625 -0.8125 C 1.347656 -0.84375 1.28125 -0.859375 1.1875 -0.859375 L 0.71875 -0.828125 L 0.75 -0.421875 Z M 1.203125 -0.453125 "/></g></g></g><g fill="#553602" fill-opacity="1"><g transform="translate(50.907022, 8.544805)"><g><path d="M 0.890625 -1.96875 C 1.179688 -1.976562 1.40625 -1.921875 1.5625 -1.796875 C 1.726562 -1.671875 1.820312 -1.46875 1.84375 -1.1875 L 1.90625 -0.109375 L 1.390625 -0.078125 L 1.375 -0.3125 C 1.28125 -0.132812 1.09375 -0.0351562 0.8125 -0.015625 C 0.664062 -0.00390625 0.539062 -0.0195312 0.4375 -0.0625 C 0.332031 -0.113281 0.25 -0.175781 0.1875 -0.25 C 0.125 -0.332031 0.0859375 -0.429688 0.078125 -0.546875 C 0.0664062 -0.722656 0.125 -0.863281 0.25 -0.96875 C 0.382812 -1.082031 0.585938 -1.144531 0.859375 -1.15625 L 1.296875 -1.1875 C 1.285156 -1.300781 1.238281 -1.390625 1.15625 -1.453125 C 1.082031 -1.515625 0.972656 -1.539062 0.828125 -1.53125 C 0.722656 -1.53125 0.625 -1.507812 0.53125 -1.46875 C 0.445312 -1.425781 0.367188 -1.375 0.296875 -1.3125 L 0.09375 -1.703125 C 0.1875 -1.773438 0.300781 -1.832031 0.4375 -1.875 C 0.582031 -1.925781 0.734375 -1.957031 0.890625 -1.96875 Z M 0.9375 -0.40625 C 1.03125 -0.40625 1.109375 -0.425781 1.171875 -0.46875 C 1.242188 -0.519531 1.296875 -0.585938 1.328125 -0.671875 L 1.3125 -0.859375 L 0.9375 -0.84375 C 0.707031 -0.820312 0.597656 -0.738281 0.609375 -0.59375 C 0.609375 -0.53125 0.640625 -0.476562 0.703125 -0.4375 C 0.765625 -0.40625 0.84375 -0.394531 0.9375 -0.40625 Z M 0.9375 -0.40625 "/></g></g></g><g fill="#553602" fill-opacity="1"><g transform="translate(52.982628, 8.423608)"><g><path d="M 2.09375 -0.125 L 2.03125 -1.25 L 1.515625 -0.28125 L 1.296875 -0.265625 L 0.6875 -1.171875 L 0.75 -0.046875 L 0.265625 -0.015625 L 0.15625 -1.90625 L 0.71875 -1.9375 L 1.390625 -0.875 L 1.96875 -2.015625 L 2.484375 -2.046875 L 2.59375 -0.15625 Z M 2.09375 -0.125 "/></g></g></g><g fill="#553602" fill-opacity="1"><g transform="translate(55.796365, 8.259311)"><g/></g></g><g fill="#553602" fill-opacity="1"><g transform="translate(3.356386, 16.220106)"><g><path d="M 1.234375 -1.828125 C 1.421875 -1.835938 1.582031 -1.8125 1.71875 -1.75 C 1.863281 -1.6875 1.976562 -1.585938 2.0625 -1.453125 C 2.144531 -1.328125 2.191406 -1.175781 2.203125 -1 C 2.210938 -0.820312 2.175781 -0.660156 2.09375 -0.515625 C 2.007812 -0.367188 1.890625 -0.253906 1.734375 -0.171875 C 1.585938 -0.0859375 1.414062 -0.0390625 1.21875 -0.03125 C 0.882812 -0.0078125 0.617188 -0.0976562 0.421875 -0.296875 C 0.222656 -0.503906 0.113281 -0.8125 0.09375 -1.21875 C 0.0625 -1.59375 0.125 -1.894531 0.28125 -2.125 C 0.4375 -2.363281 0.679688 -2.523438 1.015625 -2.609375 L 1.90625 -2.859375 L 2.015625 -2.390625 L 1.21875 -2.1875 C 1 -2.132812 0.835938 -2.054688 0.734375 -1.953125 C 0.640625 -1.847656 0.59375 -1.707031 0.59375 -1.53125 C 0.675781 -1.613281 0.769531 -1.679688 0.875 -1.734375 C 0.976562 -1.785156 1.097656 -1.816406 1.234375 -1.828125 Z M 1.203125 -0.453125 C 1.347656 -0.453125 1.457031 -0.5 1.53125 -0.59375 C 1.613281 -0.695312 1.648438 -0.816406 1.640625 -0.953125 C 1.628906 -1.097656 1.578125 -1.207031 1.484375 -1.28125 C 1.398438 -1.363281 1.285156 -1.40625 1.140625 -1.40625 C 1.003906 -1.394531 0.894531 -1.34375 0.8125 -1.25 C 0.726562 -1.164062 0.691406 -1.050781 0.703125 -0.90625 C 0.710938 -0.769531 0.765625 -0.65625 0.859375 -0.5625 C 0.953125 -0.476562 1.066406 -0.441406 1.203125 -0.453125 Z M 1.203125 -0.453125 "/></g></g></g><g fill="#553602" fill-opacity="1"><g transform="translate(5.673098, 16.084831)"><g><path d="M 1.171875 -1.359375 C 1.421875 -1.367188 1.609375 -1.320312 1.734375 -1.21875 C 1.867188 -1.113281 1.945312 -0.960938 1.96875 -0.765625 C 1.976562 -0.554688 1.914062 -0.390625 1.78125 -0.265625 C 1.644531 -0.148438 1.441406 -0.0820312 1.171875 -0.0625 L 0.265625 -0.015625 L 0.15625 -1.90625 L 0.703125 -1.9375 L 0.734375 -1.328125 Z M 2.09375 -2.015625 L 2.640625 -2.046875 L 2.75 -0.15625 L 2.203125 -0.125 Z M 1.109375 -0.453125 C 1.210938 -0.453125 1.289062 -0.472656 1.34375 -0.515625 C 1.394531 -0.566406 1.421875 -0.640625 1.421875 -0.734375 C 1.410156 -0.828125 1.378906 -0.894531 1.328125 -0.9375 C 1.273438 -0.976562 1.191406 -0.992188 1.078125 -0.984375 L 0.765625 -0.984375 L 0.796875 -0.4375 Z M 1.109375 -0.453125 "/></g></g></g><g fill="#553602" fill-opacity="1"><g transform="translate(8.639748, 15.911605)"><g><path d="M 1.953125 -2.015625 L 2.0625 -0.125 L 1.515625 -0.09375 L 1.4375 -1.53125 L 0.84375 -1.484375 L 0.84375 -1.15625 C 0.84375 -0.90625 0.828125 -0.695312 0.796875 -0.53125 C 0.773438 -0.363281 0.722656 -0.234375 0.640625 -0.140625 C 0.566406 -0.046875 0.457031 0.00390625 0.3125 0.015625 C 0.226562 0.015625 0.132812 0.0078125 0.03125 0 L 0.015625 -0.453125 C 0.0546875 -0.441406 0.0859375 -0.441406 0.109375 -0.453125 C 0.179688 -0.453125 0.238281 -0.484375 0.28125 -0.546875 C 0.320312 -0.609375 0.347656 -0.6875 0.359375 -0.78125 C 0.367188 -0.882812 0.375 -1.007812 0.375 -1.15625 L 0.34375 -1.921875 Z M 1.953125 -2.015625 "/></g></g></g><g fill="#553602" fill-opacity="1"><g transform="translate(10.932, 15.777758)"><g><path d="M 1.140625 -0.03125 C 0.941406 -0.0195312 0.757812 -0.0507812 0.59375 -0.125 C 0.4375 -0.195312 0.3125 -0.300781 0.21875 -0.4375 C 0.125 -0.582031 0.0703125 -0.75 0.0625 -0.9375 C 0.0390625 -1.125 0.0703125 -1.289062 0.15625 -1.4375 C 0.238281 -1.59375 0.351562 -1.71875 0.5 -1.8125 C 0.65625 -1.90625 0.832031 -1.957031 1.03125 -1.96875 C 1.238281 -1.976562 1.421875 -1.945312 1.578125 -1.875 C 1.742188 -1.800781 1.875 -1.691406 1.96875 -1.546875 C 2.0625 -1.410156 2.117188 -1.25 2.140625 -1.0625 C 2.148438 -0.875 2.113281 -0.703125 2.03125 -0.546875 C 1.945312 -0.398438 1.828125 -0.28125 1.671875 -0.1875 C 1.523438 -0.09375 1.347656 -0.0390625 1.140625 -0.03125 Z M 1.109375 -0.484375 C 1.253906 -0.492188 1.367188 -0.546875 1.453125 -0.640625 C 1.535156 -0.742188 1.578125 -0.875 1.578125 -1.03125 C 1.566406 -1.1875 1.515625 -1.3125 1.421875 -1.40625 C 1.328125 -1.5 1.207031 -1.539062 1.0625 -1.53125 C 0.925781 -1.519531 0.816406 -1.460938 0.734375 -1.359375 C 0.648438 -1.265625 0.613281 -1.140625 0.625 -0.984375 C 0.625 -0.828125 0.671875 -0.703125 0.765625 -0.609375 C 0.859375 -0.515625 0.972656 -0.472656 1.109375 -0.484375 Z M 1.109375 -0.484375 "/></g></g></g><g fill="#553602" fill-opacity="1"><g transform="translate(13.182319, 15.646359)"><g/></g></g><g fill="#553602" fill-opacity="1"><g transform="translate(14.136256, 15.590658)"><g><path d="M 1.046875 -0.78125 L 0.765625 -0.765625 L 0.8125 -0.046875 L 0.265625 -0.015625 L 0.15625 -1.90625 L 0.703125 -1.9375 L 0.75 -1.203125 L 1.046875 -1.21875 L 1.5 -1.984375 L 2.078125 -2.015625 L 1.46875 -1.078125 L 2.234375 -0.125 L 1.59375 -0.09375 Z M 1.046875 -0.78125 "/></g></g></g><g fill="#553602" fill-opacity="1"><g transform="translate(16.344644, 15.461708)"><g><path d="M 1.140625 -0.03125 C 0.941406 -0.0195312 0.757812 -0.0507812 0.59375 -0.125 C 0.4375 -0.195312 0.3125 -0.300781 0.21875 -0.4375 C 0.125 -0.582031 0.0703125 -0.75 0.0625 -0.9375 C 0.0390625 -1.125 0.0703125 -1.289062 0.15625 -1.4375 C 0.238281 -1.59375 0.351562 -1.71875 0.5 -1.8125 C 0.65625 -1.90625 0.832031 -1.957031 1.03125 -1.96875 C 1.238281 -1.976562 1.421875 -1.945312 1.578125 -1.875 C 1.742188 -1.800781 1.875 -1.691406 1.96875 -1.546875 C 2.0625 -1.410156 2.117188 -1.25 2.140625 -1.0625 C 2.148438 -0.875 2.113281 -0.703125 2.03125 -0.546875 C 1.945312 -0.398438 1.828125 -0.28125 1.671875 -0.1875 C 1.523438 -0.09375 1.347656 -0.0390625 1.140625 -0.03125 Z M 1.109375 -0.484375 C 1.253906 -0.492188 1.367188 -0.546875 1.453125 -0.640625 C 1.535156 -0.742188 1.578125 -0.875 1.578125 -1.03125 C 1.566406 -1.1875 1.515625 -1.3125 1.421875 -1.40625 C 1.328125 -1.5 1.207031 -1.539062 1.0625 -1.53125 C 0.925781 -1.519531 0.816406 -1.460938 0.734375 -1.359375 C 0.648438 -1.265625 0.613281 -1.140625 0.625 -0.984375 C 0.625 -0.828125 0.671875 -0.703125 0.765625 -0.609375 C 0.859375 -0.515625 0.972656 -0.472656 1.109375 -0.484375 Z M 1.109375 -0.484375 "/></g></g></g><g fill="#553602" fill-opacity="1"><g transform="translate(18.594963, 15.330309)"><g><path d="M 2.09375 -0.125 L 2.03125 -1.25 L 1.515625 -0.28125 L 1.296875 -0.265625 L 0.6875 -1.171875 L 0.75 -0.046875 L 0.265625 -0.015625 L 0.15625 -1.90625 L 0.71875 -1.9375 L 1.390625 -0.875 L 1.96875 -2.015625 L 2.484375 -2.046875 L 2.59375 -0.15625 Z M 2.09375 -0.125 "/></g></g></g><g fill="#553602" fill-opacity="1"><g transform="translate(21.407864, 15.166061)"><g><path d="M 2.796875 -1.125 C 2.816406 -0.832031 2.734375 -0.59375 2.546875 -0.40625 C 2.367188 -0.226562 2.097656 -0.113281 1.734375 -0.0625 L 1.78125 0.578125 L 1.28125 0.59375 L 1.234375 -0.046875 C 0.867188 -0.046875 0.582031 -0.117188 0.375 -0.265625 C 0.175781 -0.421875 0.0664062 -0.648438 0.046875 -0.953125 C 0.0351562 -1.242188 0.117188 -1.476562 0.296875 -1.65625 C 0.484375 -1.832031 0.757812 -1.941406 1.125 -1.984375 L 1.078125 -2.671875 L 1.578125 -2.6875 L 1.625 -2 C 1.988281 -2.007812 2.269531 -1.9375 2.46875 -1.78125 C 2.675781 -1.625 2.785156 -1.40625 2.796875 -1.125 Z M 0.578125 -0.984375 C 0.585938 -0.816406 0.640625 -0.6875 0.734375 -0.59375 C 0.835938 -0.507812 1 -0.46875 1.21875 -0.46875 L 1.140625 -1.5625 C 0.941406 -1.519531 0.796875 -1.453125 0.703125 -1.359375 C 0.617188 -1.265625 0.578125 -1.140625 0.578125 -0.984375 Z M 1.71875 -0.484375 C 1.914062 -0.523438 2.0625 -0.59375 2.15625 -0.6875 C 2.25 -0.789062 2.289062 -0.925781 2.28125 -1.09375 C 2.28125 -1.25 2.226562 -1.367188 2.125 -1.453125 C 2.019531 -1.535156 1.859375 -1.578125 1.640625 -1.578125 Z M 1.71875 -0.484375 "/></g></g></g><g fill="#553602" fill-opacity="1"><g transform="translate(24.339571, 14.994875)"><g><path d="M 1.140625 -0.03125 C 0.941406 -0.0195312 0.757812 -0.0507812 0.59375 -0.125 C 0.4375 -0.195312 0.3125 -0.300781 0.21875 -0.4375 C 0.125 -0.582031 0.0703125 -0.75 0.0625 -0.9375 C 0.0390625 -1.125 0.0703125 -1.289062 0.15625 -1.4375 C 0.238281 -1.59375 0.351562 -1.71875 0.5 -1.8125 C 0.65625 -1.90625 0.832031 -1.957031 1.03125 -1.96875 C 1.238281 -1.976562 1.421875 -1.945312 1.578125 -1.875 C 1.742188 -1.800781 1.875 -1.691406 1.96875 -1.546875 C 2.0625 -1.410156 2.117188 -1.25 2.140625 -1.0625 C 2.148438 -0.875 2.113281 -0.703125 2.03125 -0.546875 C 1.945312 -0.398438 1.828125 -0.28125 1.671875 -0.1875 C 1.523438 -0.09375 1.347656 -0.0390625 1.140625 -0.03125 Z M 1.109375 -0.484375 C 1.253906 -0.492188 1.367188 -0.546875 1.453125 -0.640625 C 1.535156 -0.742188 1.578125 -0.875 1.578125 -1.03125 C 1.566406 -1.1875 1.515625 -1.3125 1.421875 -1.40625 C 1.328125 -1.5 1.207031 -1.539062 1.0625 -1.53125 C 0.925781 -1.519531 0.816406 -1.460938 0.734375 -1.359375 C 0.648438 -1.265625 0.613281 -1.140625 0.625 -0.984375 C 0.625 -0.828125 0.671875 -0.703125 0.765625 -0.609375 C 0.859375 -0.515625 0.972656 -0.472656 1.109375 -0.484375 Z M 1.109375 -0.484375 "/></g></g></g><g fill="#553602" fill-opacity="1"><g transform="translate(26.589891, 14.863477)"><g><path d="M 1.25 -1.984375 C 1.425781 -1.992188 1.585938 -1.960938 1.734375 -1.890625 C 1.890625 -1.828125 2.007812 -1.722656 2.09375 -1.578125 C 2.175781 -1.441406 2.226562 -1.273438 2.25 -1.078125 C 2.257812 -0.890625 2.226562 -0.71875 2.15625 -0.5625 C 2.082031 -0.414062 1.972656 -0.296875 1.828125 -0.203125 C 1.691406 -0.109375 1.535156 -0.0546875 1.359375 -0.046875 C 1.117188 -0.0351562 0.925781 -0.101562 0.78125 -0.25 L 0.84375 0.625 L 0.296875 0.65625 L 0.140625 -1.90625 L 0.671875 -1.9375 L 0.6875 -1.71875 C 0.800781 -1.882812 0.988281 -1.972656 1.25 -1.984375 Z M 1.234375 -0.5 C 1.378906 -0.507812 1.492188 -0.5625 1.578125 -0.65625 C 1.660156 -0.757812 1.703125 -0.890625 1.703125 -1.046875 C 1.691406 -1.203125 1.640625 -1.328125 1.546875 -1.421875 C 1.453125 -1.515625 1.332031 -1.554688 1.1875 -1.546875 C 1.050781 -1.535156 0.941406 -1.476562 0.859375 -1.375 C 0.773438 -1.269531 0.738281 -1.140625 0.75 -0.984375 C 0.75 -0.828125 0.796875 -0.703125 0.890625 -0.609375 C 0.984375 -0.523438 1.097656 -0.488281 1.234375 -0.5 Z M 1.234375 -0.5 "/></g></g></g><g fill="#553602" fill-opacity="1"><g transform="translate(28.979981, 14.723917)"><g><path d="M 1.765625 -1.546875 L 1.125 -1.5 L 1.203125 -0.0625 L 0.671875 -0.046875 L 0.59375 -1.484375 L -0.046875 -1.4375 L -0.078125 -1.890625 L 1.734375 -2 Z M 1.765625 -1.546875 "/></g></g></g><g fill="#553602" fill-opacity="1"><g transform="translate(30.814479, 14.616799)"><g><path d="M 0.15625 -1.90625 L 0.703125 -1.9375 L 0.75 -1.1875 L 1.5625 -1.234375 L 1.515625 -1.984375 L 2.0625 -2.015625 L 2.171875 -0.125 L 1.625 -0.09375 L 1.578125 -0.796875 L 0.765625 -0.75 L 0.8125 -0.046875 L 0.265625 -0.015625 Z M 0.15625 -1.90625 "/></g></g></g><g fill="#553602" fill-opacity="1"><g transform="translate(33.204569, 14.477239)"><g><path d="M 2.046875 -1.0625 C 2.046875 -1.050781 2.046875 -1 2.046875 -0.90625 L 0.609375 -0.8125 C 0.648438 -0.707031 0.71875 -0.625 0.8125 -0.5625 C 0.90625 -0.5 1.023438 -0.46875 1.171875 -0.46875 C 1.265625 -0.476562 1.347656 -0.5 1.421875 -0.53125 C 1.503906 -0.570312 1.578125 -0.625 1.640625 -0.6875 L 1.953125 -0.390625 C 1.785156 -0.171875 1.53125 -0.0507812 1.1875 -0.03125 C 0.976562 -0.0195312 0.785156 -0.0507812 0.609375 -0.125 C 0.441406 -0.195312 0.3125 -0.300781 0.21875 -0.4375 C 0.125 -0.582031 0.0703125 -0.75 0.0625 -0.9375 C 0.0390625 -1.125 0.0703125 -1.289062 0.15625 -1.4375 C 0.238281 -1.59375 0.351562 -1.71875 0.5 -1.8125 C 0.644531 -1.90625 0.8125 -1.957031 1 -1.96875 C 1.1875 -1.976562 1.359375 -1.945312 1.515625 -1.875 C 1.671875 -1.8125 1.789062 -1.707031 1.875 -1.5625 C 1.96875 -1.425781 2.023438 -1.257812 2.046875 -1.0625 Z M 1.03125 -1.5625 C 0.90625 -1.550781 0.800781 -1.507812 0.71875 -1.4375 C 0.644531 -1.363281 0.601562 -1.265625 0.59375 -1.140625 L 1.515625 -1.203125 C 1.484375 -1.316406 1.421875 -1.40625 1.328125 -1.46875 C 1.242188 -1.539062 1.144531 -1.570312 1.03125 -1.5625 Z M 1.03125 -1.5625 "/></g></g></g><g fill="#553602" fill-opacity="1"><g transform="translate(35.416452, 14.348084)"><g><path d="M 2.046875 -1.0625 C 2.046875 -1.050781 2.046875 -1 2.046875 -0.90625 L 0.609375 -0.8125 C 0.648438 -0.707031 0.71875 -0.625 0.8125 -0.5625 C 0.90625 -0.5 1.023438 -0.46875 1.171875 -0.46875 C 1.265625 -0.476562 1.347656 -0.5 1.421875 -0.53125 C 1.503906 -0.570312 1.578125 -0.625 1.640625 -0.6875 L 1.953125 -0.390625 C 1.785156 -0.171875 1.53125 -0.0507812 1.1875 -0.03125 C 0.976562 -0.0195312 0.785156 -0.0507812 0.609375 -0.125 C 0.441406 -0.195312 0.3125 -0.300781 0.21875 -0.4375 C 0.125 -0.582031 0.0703125 -0.75 0.0625 -0.9375 C 0.0390625 -1.125 0.0703125 -1.289062 0.15625 -1.4375 C 0.238281 -1.59375 0.351562 -1.71875 0.5 -1.8125 C 0.644531 -1.90625 0.8125 -1.957031 1 -1.96875 C 1.1875 -1.976562 1.359375 -1.945312 1.515625 -1.875 C 1.671875 -1.8125 1.789062 -1.707031 1.875 -1.5625 C 1.96875 -1.425781 2.023438 -1.257812 2.046875 -1.0625 Z M 1.03125 -1.5625 C 0.90625 -1.550781 0.800781 -1.507812 0.71875 -1.4375 C 0.644531 -1.363281 0.601562 -1.265625 0.59375 -1.140625 L 1.515625 -1.203125 C 1.484375 -1.316406 1.421875 -1.40625 1.328125 -1.46875 C 1.242188 -1.539062 1.144531 -1.570312 1.03125 -1.5625 Z M 1.03125 -1.5625 "/></g></g></g><g fill="#553602" fill-opacity="1"><g transform="translate(37.628334, 14.21893)"><g/></g></g><g fill="#553602" fill-opacity="1"><g transform="translate(38.582271, 14.163229)"><g><path d="M 1.25 -1.984375 C 1.425781 -1.992188 1.585938 -1.960938 1.734375 -1.890625 C 1.890625 -1.828125 2.007812 -1.722656 2.09375 -1.578125 C 2.175781 -1.441406 2.226562 -1.273438 2.25 -1.078125 C 2.257812 -0.890625 2.226562 -0.71875 2.15625 -0.5625 C 2.082031 -0.414062 1.972656 -0.296875 1.828125 -0.203125 C 1.691406 -0.109375 1.535156 -0.0546875 1.359375 -0.046875 C 1.117188 -0.0351562 0.925781 -0.101562 0.78125 -0.25 L 0.84375 0.625 L 0.296875 0.65625 L 0.140625 -1.90625 L 0.671875 -1.9375 L 0.6875 -1.71875 C 0.800781 -1.882812 0.988281 -1.972656 1.25 -1.984375 Z M 1.234375 -0.5 C 1.378906 -0.507812 1.492188 -0.5625 1.578125 -0.65625 C 1.660156 -0.757812 1.703125 -0.890625 1.703125 -1.046875 C 1.691406 -1.203125 1.640625 -1.328125 1.546875 -1.421875 C 1.453125 -1.515625 1.332031 -1.554688 1.1875 -1.546875 C 1.050781 -1.535156 0.941406 -1.476562 0.859375 -1.375 C 0.773438 -1.269531 0.738281 -1.140625 0.75 -0.984375 C 0.75 -0.828125 0.796875 -0.703125 0.890625 -0.609375 C 0.984375 -0.523438 1.097656 -0.488281 1.234375 -0.5 Z M 1.234375 -0.5 "/></g></g></g><g fill="#553602" fill-opacity="1"><g transform="translate(40.972362, 14.023669)"><g><path d="M 0.890625 -1.96875 C 1.179688 -1.976562 1.40625 -1.921875 1.5625 -1.796875 C 1.726562 -1.671875 1.820312 -1.46875 1.84375 -1.1875 L 1.90625 -0.109375 L 1.390625 -0.078125 L 1.375 -0.3125 C 1.28125 -0.132812 1.09375 -0.0351562 0.8125 -0.015625 C 0.664062 -0.00390625 0.539062 -0.0195312 0.4375 -0.0625 C 0.332031 -0.113281 0.25 -0.175781 0.1875 -0.25 C 0.125 -0.332031 0.0859375 -0.429688 0.078125 -0.546875 C 0.0664062 -0.722656 0.125 -0.863281 0.25 -0.96875 C 0.382812 -1.082031 0.585938 -1.144531 0.859375 -1.15625 L 1.296875 -1.1875 C 1.285156 -1.300781 1.238281 -1.390625 1.15625 -1.453125 C 1.082031 -1.515625 0.972656 -1.539062 0.828125 -1.53125 C 0.722656 -1.53125 0.625 -1.507812 0.53125 -1.46875 C 0.445312 -1.425781 0.367188 -1.375 0.296875 -1.3125 L 0.09375 -1.703125 C 0.1875 -1.773438 0.300781 -1.832031 0.4375 -1.875 C 0.582031 -1.925781 0.734375 -1.957031 0.890625 -1.96875 Z M 0.9375 -0.40625 C 1.03125 -0.40625 1.109375 -0.425781 1.171875 -0.46875 C 1.242188 -0.519531 1.296875 -0.585938 1.328125 -0.671875 L 1.3125 -0.859375 L 0.9375 -0.84375 C 0.707031 -0.820312 0.597656 -0.738281 0.609375 -0.59375 C 0.609375 -0.53125 0.640625 -0.476562 0.703125 -0.4375 C 0.765625 -0.40625 0.84375 -0.394531 0.9375 -0.40625 Z M 0.9375 -0.40625 "/></g></g></g><g fill="#553602" fill-opacity="1"><g transform="translate(43.047968, 13.902472)"><g><path d="M 1.234375 -1.828125 C 1.421875 -1.835938 1.582031 -1.8125 1.71875 -1.75 C 1.863281 -1.6875 1.976562 -1.585938 2.0625 -1.453125 C 2.144531 -1.328125 2.191406 -1.175781 2.203125 -1 C 2.210938 -0.820312 2.175781 -0.660156 2.09375 -0.515625 C 2.007812 -0.367188 1.890625 -0.253906 1.734375 -0.171875 C 1.585938 -0.0859375 1.414062 -0.0390625 1.21875 -0.03125 C 0.882812 -0.0078125 0.617188 -0.0976562 0.421875 -0.296875 C 0.222656 -0.503906 0.113281 -0.8125 0.09375 -1.21875 C 0.0625 -1.59375 0.125 -1.894531 0.28125 -2.125 C 0.4375 -2.363281 0.679688 -2.523438 1.015625 -2.609375 L 1.90625 -2.859375 L 2.015625 -2.390625 L 1.21875 -2.1875 C 1 -2.132812 0.835938 -2.054688 0.734375 -1.953125 C 0.640625 -1.847656 0.59375 -1.707031 0.59375 -1.53125 C 0.675781 -1.613281 0.769531 -1.679688 0.875 -1.734375 C 0.976562 -1.785156 1.097656 -1.816406 1.234375 -1.828125 Z M 1.203125 -0.453125 C 1.347656 -0.453125 1.457031 -0.5 1.53125 -0.59375 C 1.613281 -0.695312 1.648438 -0.816406 1.640625 -0.953125 C 1.628906 -1.097656 1.578125 -1.207031 1.484375 -1.28125 C 1.398438 -1.363281 1.285156 -1.40625 1.140625 -1.40625 C 1.003906 -1.394531 0.894531 -1.34375 0.8125 -1.25 C 0.726562 -1.164062 0.691406 -1.050781 0.703125 -0.90625 C 0.710938 -0.769531 0.765625 -0.65625 0.859375 -0.5625 C 0.953125 -0.476562 1.066406 -0.441406 1.203125 -0.453125 Z M 1.203125 -0.453125 "/></g></g></g><g fill="#553602" fill-opacity="1"><g transform="translate(45.36468, 13.767197)"><g><path d="M 1.140625 -0.03125 C 0.941406 -0.0195312 0.757812 -0.0507812 0.59375 -0.125 C 0.4375 -0.195312 0.3125 -0.300781 0.21875 -0.4375 C 0.125 -0.582031 0.0703125 -0.75 0.0625 -0.9375 C 0.0390625 -1.125 0.0703125 -1.289062 0.15625 -1.4375 C 0.238281 -1.59375 0.351562 -1.71875 0.5 -1.8125 C 0.65625 -1.90625 0.832031 -1.957031 1.03125 -1.96875 C 1.238281 -1.976562 1.421875 -1.945312 1.578125 -1.875 C 1.742188 -1.800781 1.875 -1.691406 1.96875 -1.546875 C 2.0625 -1.410156 2.117188 -1.25 2.140625 -1.0625 C 2.148438 -0.875 2.113281 -0.703125 2.03125 -0.546875 C 1.945312 -0.398438 1.828125 -0.28125 1.671875 -0.1875 C 1.523438 -0.09375 1.347656 -0.0390625 1.140625 -0.03125 Z M 1.109375 -0.484375 C 1.253906 -0.492188 1.367188 -0.546875 1.453125 -0.640625 C 1.535156 -0.742188 1.578125 -0.875 1.578125 -1.03125 C 1.566406 -1.1875 1.515625 -1.3125 1.421875 -1.40625 C 1.328125 -1.5 1.207031 -1.539062 1.0625 -1.53125 C 0.925781 -1.519531 0.816406 -1.460938 0.734375 -1.359375 C 0.648438 -1.265625 0.613281 -1.140625 0.625 -0.984375 C 0.625 -0.828125 0.671875 -0.703125 0.765625 -0.609375 C 0.859375 -0.515625 0.972656 -0.472656 1.109375 -0.484375 Z M 1.109375 -0.484375 "/></g></g></g><g fill="#553602" fill-opacity="1"><g transform="translate(47.614999, 13.635798)"><g><path d="M 1.765625 -1.546875 L 1.125 -1.5 L 1.203125 -0.0625 L 0.671875 -0.046875 L 0.59375 -1.484375 L -0.046875 -1.4375 L -0.078125 -1.890625 L 1.734375 -2 Z M 1.765625 -1.546875 "/></g></g></g><g fill="#553602" fill-opacity="1"><g transform="translate(49.449496, 13.52868)"><g><path d="M 0.890625 -1.96875 C 1.179688 -1.976562 1.40625 -1.921875 1.5625 -1.796875 C 1.726562 -1.671875 1.820312 -1.46875 1.84375 -1.1875 L 1.90625 -0.109375 L 1.390625 -0.078125 L 1.375 -0.3125 C 1.28125 -0.132812 1.09375 -0.0351562 0.8125 -0.015625 C 0.664062 -0.00390625 0.539062 -0.0195312 0.4375 -0.0625 C 0.332031 -0.113281 0.25 -0.175781 0.1875 -0.25 C 0.125 -0.332031 0.0859375 -0.429688 0.078125 -0.546875 C 0.0664062 -0.722656 0.125 -0.863281 0.25 -0.96875 C 0.382812 -1.082031 0.585938 -1.144531 0.859375 -1.15625 L 1.296875 -1.1875 C 1.285156 -1.300781 1.238281 -1.390625 1.15625 -1.453125 C 1.082031 -1.515625 0.972656 -1.539062 0.828125 -1.53125 C 0.722656 -1.53125 0.625 -1.507812 0.53125 -1.46875 C 0.445312 -1.425781 0.367188 -1.375 0.296875 -1.3125 L 0.09375 -1.703125 C 0.1875 -1.773438 0.300781 -1.832031 0.4375 -1.875 C 0.582031 -1.925781 0.734375 -1.957031 0.890625 -1.96875 Z M 0.9375 -0.40625 C 1.03125 -0.40625 1.109375 -0.425781 1.171875 -0.46875 C 1.242188 -0.519531 1.296875 -0.585938 1.328125 -0.671875 L 1.3125 -0.859375 L 0.9375 -0.84375 C 0.707031 -0.820312 0.597656 -0.738281 0.609375 -0.59375 C 0.609375 -0.53125 0.640625 -0.476562 0.703125 -0.4375 C 0.765625 -0.40625 0.84375 -0.394531 0.9375 -0.40625 Z M 0.9375 -0.40625 "/></g></g></g><g fill="#553602" fill-opacity="1"><g transform="translate(51.525102, 13.407483)"><g><path d="M 1.765625 -1.546875 L 1.125 -1.5 L 1.203125 -0.0625 L 0.671875 -0.046875 L 0.59375 -1.484375 L -0.046875 -1.4375 L -0.078125 -1.890625 L 1.734375 -2 Z M 1.765625 -1.546875 "/></g></g></g><g fill="#553602" fill-opacity="1"><g transform="translate(53.359599, 13.300365)"><g><path d="M 1.203125 -1.359375 C 1.453125 -1.367188 1.644531 -1.320312 1.78125 -1.21875 C 1.914062 -1.125 1.992188 -0.976562 2.015625 -0.78125 C 2.023438 -0.570312 1.957031 -0.40625 1.8125 -0.28125 C 1.675781 -0.15625 1.472656 -0.0820312 1.203125 -0.0625 L 0.265625 -0.015625 L 0.15625 -1.90625 L 0.703125 -1.9375 L 0.734375 -1.328125 Z M 1.140625 -0.453125 C 1.242188 -0.453125 1.320312 -0.476562 1.375 -0.53125 C 1.425781 -0.582031 1.453125 -0.65625 1.453125 -0.75 C 1.441406 -0.84375 1.40625 -0.90625 1.34375 -0.9375 C 1.289062 -0.976562 1.210938 -0.992188 1.109375 -0.984375 L 0.765625 -0.984375 L 0.796875 -0.4375 Z M 1.140625 -0.453125 "/></g></g></g></g></g><g transform="matrix(1, 0, 0, 1, 14, 48)"><g clip-path="url(#5a792fdb60)"><g fill="#553602" fill-opacity="1"><g transform="translate(0.959657, 6.373439)"><g><path d="M 1.09375 -0.046875 C 0.914062 -0.0351562 0.753906 -0.0625 0.609375 -0.125 C 0.472656 -0.1875 0.363281 -0.273438 0.28125 -0.390625 C 0.207031 -0.503906 0.164062 -0.640625 0.15625 -0.796875 C 0.144531 -1.003906 0.179688 -1.195312 0.265625 -1.375 C 0.359375 -1.5625 0.488281 -1.710938 0.65625 -1.828125 C 0.832031 -1.941406 1.035156 -2.003906 1.265625 -2.015625 C 1.410156 -2.023438 1.539062 -2.003906 1.65625 -1.953125 C 1.78125 -1.910156 1.878906 -1.851562 1.953125 -1.78125 L 1.8125 -1.640625 C 1.6875 -1.773438 1.5 -1.835938 1.25 -1.828125 C 1.0625 -1.816406 0.894531 -1.757812 0.75 -1.65625 C 0.613281 -1.5625 0.507812 -1.441406 0.4375 -1.296875 C 0.375 -1.148438 0.347656 -0.992188 0.359375 -0.828125 C 0.367188 -0.628906 0.4375 -0.476562 0.5625 -0.375 C 0.695312 -0.269531 0.875 -0.222656 1.09375 -0.234375 C 1.34375 -0.253906 1.546875 -0.335938 1.703125 -0.484375 L 1.828125 -0.359375 C 1.753906 -0.265625 1.648438 -0.191406 1.515625 -0.140625 C 1.390625 -0.0859375 1.25 -0.0546875 1.09375 -0.046875 Z M 1.09375 -0.046875 "/></g></g></g><g fill="#553602" fill-opacity="1"><g transform="translate(2.934317, 6.258137)"><g/></g></g><g fill="#553602" fill-opacity="1"><g transform="translate(3.621632, 6.218004)"><g><path d="M 1.5625 -1.53125 L 0.609375 0.15625 C 0.515625 0.289062 0.429688 0.382812 0.359375 0.4375 C 0.296875 0.5 0.210938 0.535156 0.109375 0.546875 C 0.0351562 0.546875 -0.03125 0.535156 -0.09375 0.515625 C -0.15625 0.492188 -0.203125 0.46875 -0.234375 0.4375 L -0.15625 0.296875 C -0.0820312 0.347656 0.00390625 0.375 0.109375 0.375 C 0.171875 0.363281 0.222656 0.34375 0.265625 0.3125 C 0.316406 0.28125 0.375 0.210938 0.4375 0.109375 L 0.515625 -0.046875 L 0.078125 -1.453125 L 0.28125 -1.453125 L 0.640625 -0.25 L 1.359375 -1.515625 Z M 1.5625 -1.53125 "/></g></g></g><g fill="#553602" fill-opacity="1"><g transform="translate(5.116264, 6.130731)"><g><path d="M 1.140625 -0.796875 C 1.296875 -0.773438 1.378906 -0.6875 1.390625 -0.53125 C 1.398438 -0.382812 1.351562 -0.269531 1.25 -0.1875 C 1.144531 -0.101562 0.992188 -0.0546875 0.796875 -0.046875 L 0.125 0 L 0.34375 -1.46875 L 0.96875 -1.5 C 1.125 -1.507812 1.238281 -1.488281 1.3125 -1.4375 C 1.394531 -1.394531 1.441406 -1.320312 1.453125 -1.21875 C 1.453125 -1.125 1.425781 -1.039062 1.375 -0.96875 C 1.320312 -0.894531 1.242188 -0.835938 1.140625 -0.796875 Z M 0.4375 -0.828125 L 0.859375 -0.84375 C 0.984375 -0.851562 1.078125 -0.882812 1.140625 -0.9375 C 1.210938 -1 1.25 -1.070312 1.25 -1.15625 C 1.238281 -1.289062 1.132812 -1.351562 0.9375 -1.34375 L 0.5 -1.3125 Z M 0.796875 -0.203125 C 0.929688 -0.210938 1.035156 -0.242188 1.109375 -0.296875 C 1.179688 -0.359375 1.210938 -0.4375 1.203125 -0.53125 C 1.203125 -0.601562 1.175781 -0.648438 1.125 -0.671875 C 1.082031 -0.703125 1.007812 -0.710938 0.90625 -0.703125 L 0.421875 -0.6875 L 0.34375 -0.171875 Z M 0.796875 -0.203125 "/></g></g></g><g fill="#553602" fill-opacity="1"><g transform="translate(6.747269, 6.035495)"><g><path d="M 1.6875 -1.546875 L 1.46875 -0.078125 L 1.28125 -0.078125 L 1.3125 -0.3125 C 1.257812 -0.226562 1.179688 -0.160156 1.078125 -0.109375 C 0.984375 -0.0546875 0.878906 -0.03125 0.765625 -0.03125 C 0.648438 -0.0195312 0.539062 -0.0351562 0.4375 -0.078125 C 0.34375 -0.128906 0.265625 -0.195312 0.203125 -0.28125 C 0.140625 -0.375 0.109375 -0.484375 0.109375 -0.609375 C 0.0976562 -0.773438 0.125 -0.921875 0.1875 -1.046875 C 0.25 -1.179688 0.34375 -1.289062 0.46875 -1.375 C 0.59375 -1.457031 0.726562 -1.503906 0.875 -1.515625 C 1.007812 -1.515625 1.125 -1.488281 1.21875 -1.4375 C 1.3125 -1.382812 1.382812 -1.316406 1.4375 -1.234375 L 1.484375 -1.53125 Z M 0.796875 -0.203125 C 0.910156 -0.210938 1.015625 -0.25 1.109375 -0.3125 C 1.210938 -0.375 1.285156 -0.457031 1.328125 -0.5625 C 1.378906 -0.664062 1.398438 -0.78125 1.390625 -0.90625 C 1.378906 -1.050781 1.328125 -1.160156 1.234375 -1.234375 C 1.148438 -1.304688 1.035156 -1.34375 0.890625 -1.34375 C 0.765625 -1.332031 0.65625 -1.296875 0.5625 -1.234375 C 0.476562 -1.171875 0.410156 -1.082031 0.359375 -0.96875 C 0.316406 -0.863281 0.300781 -0.75 0.3125 -0.625 C 0.320312 -0.476562 0.367188 -0.367188 0.453125 -0.296875 C 0.535156 -0.222656 0.648438 -0.191406 0.796875 -0.203125 Z M 0.796875 -0.203125 "/></g></g></g><g fill="#553602" fill-opacity="1"><g transform="translate(8.599193, 5.927359)"><g><path d="M 1.640625 -0.8125 L 2.0625 -0.125 L 1.84375 -0.109375 L 1.484375 -0.734375 L 1.1875 -0.71875 L 1.078125 -0.0625 L 0.890625 -0.046875 L 0.984375 -0.703125 L 0.6875 -0.6875 L 0.140625 -0.015625 L -0.09375 0 L 0.53125 -0.78125 L 0.15625 -1.453125 L 0.359375 -1.46875 L 0.6875 -0.84375 L 1 -0.859375 L 1.09375 -1.5 L 1.296875 -1.515625 L 1.203125 -0.875 L 1.5 -0.890625 L 2.03125 -1.5625 L 2.25 -1.578125 Z M 1.640625 -0.8125 "/></g></g></g><g fill="#553602" fill-opacity="1"><g transform="translate(10.775686, 5.800271)"><g><path d="M 0.296875 -0.6875 C 0.304688 -0.664062 0.3125 -0.644531 0.3125 -0.625 C 0.320312 -0.476562 0.367188 -0.367188 0.453125 -0.296875 C 0.535156 -0.222656 0.65625 -0.191406 0.8125 -0.203125 C 0.90625 -0.210938 0.992188 -0.234375 1.078125 -0.265625 C 1.160156 -0.304688 1.226562 -0.359375 1.28125 -0.421875 L 1.375 -0.28125 C 1.320312 -0.207031 1.242188 -0.148438 1.140625 -0.109375 C 1.035156 -0.0664062 0.925781 -0.0390625 0.8125 -0.03125 C 0.601562 -0.0195312 0.4375 -0.0664062 0.3125 -0.171875 C 0.1875 -0.273438 0.117188 -0.421875 0.109375 -0.609375 C 0.0976562 -0.773438 0.117188 -0.921875 0.171875 -1.046875 C 0.234375 -1.179688 0.328125 -1.289062 0.453125 -1.375 C 0.578125 -1.457031 0.710938 -1.5 0.859375 -1.5 C 1.054688 -1.519531 1.210938 -1.476562 1.328125 -1.375 C 1.441406 -1.269531 1.503906 -1.125 1.515625 -0.9375 C 1.515625 -0.882812 1.507812 -0.828125 1.5 -0.765625 Z M 0.859375 -1.328125 C 0.710938 -1.328125 0.59375 -1.28125 0.5 -1.1875 C 0.40625 -1.101562 0.34375 -0.984375 0.3125 -0.828125 L 1.34375 -0.890625 C 1.34375 -0.898438 1.34375 -0.914062 1.34375 -0.9375 C 1.332031 -1.070312 1.28125 -1.171875 1.1875 -1.234375 C 1.101562 -1.304688 0.992188 -1.335938 0.859375 -1.328125 Z M 0.859375 -1.328125 "/></g></g></g><g fill="#553602" fill-opacity="1"><g transform="translate(12.447603, 5.702646)"><g><path d="M 0.34375 -1.46875 L 0.53125 -1.46875 L 0.4375 -0.828125 L 1.34375 -0.875 L 1.4375 -1.53125 L 1.640625 -1.53125 L 1.421875 -0.078125 L 1.234375 -0.078125 L 1.328125 -0.71875 L 0.421875 -0.671875 L 0.328125 -0.015625 L 0.125 0 Z M 0.34375 -1.46875 "/></g></g></g><g fill="#553602" fill-opacity="1"><g transform="translate(14.258618, 5.596899)"><g><path d="M 0.34375 -1.46875 L 0.53125 -1.46875 L 0.375 -0.296875 L 1.484375 -1.53125 L 1.671875 -1.546875 L 1.46875 -0.078125 L 1.265625 -0.078125 L 1.4375 -1.25 L 0.3125 -0.015625 L 0.125 0 Z M 0.34375 -1.46875 "/></g></g></g><g fill="#553602" fill-opacity="1"><g transform="translate(16.107817, 5.488922)"><g><path d="M 0.296875 -0.6875 C 0.304688 -0.664062 0.3125 -0.644531 0.3125 -0.625 C 0.320312 -0.476562 0.367188 -0.367188 0.453125 -0.296875 C 0.535156 -0.222656 0.65625 -0.191406 0.8125 -0.203125 C 0.90625 -0.210938 0.992188 -0.234375 1.078125 -0.265625 C 1.160156 -0.304688 1.226562 -0.359375 1.28125 -0.421875 L 1.375 -0.28125 C 1.320312 -0.207031 1.242188 -0.148438 1.140625 -0.109375 C 1.035156 -0.0664062 0.925781 -0.0390625 0.8125 -0.03125 C 0.601562 -0.0195312 0.4375 -0.0664062 0.3125 -0.171875 C 0.1875 -0.273438 0.117188 -0.421875 0.109375 -0.609375 C 0.0976562 -0.773438 0.117188 -0.921875 0.171875 -1.046875 C 0.234375 -1.179688 0.328125 -1.289062 0.453125 -1.375 C 0.578125 -1.457031 0.710938 -1.5 0.859375 -1.5 C 1.054688 -1.519531 1.210938 -1.476562 1.328125 -1.375 C 1.441406 -1.269531 1.503906 -1.125 1.515625 -0.9375 C 1.515625 -0.882812 1.507812 -0.828125 1.5 -0.765625 Z M 0.859375 -1.328125 C 0.710938 -1.328125 0.59375 -1.28125 0.5 -1.1875 C 0.40625 -1.101562 0.34375 -0.984375 0.3125 -0.828125 L 1.34375 -0.890625 C 1.34375 -0.898438 1.34375 -0.914062 1.34375 -0.9375 C 1.332031 -1.070312 1.28125 -1.171875 1.1875 -1.234375 C 1.101562 -1.304688 0.992188 -1.335938 0.859375 -1.328125 Z M 0.859375 -1.328125 "/></g></g></g><g fill="#553602" fill-opacity="1"><g transform="translate(17.779734, 5.391297)"><g><path d="M 1.953125 -1.5625 L 1.734375 -0.09375 L 1.5625 -0.09375 L 1.71875 -1.25 L 1 -0.234375 L 0.90625 -0.21875 L 0.46875 -1.1875 L 0.3125 -0.015625 L 0.125 0 L 0.34375 -1.46875 L 0.53125 -1.46875 L 0.984375 -0.46875 L 1.765625 -1.546875 Z M 1.953125 -1.5625 "/></g></g></g><g fill="#553602" fill-opacity="1"><g transform="translate(19.904403, 5.267235)"><g><path d="M 0.171875 -0.296875 C 0.203125 -0.296875 0.226562 -0.28125 0.25 -0.25 C 0.28125 -0.226562 0.296875 -0.195312 0.296875 -0.15625 C 0.304688 -0.132812 0.304688 -0.113281 0.296875 -0.09375 C 0.296875 -0.0703125 0.285156 -0.046875 0.265625 -0.015625 L 0.09375 0.40625 L -0.046875 0.40625 L 0.109375 0 C 0.078125 -0.0078125 0.0546875 -0.0234375 0.046875 -0.046875 C 0.0351562 -0.078125 0.03125 -0.101562 0.03125 -0.125 C 0.0195312 -0.164062 0.03125 -0.203125 0.0625 -0.234375 C 0.09375 -0.265625 0.128906 -0.285156 0.171875 -0.296875 Z M 0.171875 -0.296875 "/></g></g></g><g fill="#553602" fill-opacity="1"><g transform="translate(20.455346, 5.235065)"><g/></g></g><g fill="#553602" fill-opacity="1"><g transform="translate(21.142661, 5.194932)"><g><path d="M 0.90625 -0.796875 L 1.40625 -0.078125 L 1.1875 -0.0625 L 0.765625 -0.6875 L 0.421875 -0.671875 L 0.328125 -0.015625 L 0.125 0 L 0.34375 -1.46875 L 0.53125 -1.46875 L 0.4375 -0.84375 L 0.765625 -0.859375 L 1.359375 -1.515625 L 1.578125 -1.53125 Z M 0.90625 -0.796875 "/></g></g></g><g fill="#553602" fill-opacity="1"><g transform="translate(22.642749, 5.10734)"><g><path d="M 0.78125 -0.03125 C 0.65625 -0.0195312 0.539062 -0.0351562 0.4375 -0.078125 C 0.332031 -0.128906 0.25 -0.195312 0.1875 -0.28125 C 0.125 -0.363281 0.09375 -0.46875 0.09375 -0.59375 C 0.0820312 -0.757812 0.109375 -0.910156 0.171875 -1.046875 C 0.234375 -1.179688 0.328125 -1.289062 0.453125 -1.375 C 0.578125 -1.457031 0.722656 -1.503906 0.890625 -1.515625 C 1.085938 -1.523438 1.242188 -1.476562 1.359375 -1.375 C 1.484375 -1.269531 1.550781 -1.125 1.5625 -0.9375 C 1.570312 -0.769531 1.546875 -0.617188 1.484375 -0.484375 C 1.421875 -0.347656 1.328125 -0.238281 1.203125 -0.15625 C 1.078125 -0.0820312 0.9375 -0.0390625 0.78125 -0.03125 Z M 0.78125 -0.203125 C 0.894531 -0.210938 1 -0.25 1.09375 -0.3125 C 1.195312 -0.375 1.269531 -0.457031 1.3125 -0.5625 C 1.363281 -0.664062 1.382812 -0.78125 1.375 -0.90625 C 1.363281 -1.050781 1.3125 -1.160156 1.21875 -1.234375 C 1.132812 -1.304688 1.019531 -1.34375 0.875 -1.34375 C 0.75 -1.332031 0.640625 -1.296875 0.546875 -1.234375 C 0.460938 -1.171875 0.394531 -1.082031 0.34375 -0.96875 C 0.300781 -0.863281 0.285156 -0.75 0.296875 -0.625 C 0.304688 -0.476562 0.351562 -0.367188 0.4375 -0.296875 C 0.519531 -0.222656 0.632812 -0.191406 0.78125 -0.203125 Z M 0.78125 -0.203125 "/></g></g></g><g fill="#553602" fill-opacity="1"><g transform="translate(24.371941, 5.006371)"><g><path d="M 1.953125 -1.5625 L 1.734375 -0.09375 L 1.5625 -0.09375 L 1.71875 -1.25 L 1 -0.234375 L 0.90625 -0.21875 L 0.46875 -1.1875 L 0.3125 -0.015625 L 0.125 0 L 0.34375 -1.46875 L 0.53125 -1.46875 L 0.984375 -0.46875 L 1.765625 -1.546875 Z M 1.953125 -1.5625 "/></g></g></g><g fill="#553602" fill-opacity="1"><g transform="translate(26.49661, 4.882309)"><g><path d="M 1.6875 -1.546875 L 1.46875 -0.078125 L 1.28125 -0.078125 L 1.3125 -0.3125 C 1.257812 -0.226562 1.179688 -0.160156 1.078125 -0.109375 C 0.984375 -0.0546875 0.878906 -0.03125 0.765625 -0.03125 C 0.648438 -0.0195312 0.539062 -0.0351562 0.4375 -0.078125 C 0.34375 -0.128906 0.265625 -0.195312 0.203125 -0.28125 C 0.140625 -0.375 0.109375 -0.484375 0.109375 -0.609375 C 0.0976562 -0.773438 0.125 -0.921875 0.1875 -1.046875 C 0.25 -1.179688 0.34375 -1.289062 0.46875 -1.375 C 0.59375 -1.457031 0.726562 -1.503906 0.875 -1.515625 C 1.007812 -1.515625 1.125 -1.488281 1.21875 -1.4375 C 1.3125 -1.382812 1.382812 -1.316406 1.4375 -1.234375 L 1.484375 -1.53125 Z M 0.796875 -0.203125 C 0.910156 -0.210938 1.015625 -0.25 1.109375 -0.3125 C 1.210938 -0.375 1.285156 -0.457031 1.328125 -0.5625 C 1.378906 -0.664062 1.398438 -0.78125 1.390625 -0.90625 C 1.378906 -1.050781 1.328125 -1.160156 1.234375 -1.234375 C 1.148438 -1.304688 1.035156 -1.34375 0.890625 -1.34375 C 0.765625 -1.332031 0.65625 -1.296875 0.5625 -1.234375 C 0.476562 -1.171875 0.410156 -1.082031 0.359375 -0.96875 C 0.316406 -0.863281 0.300781 -0.75 0.3125 -0.625 C 0.320312 -0.476562 0.367188 -0.367188 0.453125 -0.296875 C 0.535156 -0.222656 0.648438 -0.191406 0.796875 -0.203125 Z M 0.796875 -0.203125 "/></g></g></g><g fill="#553602" fill-opacity="1"><g transform="translate(28.348535, 4.774173)"><g><path d="M 0.34375 -1.46875 L 0.53125 -1.46875 L 0.4375 -0.828125 L 1.34375 -0.875 L 1.4375 -1.53125 L 1.640625 -1.53125 L 1.421875 -0.078125 L 1.234375 -0.078125 L 1.328125 -0.71875 L 0.421875 -0.671875 L 0.328125 -0.015625 L 0.125 0 Z M 0.34375 -1.46875 "/></g></g></g><g fill="#553602" fill-opacity="1"><g transform="translate(30.15955, 4.668426)"><g><path d="M 1.328125 -0.25 L 1.546875 -0.265625 L 1.484375 0.265625 L 1.296875 0.265625 L 1.359375 -0.078125 L 0.0625 0 L 0.015625 0.34375 L -0.171875 0.359375 L -0.09375 -0.171875 L -0.03125 -0.171875 C 0.0703125 -0.179688 0.148438 -0.253906 0.203125 -0.390625 C 0.265625 -0.535156 0.316406 -0.738281 0.359375 -1 L 0.453125 -1.46875 L 1.515625 -1.53125 Z M 0.546875 -0.96875 C 0.503906 -0.757812 0.460938 -0.585938 0.421875 -0.453125 C 0.378906 -0.328125 0.320312 -0.238281 0.25 -0.1875 L 1.140625 -0.234375 L 1.296875 -1.34375 L 0.59375 -1.3125 Z M 0.546875 -0.96875 "/></g></g></g><g fill="#553602" fill-opacity="1"><g transform="translate(31.905105, 4.566501)"><g><path d="M 1.6875 -1.546875 L 1.46875 -0.078125 L 1.28125 -0.078125 L 1.3125 -0.3125 C 1.257812 -0.226562 1.179688 -0.160156 1.078125 -0.109375 C 0.984375 -0.0546875 0.878906 -0.03125 0.765625 -0.03125 C 0.648438 -0.0195312 0.539062 -0.0351562 0.4375 -0.078125 C 0.34375 -0.128906 0.265625 -0.195312 0.203125 -0.28125 C 0.140625 -0.375 0.109375 -0.484375 0.109375 -0.609375 C 0.0976562 -0.773438 0.125 -0.921875 0.1875 -1.046875 C 0.25 -1.179688 0.34375 -1.289062 0.46875 -1.375 C 0.59375 -1.457031 0.726562 -1.503906 0.875 -1.515625 C 1.007812 -1.515625 1.125 -1.488281 1.21875 -1.4375 C 1.3125 -1.382812 1.382812 -1.316406 1.4375 -1.234375 L 1.484375 -1.53125 Z M 0.796875 -0.203125 C 0.910156 -0.210938 1.015625 -0.25 1.109375 -0.3125 C 1.210938 -0.375 1.285156 -0.457031 1.328125 -0.5625 C 1.378906 -0.664062 1.398438 -0.78125 1.390625 -0.90625 C 1.378906 -1.050781 1.328125 -1.160156 1.234375 -1.234375 C 1.148438 -1.304688 1.035156 -1.34375 0.890625 -1.34375 C 0.765625 -1.332031 0.65625 -1.296875 0.5625 -1.234375 C 0.476562 -1.171875 0.410156 -1.082031 0.359375 -0.96875 C 0.316406 -0.863281 0.300781 -0.75 0.3125 -0.625 C 0.320312 -0.476562 0.367188 -0.367188 0.453125 -0.296875 C 0.535156 -0.222656 0.648438 -0.191406 0.796875 -0.203125 Z M 0.796875 -0.203125 "/></g></g></g><g fill="#553602" fill-opacity="1"><g transform="translate(33.75703, 4.458365)"><g/></g></g><g fill="#553602" fill-opacity="1"><g transform="translate(34.444345, 4.418232)"><g><path d="M 1.953125 -2.046875 L 0.859375 -0.34375 C 0.710938 -0.113281 0.535156 0.00390625 0.328125 0.015625 C 0.253906 0.015625 0.175781 0.00390625 0.09375 -0.015625 L 0.15625 -0.1875 C 0.21875 -0.164062 0.273438 -0.15625 0.328125 -0.15625 C 0.453125 -0.164062 0.570312 -0.25 0.6875 -0.40625 L 0.75 -0.5 L 0.1875 -1.9375 L 0.40625 -1.953125 L 0.890625 -0.671875 L 1.75 -2.03125 Z M 1.953125 -2.046875 "/></g></g></g><g fill="#553602" fill-opacity="1"><g transform="translate(36.189904, 4.316307)"><g><path d="M 1.421875 -1.53125 L 1.21875 -0.078125 L 1.015625 -0.0625 L 1.109375 -0.65625 C 0.929688 -0.570312 0.765625 -0.523438 0.609375 -0.515625 C 0.460938 -0.515625 0.34375 -0.539062 0.25 -0.59375 C 0.15625 -0.65625 0.109375 -0.742188 0.109375 -0.859375 C 0.109375 -0.890625 0.109375 -0.929688 0.109375 -0.984375 L 0.1875 -1.453125 L 0.390625 -1.46875 L 0.3125 -0.984375 C 0.3125 -0.953125 0.3125 -0.925781 0.3125 -0.90625 C 0.3125 -0.820312 0.34375 -0.757812 0.40625 -0.71875 C 0.46875 -0.6875 0.550781 -0.675781 0.65625 -0.6875 C 0.800781 -0.6875 0.957031 -0.734375 1.125 -0.828125 L 1.234375 -1.515625 Z M 1.421875 -1.53125 "/></g></g></g><g fill="#553602" fill-opacity="1"><g transform="translate(37.793635, 4.222664)"><g><path d="M 0.296875 -0.6875 C 0.304688 -0.664062 0.3125 -0.644531 0.3125 -0.625 C 0.320312 -0.476562 0.367188 -0.367188 0.453125 -0.296875 C 0.535156 -0.222656 0.65625 -0.191406 0.8125 -0.203125 C 0.90625 -0.210938 0.992188 -0.234375 1.078125 -0.265625 C 1.160156 -0.304688 1.226562 -0.359375 1.28125 -0.421875 L 1.375 -0.28125 C 1.320312 -0.207031 1.242188 -0.148438 1.140625 -0.109375 C 1.035156 -0.0664062 0.925781 -0.0390625 0.8125 -0.03125 C 0.601562 -0.0195312 0.4375 -0.0664062 0.3125 -0.171875 C 0.1875 -0.273438 0.117188 -0.421875 0.109375 -0.609375 C 0.0976562 -0.773438 0.117188 -0.921875 0.171875 -1.046875 C 0.234375 -1.179688 0.328125 -1.289062 0.453125 -1.375 C 0.578125 -1.457031 0.710938 -1.5 0.859375 -1.5 C 1.054688 -1.519531 1.210938 -1.476562 1.328125 -1.375 C 1.441406 -1.269531 1.503906 -1.125 1.515625 -0.9375 C 1.515625 -0.882812 1.507812 -0.828125 1.5 -0.765625 Z M 0.859375 -1.328125 C 0.710938 -1.328125 0.59375 -1.28125 0.5 -1.1875 C 0.40625 -1.101562 0.34375 -0.984375 0.3125 -0.828125 L 1.34375 -0.890625 C 1.34375 -0.898438 1.34375 -0.914062 1.34375 -0.9375 C 1.332031 -1.070312 1.28125 -1.171875 1.1875 -1.234375 C 1.101562 -1.304688 0.992188 -1.335938 0.859375 -1.328125 Z M 0.859375 -1.328125 "/></g></g></g><g fill="#553602" fill-opacity="1"><g transform="translate(39.465552, 4.125039)"><g><path d="M 1.015625 -1.421875 C 1.203125 -1.429688 1.347656 -1.390625 1.453125 -1.296875 C 1.566406 -1.203125 1.628906 -1.066406 1.640625 -0.890625 C 1.648438 -0.734375 1.617188 -0.585938 1.546875 -0.453125 C 1.484375 -0.328125 1.390625 -0.226562 1.265625 -0.15625 C 1.140625 -0.0820312 1 -0.0390625 0.84375 -0.03125 C 0.632812 -0.0195312 0.46875 -0.0703125 0.34375 -0.1875 C 0.226562 -0.300781 0.160156 -0.472656 0.140625 -0.703125 C 0.128906 -0.898438 0.160156 -1.085938 0.234375 -1.265625 C 0.304688 -1.441406 0.410156 -1.59375 0.546875 -1.71875 C 0.679688 -1.84375 0.84375 -1.929688 1.03125 -1.984375 L 1.6875 -2.171875 L 1.703125 -2 L 1.078125 -1.828125 C 0.890625 -1.773438 0.734375 -1.679688 0.609375 -1.546875 C 0.484375 -1.410156 0.398438 -1.25 0.359375 -1.0625 C 0.441406 -1.164062 0.535156 -1.25 0.640625 -1.3125 C 0.753906 -1.375 0.878906 -1.410156 1.015625 -1.421875 Z M 0.859375 -0.171875 C 0.972656 -0.179688 1.070312 -0.21875 1.15625 -0.28125 C 1.25 -0.34375 1.316406 -0.421875 1.359375 -0.515625 C 1.410156 -0.609375 1.429688 -0.71875 1.421875 -0.84375 C 1.410156 -0.976562 1.367188 -1.082031 1.296875 -1.15625 C 1.222656 -1.226562 1.113281 -1.257812 0.96875 -1.25 C 0.863281 -1.238281 0.757812 -1.203125 0.65625 -1.140625 C 0.550781 -1.085938 0.472656 -1.015625 0.421875 -0.921875 C 0.367188 -0.828125 0.347656 -0.734375 0.359375 -0.640625 C 0.367188 -0.484375 0.414062 -0.363281 0.5 -0.28125 C 0.59375 -0.195312 0.710938 -0.160156 0.859375 -0.171875 Z M 0.859375 -0.171875 "/></g></g></g><g fill="#553602" fill-opacity="1"><g transform="translate(41.25202, 4.020725)"><g><path d="M 0.78125 -0.03125 C 0.65625 -0.0195312 0.539062 -0.0351562 0.4375 -0.078125 C 0.332031 -0.128906 0.25 -0.195312 0.1875 -0.28125 C 0.125 -0.363281 0.09375 -0.46875 0.09375 -0.59375 C 0.0820312 -0.757812 0.109375 -0.910156 0.171875 -1.046875 C 0.234375 -1.179688 0.328125 -1.289062 0.453125 -1.375 C 0.578125 -1.457031 0.722656 -1.503906 0.890625 -1.515625 C 1.085938 -1.523438 1.242188 -1.476562 1.359375 -1.375 C 1.484375 -1.269531 1.550781 -1.125 1.5625 -0.9375 C 1.570312 -0.769531 1.546875 -0.617188 1.484375 -0.484375 C 1.421875 -0.347656 1.328125 -0.238281 1.203125 -0.15625 C 1.078125 -0.0820312 0.9375 -0.0390625 0.78125 -0.03125 Z M 0.78125 -0.203125 C 0.894531 -0.210938 1 -0.25 1.09375 -0.3125 C 1.195312 -0.375 1.269531 -0.457031 1.3125 -0.5625 C 1.363281 -0.664062 1.382812 -0.78125 1.375 -0.90625 C 1.363281 -1.050781 1.3125 -1.160156 1.21875 -1.234375 C 1.132812 -1.304688 1.019531 -1.34375 0.875 -1.34375 C 0.75 -1.332031 0.640625 -1.296875 0.546875 -1.234375 C 0.460938 -1.171875 0.394531 -1.082031 0.34375 -0.96875 C 0.300781 -0.863281 0.285156 -0.75 0.296875 -0.625 C 0.304688 -0.476562 0.351562 -0.367188 0.4375 -0.296875 C 0.519531 -0.222656 0.632812 -0.191406 0.78125 -0.203125 Z M 0.78125 -0.203125 "/></g></g></g><g fill="#553602" fill-opacity="1"><g transform="translate(42.981213, 3.919755)"><g><path d="M 1.421875 -1.53125 L 1.21875 -0.078125 L 1.015625 -0.0625 L 1.109375 -0.65625 C 0.929688 -0.570312 0.765625 -0.523438 0.609375 -0.515625 C 0.460938 -0.515625 0.34375 -0.539062 0.25 -0.59375 C 0.15625 -0.65625 0.109375 -0.742188 0.109375 -0.859375 C 0.109375 -0.890625 0.109375 -0.929688 0.109375 -0.984375 L 0.1875 -1.453125 L 0.390625 -1.46875 L 0.3125 -0.984375 C 0.3125 -0.953125 0.3125 -0.925781 0.3125 -0.90625 C 0.3125 -0.820312 0.34375 -0.757812 0.40625 -0.71875 C 0.46875 -0.6875 0.550781 -0.675781 0.65625 -0.6875 C 0.800781 -0.6875 0.957031 -0.734375 1.125 -0.828125 L 1.234375 -1.515625 Z M 1.421875 -1.53125 "/></g></g></g><g fill="#553602" fill-opacity="1"><g transform="translate(44.584945, 3.826112)"><g><path d="M 0.90625 -0.796875 L 1.40625 -0.078125 L 1.1875 -0.0625 L 0.765625 -0.6875 L 0.421875 -0.671875 L 0.328125 -0.015625 L 0.125 0 L 0.34375 -1.46875 L 0.53125 -1.46875 L 0.4375 -0.84375 L 0.765625 -0.859375 L 1.359375 -1.515625 L 1.578125 -1.53125 Z M 0.90625 -0.796875 "/></g></g></g><g fill="#553602" fill-opacity="1"><g transform="translate(46.085032, 3.73852)"><g><path d="M 1.6875 -1.546875 L 1.46875 -0.078125 L 1.28125 -0.078125 L 1.3125 -0.3125 C 1.257812 -0.226562 1.179688 -0.160156 1.078125 -0.109375 C 0.984375 -0.0546875 0.878906 -0.03125 0.765625 -0.03125 C 0.648438 -0.0195312 0.539062 -0.0351562 0.4375 -0.078125 C 0.34375 -0.128906 0.265625 -0.195312 0.203125 -0.28125 C 0.140625 -0.375 0.109375 -0.484375 0.109375 -0.609375 C 0.0976562 -0.773438 0.125 -0.921875 0.1875 -1.046875 C 0.25 -1.179688 0.34375 -1.289062 0.46875 -1.375 C 0.59375 -1.457031 0.726562 -1.503906 0.875 -1.515625 C 1.007812 -1.515625 1.125 -1.488281 1.21875 -1.4375 C 1.3125 -1.382812 1.382812 -1.316406 1.4375 -1.234375 L 1.484375 -1.53125 Z M 0.796875 -0.203125 C 0.910156 -0.210938 1.015625 -0.25 1.109375 -0.3125 C 1.210938 -0.375 1.285156 -0.457031 1.328125 -0.5625 C 1.378906 -0.664062 1.398438 -0.78125 1.390625 -0.90625 C 1.378906 -1.050781 1.328125 -1.160156 1.234375 -1.234375 C 1.148438 -1.304688 1.035156 -1.34375 0.890625 -1.34375 C 0.765625 -1.332031 0.65625 -1.296875 0.5625 -1.234375 C 0.476562 -1.171875 0.410156 -1.082031 0.359375 -0.96875 C 0.316406 -0.863281 0.300781 -0.75 0.3125 -0.625 C 0.320312 -0.476562 0.367188 -0.367188 0.453125 -0.296875 C 0.535156 -0.222656 0.648438 -0.191406 0.796875 -0.203125 Z M 0.796875 -0.203125 "/></g></g></g><g fill="#553602" fill-opacity="1"><g transform="translate(47.936957, 3.630384)"><g><path d="M 0.171875 0 C 0.128906 0.0078125 0.09375 0.00390625 0.0625 -0.015625 C 0.0390625 -0.046875 0.03125 -0.0820312 0.03125 -0.125 C 0.0195312 -0.164062 0.03125 -0.203125 0.0625 -0.234375 C 0.09375 -0.265625 0.128906 -0.285156 0.171875 -0.296875 C 0.203125 -0.296875 0.226562 -0.28125 0.25 -0.25 C 0.28125 -0.226562 0.296875 -0.195312 0.296875 -0.15625 C 0.304688 -0.113281 0.296875 -0.078125 0.265625 -0.046875 C 0.242188 -0.015625 0.210938 0 0.171875 0 Z M 0.171875 0 "/></g></g></g><g fill="#553602" fill-opacity="1"><g transform="translate(48.4879, 3.598214)"><g><path d="M 1.046875 -1.515625 C 1.171875 -1.523438 1.28125 -1.503906 1.375 -1.453125 C 1.46875 -1.410156 1.539062 -1.347656 1.59375 -1.265625 C 1.65625 -1.179688 1.691406 -1.078125 1.703125 -0.953125 C 1.710938 -0.785156 1.6875 -0.632812 1.625 -0.5 C 1.5625 -0.363281 1.46875 -0.253906 1.34375 -0.171875 C 1.226562 -0.0859375 1.09375 -0.0390625 0.9375 -0.03125 C 0.800781 -0.03125 0.679688 -0.0507812 0.578125 -0.09375 C 0.484375 -0.144531 0.414062 -0.21875 0.375 -0.3125 L 0.265625 0.515625 L 0.0625 0.53125 L 0.34375 -1.46875 L 0.53125 -1.46875 L 0.5 -1.234375 C 0.5625 -1.328125 0.640625 -1.394531 0.734375 -1.4375 C 0.828125 -1.488281 0.929688 -1.515625 1.046875 -1.515625 Z M 0.921875 -0.203125 C 1.046875 -0.210938 1.15625 -0.25 1.25 -0.3125 C 1.34375 -0.375 1.410156 -0.457031 1.453125 -0.5625 C 1.503906 -0.675781 1.523438 -0.796875 1.515625 -0.921875 C 1.503906 -1.066406 1.453125 -1.175781 1.359375 -1.25 C 1.273438 -1.320312 1.160156 -1.351562 1.015625 -1.34375 C 0.890625 -1.332031 0.78125 -1.296875 0.6875 -1.234375 C 0.601562 -1.171875 0.535156 -1.085938 0.484375 -0.984375 C 0.441406 -0.878906 0.425781 -0.765625 0.4375 -0.640625 C 0.445312 -0.492188 0.492188 -0.382812 0.578125 -0.3125 C 0.660156 -0.238281 0.773438 -0.203125 0.921875 -0.203125 Z M 0.921875 -0.203125 "/></g></g></g><g clip-path="url(#c80b5fe8bf)"><g fill="#553602" fill-opacity="1"><g transform="translate(50.342554, 3.489919)"><g><path d="M 1.96875 -0.96875 C 1.976562 -0.800781 1.941406 -0.648438 1.859375 -0.515625 C 1.785156 -0.390625 1.675781 -0.285156 1.53125 -0.203125 C 1.382812 -0.117188 1.210938 -0.0664062 1.015625 -0.046875 L 0.9375 0.484375 L 0.765625 0.484375 L 0.828125 -0.03125 C 0.597656 -0.03125 0.421875 -0.078125 0.296875 -0.171875 C 0.171875 -0.265625 0.101562 -0.40625 0.09375 -0.59375 C 0.0820312 -0.75 0.113281 -0.894531 0.1875 -1.03125 C 0.257812 -1.164062 0.367188 -1.273438 0.515625 -1.359375 C 0.671875 -1.441406 0.847656 -1.492188 1.046875 -1.515625 L 1.109375 -2.109375 L 1.296875 -2.109375 L 1.21875 -1.53125 C 1.457031 -1.53125 1.640625 -1.484375 1.765625 -1.390625 C 1.890625 -1.296875 1.957031 -1.15625 1.96875 -0.96875 Z M 1.03125 -0.21875 C 1.1875 -0.238281 1.320312 -0.28125 1.4375 -0.34375 C 1.550781 -0.40625 1.640625 -0.488281 1.703125 -0.59375 C 1.765625 -0.695312 1.789062 -0.8125 1.78125 -0.9375 C 1.769531 -1.082031 1.710938 -1.1875 1.609375 -1.25 C 1.515625 -1.320312 1.375 -1.359375 1.1875 -1.359375 Z M 0.265625 -0.625 C 0.273438 -0.476562 0.328125 -0.367188 0.421875 -0.296875 C 0.515625 -0.234375 0.65625 -0.203125 0.84375 -0.203125 L 1.015625 -1.34375 C 0.859375 -1.320312 0.722656 -1.28125 0.609375 -1.21875 C 0.492188 -1.15625 0.40625 -1.070312 0.34375 -0.96875 C 0.28125 -0.863281 0.253906 -0.75 0.265625 -0.625 Z M 0.265625 -0.625 "/></g></g></g></g></g></g></g></g></svg>