<?xml version="1.0" encoding="UTF-8"?>
<!DOCTYPE svg PUBLIC "-//W3C//DTD SVG 1.1//EN" "http://www.w3.org/Graphics/SVG/1.1/DTD/svg11.dtd">
<!-- Creator: CorelDRAW -->
<svg xmlns="http://www.w3.org/2000/svg" xml:space="preserve" width="9.2079mm" height="9.1984mm" version="1.1" style="shape-rendering:geometricPrecision; text-rendering:geometricPrecision; image-rendering:optimizeQuality; fill-rule:evenodd; clip-rule:evenodd"
viewBox="0 0 23.68 23.66"
 xmlns:xlink="http://www.w3.org/1999/xlink"
 xmlns:xodm="http://www.corel.com/coreldraw/odm/2003">
 <defs>
  <style type="text/css">
   <![CDATA[
    .fil0 {fill:#ED7118}
    .fil1 {fill:#FDFDFB}
   ]]>
  </style>
 </defs>
 <g id="Слой_x0020_1">
  <metadata id="CorelCorpID_0Corel-Layer"/>
  <g id="_3029170398448">
   <path class="fil0" d="M12.88 17.03c-3.05,-0.09 -5.37,-1.01 -6.62,-2.71 -1.33,-1.82 -2.51,-4.99 -2.15,-7.09l2.6 -0c0.3,1.68 0.16,2.76 0.94,4.27 0.56,1.08 1.36,2.17 2.7,2.47l0.02 -6.73 2.54 -0.01 0.04 3.85c2.11,-0.31 3.02,-2.3 3.7,-3.85l2.46 -0c0.05,1.94 -1.96,3.83 -3.3,4.86 0.31,0.27 0.93,0.61 1.31,0.89 1.03,0.77 2.49,2.75 2.57,4.05l-2.71 -0c-0.48,-0.99 -0.81,-1.76 -1.47,-2.33 -0.62,-0.54 -1.47,-1.01 -2.59,-1.16l-0.05 3.49zm-12.78 -1.39c0.2,4.05 0.42,6.72 4.16,7.59 2.78,0.64 8.33,0.38 11.4,0.35 3.93,-0.04 6.79,-0.53 7.59,-4.15 0.63,-2.86 0.4,-8.27 0.36,-11.41 -0.06,-3.99 -0.54,-6.79 -4.17,-7.59 -2.78,-0.61 -8.34,-0.42 -11.4,-0.34 -4,0.1 -6.76,0.51 -7.58,4.17 -0.57,2.54 -0.49,8.58 -0.35,11.38z"/>
   <path class="fil1" d="M12.88 17.03l0.05 -3.49c1.13,0.15 1.97,0.63 2.59,1.16 0.66,0.57 0.99,1.33 1.47,2.33l2.71 0c-0.09,-1.3 -1.54,-3.28 -2.57,-4.05 -0.38,-0.28 -1.01,-0.62 -1.31,-0.89 1.33,-1.03 3.35,-2.92 3.3,-4.86l-2.46 0c-0.68,1.55 -1.59,3.54 -3.7,3.85l-0.04 -3.85 -2.54 0.01 -0.02 6.73c-1.34,-0.3 -2.14,-1.39 -2.7,-2.47 -0.78,-1.51 -0.64,-2.59 -0.94,-4.27l-2.6 0c-0.36,2.11 0.82,5.28 2.15,7.09 1.25,1.7 3.57,2.62 6.62,2.71z"/>
  </g>
 </g>
</svg>
