<?xml version="1.0" encoding="UTF-8"?>
<!DOCTYPE svg PUBLIC "-//W3C//DTD SVG 1.1//EN" "http://www.w3.org/Graphics/SVG/1.1/DTD/svg11.dtd">
<!-- Creator: CorelDRAW -->
<svg xmlns="http://www.w3.org/2000/svg" xml:space="preserve" width="10.1629mm" height="10.1526mm" version="1.1" style="shape-rendering:geometricPrecision; text-rendering:geometricPrecision; image-rendering:optimizeQuality; fill-rule:evenodd; clip-rule:evenodd"
viewBox="0 0 1.55 1.55"
 xmlns:xlink="http://www.w3.org/1999/xlink"
 xmlns:xodm="http://www.corel.com/coreldraw/odm/2003">
 <defs>
  <style type="text/css">
   <![CDATA[
    .fil0 {fill:#EDB918}
    .fil1 {fill:#FDFDFB}
   ]]>
  </style>
 </defs>
 <g id="Слой_x0020_1">
  <metadata id="CorelCorpID_0Corel-Layer"/>
  <g id="_105553267769376">
   <path class="fil0" d="M0.84 1.12c-0.2,-0.01 -0.35,-0.07 -0.43,-0.18 -0.09,-0.12 -0.16,-0.33 -0.14,-0.47l0.17 -0c0.02,0.11 0.01,0.18 0.06,0.28 0.04,0.07 0.09,0.14 0.18,0.16l0 -0.44 0.17 -0 0 0.25c0.14,-0.02 0.2,-0.15 0.24,-0.25l0.16 -0c0,0.13 -0.13,0.25 -0.22,0.32 0.02,0.02 0.06,0.04 0.09,0.06 0.07,0.05 0.16,0.18 0.17,0.27l-0.18 -0c-0.03,-0.07 -0.05,-0.12 -0.1,-0.15 -0.04,-0.04 -0.1,-0.07 -0.17,-0.08l-0 0.23zm-0.84 -0.09c0.01,0.27 0.03,0.44 0.27,0.5 0.18,0.04 0.55,0.02 0.75,0.02 0.26,-0 0.45,-0.03 0.5,-0.27 0.04,-0.19 0.03,-0.54 0.02,-0.75 -0,-0.26 -0.04,-0.44 -0.27,-0.5 -0.18,-0.04 -0.55,-0.03 -0.75,-0.02 -0.26,0.01 -0.44,0.03 -0.5,0.27 -0.04,0.17 -0.03,0.56 -0.02,0.75z"/>
   <path class="fil1" d="M0.84 1.12l0 -0.23c0.07,0.01 0.13,0.04 0.17,0.08 0.04,0.04 0.06,0.09 0.1,0.15l0.18 0c-0.01,-0.09 -0.1,-0.22 -0.17,-0.27 -0.03,-0.02 -0.07,-0.04 -0.09,-0.06 0.09,-0.07 0.22,-0.19 0.22,-0.32l-0.16 0c-0.04,0.1 -0.1,0.23 -0.24,0.25l-0 -0.25 -0.17 0 -0 0.44c-0.09,-0.02 -0.14,-0.09 -0.18,-0.16 -0.05,-0.1 -0.04,-0.17 -0.06,-0.28l-0.17 0c-0.02,0.14 0.05,0.35 0.14,0.47 0.08,0.11 0.23,0.17 0.43,0.18z"/>
  </g>
 </g>
</svg>
